{"glyphs":{"0":{"ha":911,"x_min":0,"x_max":0,"o":"m 456 -17 b 57 489 208 -17 57 178 l 57 490 b 456 996 57 802 208 996 b 854 490 704 996 854 802 l 854 489 b 456 -17 854 178 704 -17 m 456 147 b 648 489 578 147 648 274 l 648 490 b 456 831 648 705 578 831 b 264 490 334 831 264 705 l 264 489 b 456 147 264 274 334 147 "},"1":{"ha":667,"x_min":0,"x_max":0,"o":"m 314 791 l 310 791 l 60 621 l 60 803 l 313 979 l 517 979 l 517 0 l 314 0 "},"2":{"ha":838,"x_min":0,"x_max":0,"o":"m 69 140 l 415 464 b 568 698 541 582 568 630 l 568 699 b 419 836 567 779 506 836 b 248 682 319 836 251 770 l 248 676 l 58 676 l 58 682 b 418 996 58 866 211 996 b 767 711 625 996 767 878 l 767 709 b 542 358 767 591 711 513 l 337 171 l 337 163 l 781 163 l 781 0 l 69 0 "},"3":{"ha":875,"x_min":0,"x_max":0,"o":"m 433 -17 b 53 269 212 -17 66 100 l 52 277 l 248 277 l 249 270 b 433 148 258 200 327 148 b 606 284 538 148 606 204 l 606 286 b 418 431 606 379 536 431 l 306 431 l 306 576 l 415 576 b 584 710 517 576 584 631 l 584 711 b 431 838 584 791 528 838 b 262 713 336 838 271 789 l 262 707 l 74 707 l 75 715 b 431 996 88 884 226 996 b 778 739 642 996 778 892 l 778 737 b 574 512 778 615 688 536 l 574 508 b 814 277 719 494 814 410 l 814 276 b 433 -17 814 101 662 -17 "},"4":{"ha":899,"x_min":0,"x_max":0,"o":"m 536 180 l 49 180 l 49 351 l 441 979 l 730 979 l 730 343 l 859 343 l 859 180 l 730 180 l 730 0 l 536 0 m 540 338 l 540 831 l 535 831 l 227 343 l 227 338 "},"5":{"ha":868,"x_min":0,"x_max":0,"o":"m 445 -17 b 79 271 232 -17 91 107 l 78 281 l 267 281 l 269 276 b 446 145 283 202 351 145 b 628 323 553 145 628 218 l 628 324 b 446 500 627 427 552 500 b 320 458 396 500 353 485 b 273 404 300 444 285 425 l 95 404 l 140 979 l 764 979 l 764 816 l 302 816 l 279 541 l 283 541 b 503 646 323 606 404 646 b 823 328 689 646 823 513 l 823 327 b 445 -17 823 122 669 -17 "},"6":{"ha":906,"x_min":0,"x_max":0,"o":"m 464 -17 b 56 481 228 -17 56 149 l 56 482 b 466 996 56 803 211 996 b 827 735 655 996 798 886 l 828 728 l 626 728 l 624 734 b 465 833 600 793 545 833 b 252 524 322 833 260 697 b 251 487 252 511 251 497 l 255 487 b 522 644 294 578 390 644 b 841 327 711 644 841 510 l 841 326 b 464 -17 841 125 682 -17 m 282 321 b 461 146 282 222 361 146 b 642 318 561 146 642 222 l 642 319 b 463 493 642 421 565 493 b 282 322 361 493 282 422 l 282 321 "},"7":{"ha":795,"x_min":0,"x_max":0,"o":"m 541 812 l 541 816 l 43 816 l 43 979 l 743 979 l 743 814 l 335 0 l 120 0 "},"8":{"ha":901,"x_min":0,"x_max":0,"o":"m 451 -17 b 56 267 218 -17 56 99 l 56 269 b 282 515 56 395 151 489 l 282 519 b 92 733 169 547 92 629 l 92 734 b 451 996 92 886 239 996 b 810 734 662 996 810 886 l 810 733 b 620 519 810 629 732 547 l 620 515 b 845 269 751 489 845 395 l 845 267 b 451 -17 845 99 684 -17 m 451 581 b 607 714 543 581 607 635 l 607 715 b 451 848 607 793 543 848 b 294 715 359 848 294 793 l 294 714 b 451 581 294 635 359 581 m 451 132 b 633 281 557 132 633 195 l 633 282 b 451 432 633 369 559 432 b 269 282 343 432 269 369 l 269 281 b 451 132 269 195 344 132 "},"9":{"ha":906,"x_min":0,"x_max":0,"o":"m 442 996 b 850 498 678 996 850 830 l 850 497 b 440 -17 850 176 695 -17 b 79 244 251 -17 109 93 l 78 250 l 280 250 l 282 245 b 441 146 307 186 361 146 b 654 455 584 146 646 282 b 654 492 654 468 655 481 l 651 492 b 384 335 612 401 516 335 b 65 652 195 335 65 469 l 65 654 b 442 996 65 854 224 996 m 443 486 b 624 657 545 486 624 557 l 624 658 b 445 833 624 757 545 833 b 264 661 345 833 264 758 l 264 659 b 443 486 264 557 341 486 "}," ":{"ha":0,"x_min":0,"x_max":0,"o":""}," ":{"ha":0,"x_min":0,"x_max":0,"o":""}," ":{"ha":275,"x_min":0,"x_max":0,"o":""}," ":{"ha":275,"x_min":0,"x_max":0,"o":""}," ":{"ha":138,"x_min":0,"x_max":0,"o":""}," ":{"ha":694,"x_min":0,"x_max":0,"o":""}," ":{"ha":1389,"x_min":0,"x_max":0,"o":""}," ":{"ha":694,"x_min":0,"x_max":0,"o":""}," ":{"ha":1389,"x_min":0,"x_max":0,"o":""}," ":{"ha":463,"x_min":0,"x_max":0,"o":""}," ":{"ha":347,"x_min":0,"x_max":0,"o":""}," ":{"ha":231,"x_min":0,"x_max":0,"o":""}," ":{"ha":899,"x_min":0,"x_max":0,"o":""}," ":{"ha":334,"x_min":0,"x_max":0,"o":""}," ":{"ha":138,"x_min":0,"x_max":0,"o":""}," ":{"ha":69,"x_min":0,"x_max":0,"o":""},"​":{"ha":0,"x_min":0,"x_max":0,"o":""},"‌":{"ha":0,"x_min":0,"x_max":0,"o":""},"‍":{"ha":0,"x_min":0,"x_max":0,"o":""},"⁠":{"ha":0,"x_min":0,"x_max":0,"o":""}," ":{"ha":309,"x_min":0,"x_max":0,"o":""},"A":{"ha":962,"x_min":0,"x_max":0,"o":"m 361 979 l 602 979 l 943 0 l 728 0 l 654 237 l 308 237 l 234 0 l 19 0 m 355 391 l 606 391 l 483 789 l 479 789 "},"À":{"ha":962,"x_min":0,"x_max":0,"o":"m 277 1283 l 451 1283 l 569 1059 l 437 1059 m 361 979 l 602 979 l 943 0 l 728 0 l 654 237 l 308 237 l 234 0 l 19 0 m 355 391 l 606 391 l 483 789 l 479 789 "},"Á":{"ha":962,"x_min":0,"x_max":0,"o":"m 400 1059 l 518 1283 l 692 1283 l 532 1059 m 361 979 l 602 979 l 943 0 l 728 0 l 654 237 l 308 237 l 234 0 l 19 0 m 355 391 l 606 391 l 483 789 l 479 789 "},"Ä":{"ha":962,"x_min":0,"x_max":0,"o":"m 339 1070 b 243 1164 285 1070 243 1113 b 339 1258 243 1215 285 1258 b 435 1164 394 1258 435 1215 b 339 1070 435 1113 394 1070 m 623 1070 b 527 1164 569 1070 527 1113 b 623 1258 527 1215 569 1258 b 720 1164 677 1258 720 1215 b 623 1070 720 1113 677 1070 m 361 979 l 602 979 l 943 0 l 728 0 l 654 237 l 308 237 l 234 0 l 19 0 m 355 391 l 606 391 l 483 789 l 479 789 "},"Ǟ":{"ha":962,"x_min":0,"x_max":0,"o":"m 286 1286 l 676 1286 l 676 1190 l 286 1190 m 595 1021 b 522 1084 552 1021 522 1048 l 522 1088 b 595 1151 522 1124 552 1151 l 600 1151 b 672 1088 642 1151 672 1124 l 672 1084 b 600 1021 672 1048 642 1021 l 595 1021 m 362 1021 b 290 1084 320 1021 290 1048 l 290 1088 b 362 1151 290 1124 320 1151 l 368 1151 b 440 1088 410 1151 440 1124 l 440 1084 b 368 1021 440 1048 410 1021 l 362 1021 m 361 979 l 602 979 l 943 0 l 728 0 l 654 237 l 308 237 l 234 0 l 19 0 m 355 391 l 606 391 l 483 789 l 479 789 "},"Å":{"ha":962,"x_min":0,"x_max":0,"o":"m 485 1036 b 346 1171 409 1036 346 1094 l 346 1171 b 485 1306 346 1248 409 1306 b 624 1171 560 1306 624 1248 l 624 1171 b 485 1036 624 1094 560 1036 m 485 1118 b 539 1171 515 1118 539 1141 l 539 1171 b 485 1225 539 1202 515 1225 b 431 1171 455 1225 431 1202 l 431 1171 b 485 1118 431 1141 455 1118 m 361 979 l 602 979 l 943 0 l 728 0 l 654 237 l 308 237 l 234 0 l 19 0 m 355 391 l 606 391 l 483 789 l 479 789 "},"Å":{"ha":962,"x_min":0,"x_max":0,"o":"m 485 1036 b 624 1171 560 1036 624 1094 l 624 1171 b 485 1306 624 1248 560 1306 b 346 1171 409 1306 346 1248 l 346 1171 b 485 1036 346 1094 409 1036 m 485 1118 b 431 1171 455 1118 431 1141 l 431 1171 b 485 1225 431 1202 455 1225 b 539 1171 515 1225 539 1202 l 539 1171 b 485 1118 539 1141 515 1118 m 19 0 l 234 0 l 308 237 l 654 237 l 728 0 l 943 0 l 602 979 l 361 979 m 479 789 l 483 789 l 606 391 l 355 391 "},"Ǻ":{"ha":962,"x_min":0,"x_max":0,"o":"m 519 1317 l 660 1317 l 522 1185 l 425 1185 m 425 1009 b 324 1088 357 1009 324 1048 l 324 1090 b 425 1169 324 1130 357 1169 l 537 1169 b 638 1090 605 1169 638 1130 l 638 1088 b 537 1009 638 1048 605 1009 l 425 1009 m 515 1067 b 541 1088 532 1067 541 1076 l 541 1090 b 515 1112 541 1103 532 1112 l 448 1112 b 420 1090 431 1112 420 1103 l 420 1088 b 448 1067 420 1076 431 1067 m 361 979 l 602 979 l 943 0 l 728 0 l 654 237 l 308 237 l 234 0 l 19 0 m 355 391 l 606 391 l 483 789 l 479 789 "},"Ã":{"ha":962,"x_min":0,"x_max":0,"o":"m 581 1056 b 487 1088 543 1056 512 1071 l 458 1107 b 401 1133 438 1122 420 1133 b 361 1059 374 1133 361 1109 l 361 1055 l 254 1055 l 254 1065 b 380 1261 254 1198 304 1261 b 473 1228 418 1261 448 1246 l 502 1209 b 559 1184 522 1195 541 1184 b 600 1258 587 1184 600 1207 l 600 1261 l 707 1261 l 707 1251 b 581 1056 707 1121 661 1056 m 361 979 l 602 979 l 943 0 l 728 0 l 654 237 l 308 237 l 234 0 l 19 0 m 355 391 l 606 391 l 483 789 l 479 789 "},"Ằ":{"ha":962,"x_min":0,"x_max":0,"o":"m 441 1192 l 302 1322 l 442 1322 l 537 1192 m 480 1017 b 281 1175 356 1017 281 1078 l 281 1181 l 383 1181 l 383 1179 b 480 1107 383 1139 418 1107 l 481 1107 b 579 1179 544 1107 579 1139 l 579 1181 l 682 1181 l 682 1175 b 481 1017 682 1078 606 1017 l 480 1017 m 361 979 l 602 979 l 943 0 l 728 0 l 654 237 l 308 237 l 234 0 l 19 0 m 355 391 l 606 391 l 483 789 l 479 789 "},"Ǡ":{"ha":962,"x_min":0,"x_max":0,"o":"m 286 1285 l 676 1285 l 676 1189 l 286 1189 m 479 1028 b 409 1091 437 1028 409 1057 l 409 1093 b 479 1155 409 1127 437 1155 l 483 1155 b 553 1093 525 1155 553 1128 l 553 1091 b 483 1028 553 1057 525 1028 l 479 1028 m 361 979 l 602 979 l 943 0 l 728 0 l 654 237 l 308 237 l 234 0 l 19 0 m 355 391 l 606 391 l 483 789 l 479 789 "},"Ḁ":{"ha":962,"x_min":0,"x_max":0,"o":"m 361 979 l 602 979 l 943 0 l 728 0 l 654 237 l 308 237 l 234 0 l 19 0 m 355 391 l 606 391 l 483 789 l 479 789 m 485 -69 b 643 -203 574 -69 643 -124 l 643 -204 b 485 -338 643 -283 574 -338 l 477 -338 b 319 -204 389 -338 319 -283 l 319 -203 b 477 -69 319 -124 389 -69 l 485 -69 m 479 -151 b 413 -203 440 -151 413 -172 l 413 -204 b 479 -256 413 -235 440 -256 l 484 -256 b 549 -204 522 -256 549 -235 l 549 -203 b 484 -151 549 -172 522 -151 "},"Â":{"ha":962,"x_min":0,"x_max":0,"o":"m 401 1283 l 559 1283 l 718 1059 l 576 1059 l 479 1195 l 386 1059 l 245 1059 m 361 979 l 602 979 l 943 0 l 728 0 l 654 237 l 308 237 l 234 0 l 19 0 m 355 391 l 606 391 l 483 789 l 479 789 "},"Ậ":{"ha":962,"x_min":0,"x_max":0,"o":"m 401 1283 l 559 1283 l 718 1059 l 576 1059 l 479 1195 l 386 1059 l 245 1059 m 361 979 l 602 979 l 943 0 l 728 0 l 654 237 l 308 237 l 234 0 l 19 0 m 355 391 l 606 391 l 483 789 l 479 789 m 481 -299 b 375 -196 422 -299 375 -252 b 481 -93 375 -140 422 -93 b 587 -196 541 -93 587 -140 b 481 -299 587 -252 541 -299 "},"Ấ":{"ha":962,"x_min":0,"x_max":0,"o":"m 665 1322 l 806 1322 l 667 1192 l 570 1192 m 546 1160 l 692 1023 l 557 1023 l 480 1095 l 406 1023 l 270 1023 l 415 1160 m 361 979 l 602 979 l 943 0 l 728 0 l 654 237 l 308 237 l 234 0 l 19 0 m 355 391 l 606 391 l 483 789 l 479 789 "},"Ẫ":{"ha":962,"x_min":0,"x_max":0,"o":"m 566 1188 b 477 1211 534 1188 505 1196 l 460 1221 b 414 1236 441 1232 429 1236 b 382 1190 391 1236 382 1220 l 382 1188 l 282 1188 l 282 1194 b 395 1322 282 1278 330 1322 b 484 1298 426 1322 456 1314 l 501 1289 b 549 1274 519 1278 532 1274 b 581 1320 570 1274 581 1290 l 581 1322 l 680 1322 l 680 1316 b 566 1188 680 1232 631 1188 m 546 1160 l 692 1023 l 557 1023 l 480 1095 l 406 1023 l 270 1023 l 415 1160 m 361 979 l 602 979 l 943 0 l 728 0 l 654 237 l 308 237 l 234 0 l 19 0 m 355 391 l 606 391 l 483 789 l 479 789 "},"Ầ":{"ha":962,"x_min":0,"x_max":0,"o":"m 586 1192 l 448 1322 l 588 1322 l 682 1192 m 546 1160 l 692 1023 l 557 1023 l 480 1095 l 406 1023 l 270 1023 l 415 1160 m 361 979 l 602 979 l 943 0 l 728 0 l 654 237 l 308 237 l 234 0 l 19 0 m 355 391 l 606 391 l 483 789 l 479 789 "},"Ẩ":{"ha":962,"x_min":0,"x_max":0,"o":"m 577 1164 b 601 1206 593 1178 601 1192 b 547 1242 601 1228 585 1242 b 515 1239 536 1242 524 1241 l 515 1316 b 583 1325 530 1320 555 1325 b 705 1244 658 1325 705 1294 b 650 1162 705 1211 684 1185 l 577 1162 m 546 1160 l 692 1023 l 557 1023 l 480 1095 l 406 1023 l 270 1023 l 415 1160 m 361 979 l 602 979 l 943 0 l 728 0 l 654 237 l 308 237 l 234 0 l 19 0 m 355 391 l 606 391 l 483 789 l 479 789 "},"Ă":{"ha":962,"x_min":0,"x_max":0,"o":"m 481 1057 b 254 1272 345 1057 254 1143 l 254 1278 l 374 1278 l 374 1276 b 481 1171 374 1217 416 1171 b 589 1276 547 1171 589 1217 l 589 1278 l 709 1278 l 709 1272 b 481 1057 709 1143 617 1057 m 361 979 l 602 979 l 943 0 l 728 0 l 654 237 l 308 237 l 234 0 l 19 0 m 355 391 l 606 391 l 483 789 l 479 789 "},"Ắ":{"ha":962,"x_min":0,"x_max":0,"o":"m 519 1322 l 660 1322 l 522 1192 l 425 1192 m 480 1017 b 281 1175 356 1017 281 1078 l 281 1181 l 383 1181 l 383 1179 b 480 1107 383 1139 418 1107 l 481 1107 b 579 1179 544 1107 579 1139 l 579 1181 l 682 1181 l 682 1175 b 481 1017 682 1078 606 1017 l 480 1017 m 361 979 l 602 979 l 943 0 l 728 0 l 654 237 l 308 237 l 234 0 l 19 0 m 355 391 l 606 391 l 483 789 l 479 789 "},"Ẵ":{"ha":962,"x_min":0,"x_max":0,"o":"m 566 1188 b 477 1211 534 1188 505 1196 l 460 1221 b 414 1236 441 1232 429 1236 b 382 1190 391 1236 382 1220 l 382 1188 l 282 1188 l 282 1194 b 395 1322 282 1278 330 1322 b 484 1298 426 1322 456 1314 l 501 1289 b 549 1274 519 1278 532 1274 b 581 1320 570 1274 581 1290 l 581 1322 l 680 1322 l 680 1316 b 566 1188 680 1232 631 1188 m 480 1019 b 283 1154 358 1019 283 1070 l 283 1159 l 383 1159 l 383 1157 b 480 1105 383 1126 419 1105 l 481 1105 b 579 1157 543 1105 579 1126 l 579 1159 l 679 1159 l 679 1154 b 481 1019 679 1070 604 1019 l 480 1019 m 361 979 l 602 979 l 943 0 l 728 0 l 654 237 l 308 237 l 234 0 l 19 0 m 355 391 l 606 391 l 483 789 l 479 789 "},"Ẳ":{"ha":962,"x_min":0,"x_max":0,"o":"m 432 1164 b 455 1206 447 1178 455 1192 b 401 1242 455 1228 439 1242 b 370 1239 390 1242 378 1241 l 370 1316 b 437 1325 385 1320 410 1325 b 559 1244 512 1325 559 1294 b 505 1162 559 1211 539 1185 l 432 1162 m 480 1017 b 281 1175 356 1017 281 1078 l 281 1181 l 383 1181 l 383 1179 b 480 1107 383 1139 418 1107 l 481 1107 b 579 1179 544 1107 579 1139 l 579 1181 l 682 1181 l 682 1175 b 481 1017 682 1078 606 1017 l 480 1017 m 361 979 l 602 979 l 943 0 l 728 0 l 654 237 l 308 237 l 234 0 l 19 0 m 355 391 l 606 391 l 483 789 l 479 789 "},"Ặ":{"ha":962,"x_min":0,"x_max":0,"o":"m 481 1057 b 254 1272 345 1057 254 1143 l 254 1278 l 374 1278 l 374 1276 b 481 1171 374 1217 416 1171 b 589 1276 547 1171 589 1217 l 589 1278 l 709 1278 l 709 1272 b 481 1057 709 1143 617 1057 m 361 979 l 602 979 l 943 0 l 728 0 l 654 237 l 308 237 l 234 0 l 19 0 m 355 391 l 606 391 l 483 789 l 479 789 m 481 -299 b 375 -196 422 -299 375 -252 b 481 -93 375 -140 422 -93 b 587 -196 541 -93 587 -140 b 481 -299 587 -252 541 -299 "},"Ȃ":{"ha":962,"x_min":0,"x_max":0,"o":"m 481 1278 b 709 1063 617 1278 709 1192 l 709 1057 l 589 1057 l 589 1059 b 481 1164 589 1118 547 1164 b 374 1059 416 1164 374 1118 l 374 1057 l 254 1057 l 254 1063 b 481 1278 254 1192 345 1278 m 361 979 l 602 979 l 943 0 l 728 0 l 654 237 l 308 237 l 234 0 l 19 0 m 355 391 l 606 391 l 483 789 l 479 789 "},"Ǎ":{"ha":962,"x_min":0,"x_max":0,"o":"m 561 1059 l 402 1059 l 245 1283 l 386 1283 l 482 1147 l 576 1283 l 718 1283 m 361 979 l 602 979 l 943 0 l 728 0 l 654 237 l 308 237 l 234 0 l 19 0 m 355 391 l 606 391 l 483 789 l 479 789 "},"Ȧ":{"ha":962,"x_min":0,"x_max":0,"o":"m 481 1067 b 380 1166 425 1067 380 1112 b 481 1263 380 1219 425 1263 b 581 1166 537 1263 581 1219 b 481 1067 581 1112 537 1067 m 361 979 l 602 979 l 943 0 l 728 0 l 654 237 l 308 237 l 234 0 l 19 0 m 355 391 l 606 391 l 483 789 l 479 789 "},"Ạ":{"ha":962,"x_min":0,"x_max":0,"o":"m 361 979 l 602 979 l 943 0 l 728 0 l 654 237 l 308 237 l 234 0 l 19 0 m 355 391 l 606 391 l 483 789 l 479 789 m 481 -299 b 375 -196 422 -299 375 -252 b 481 -93 375 -140 422 -93 b 587 -196 541 -93 587 -140 b 481 -299 587 -252 541 -299 "},"Ả":{"ha":962,"x_min":0,"x_max":0,"o":"m 424 1061 b 482 1144 457 1088 482 1115 b 396 1196 482 1177 449 1196 b 345 1192 376 1196 359 1194 l 345 1290 b 433 1303 366 1297 399 1303 b 602 1175 529 1303 602 1253 b 530 1059 602 1127 574 1090 l 424 1059 m 361 979 l 602 979 l 943 0 l 728 0 l 654 237 l 308 237 l 234 0 l 19 0 m 355 391 l 606 391 l 483 789 l 479 789 "},"Ȁ":{"ha":962,"x_min":0,"x_max":0,"o":"m 140 1283 l 313 1283 l 447 1059 l 315 1059 m 399 1283 l 573 1283 l 691 1059 l 559 1059 m 361 979 l 602 979 l 943 0 l 728 0 l 654 237 l 308 237 l 234 0 l 19 0 m 355 391 l 606 391 l 483 789 l 479 789 "},"Ā":{"ha":962,"x_min":0,"x_max":0,"o":"m 271 1225 l 691 1225 l 691 1103 l 271 1103 m 361 979 l 602 979 l 943 0 l 728 0 l 654 237 l 308 237 l 234 0 l 19 0 m 355 391 l 606 391 l 483 789 l 479 789 "},"Ą":{"ha":962,"x_min":0,"x_max":0,"o":"m 361 979 l 602 979 l 943 0 b 857 -146 886 -43 857 -90 l 857 -147 b 922 -218 857 -195 886 -218 b 955 -214 935 -218 947 -217 l 955 -311 b 852 -328 933 -321 892 -328 b 688 -178 760 -328 688 -273 l 688 -178 b 791 0 688 -110 724 -45 l 728 0 l 654 237 l 308 237 l 234 0 l 19 0 m 355 391 l 606 391 l 483 789 l 479 789 "},"Ⱥ":{"ha":962,"x_min":0,"x_max":0,"o":"m 361 979 l 561 979 l 589 1092 l 718 1061 l 656 819 l 943 0 l 728 0 l 654 237 l 509 237 l 421 -113 l 292 -82 l 373 237 l 308 237 l 234 0 l 19 0 m 355 391 l 412 391 l 499 736 l 483 789 l 479 789 m 606 391 l 574 494 l 548 391 "},"B":{"ha":888,"x_min":0,"x_max":0,"o":"m 81 979 l 507 979 b 808 733 692 979 808 884 l 808 732 b 618 519 808 625 726 533 l 618 515 b 853 280 755 505 853 408 l 853 279 b 515 0 853 107 724 0 l 81 0 m 286 827 l 286 570 l 429 570 b 606 703 545 570 606 618 l 606 704 b 454 827 606 782 550 827 m 286 431 l 286 153 l 463 153 b 644 292 580 153 644 201 l 644 293 b 454 431 644 382 579 431 "},"Ḇ":{"ha":888,"x_min":0,"x_max":0,"o":"m 81 979 l 507 979 b 808 733 692 979 808 884 l 808 732 b 618 519 808 625 726 533 l 618 515 b 853 280 755 505 853 408 l 853 279 b 515 0 853 107 724 0 l 81 0 m 286 827 l 286 570 l 429 570 b 606 703 545 570 606 618 l 606 704 b 454 827 606 782 550 827 m 286 431 l 286 153 l 463 153 b 644 292 580 153 644 201 l 644 293 b 454 431 644 382 579 431 m 181 -130 l 615 -130 l 615 -252 l 181 -252 "},"Ḅ":{"ha":888,"x_min":0,"x_max":0,"o":"m 81 979 l 507 979 b 808 733 692 979 808 884 l 808 732 b 618 519 808 625 726 533 l 618 515 b 853 280 755 505 853 408 l 853 279 b 515 0 853 107 724 0 l 81 0 m 286 827 l 286 570 l 429 570 b 606 703 545 570 606 618 l 606 704 b 454 827 606 782 550 827 m 286 431 l 286 153 l 463 153 b 644 292 580 153 644 201 l 644 293 b 454 431 644 382 579 431 m 398 -299 b 292 -196 339 -299 292 -252 b 398 -93 292 -140 339 -93 b 504 -196 458 -93 504 -140 b 398 -299 504 -252 458 -299 "},"Ḃ":{"ha":888,"x_min":0,"x_max":0,"o":"m 398 1067 b 298 1166 342 1067 298 1112 b 398 1263 298 1219 342 1263 b 498 1166 454 1263 498 1219 b 398 1067 498 1112 454 1067 m 81 979 l 507 979 b 808 733 692 979 808 884 l 808 732 b 618 519 808 625 726 533 l 618 515 b 853 280 755 505 853 408 l 853 279 b 515 0 853 107 724 0 l 81 0 m 286 827 l 286 570 l 429 570 b 606 703 545 570 606 618 l 606 704 b 454 827 606 782 550 827 m 286 431 l 286 153 l 463 153 b 644 292 580 153 644 201 l 644 293 b 454 431 644 382 579 431 "},"Ɓ":{"ha":1111,"x_min":0,"x_max":0,"o":"m 304 825 l 268 825 b 178 733 210 825 178 793 b 197 642 178 705 184 675 l 32 642 b 10 760 18 680 10 720 b 262 979 10 897 106 979 l 730 979 b 1030 733 915 979 1030 884 l 1030 732 b 841 519 1030 625 949 533 l 841 515 b 1076 280 977 505 1076 408 l 1076 279 b 737 0 1076 107 946 0 l 304 0 m 509 827 l 509 570 l 652 570 b 829 703 767 570 829 618 l 829 704 b 677 827 829 782 772 827 m 509 431 l 509 153 l 685 153 b 867 292 802 153 867 201 l 867 293 b 676 431 867 383 802 431 "},"C":{"ha":989,"x_min":0,"x_max":0,"o":"m 517 -17 b 51 490 231 -17 51 174 l 51 490 b 517 996 51 806 231 996 b 943 638 754 996 924 846 l 944 632 l 745 632 l 742 644 b 517 822 719 751 639 822 b 260 491 360 822 260 696 l 260 490 b 517 157 260 284 360 157 b 744 340 635 157 718 224 l 745 347 l 945 347 l 944 340 b 517 -17 925 132 753 -17 "},"Ć":{"ha":989,"x_min":0,"x_max":0,"o":"m 436 1059 l 554 1283 l 728 1283 l 568 1059 m 517 -17 b 51 490 231 -17 51 174 l 51 490 b 517 996 51 806 231 996 b 943 638 754 996 924 846 l 944 632 l 745 632 l 742 644 b 517 822 719 751 639 822 b 260 491 360 822 260 696 l 260 490 b 517 157 260 284 360 157 b 744 340 635 157 718 224 l 745 347 l 945 347 l 944 340 b 517 -17 925 132 753 -17 "},"Č":{"ha":989,"x_min":0,"x_max":0,"o":"m 597 1059 l 438 1059 l 281 1283 l 422 1283 l 518 1147 l 612 1283 l 753 1283 m 517 -17 b 51 490 231 -17 51 174 l 51 490 b 517 996 51 806 231 996 b 943 638 754 996 924 846 l 944 632 l 745 632 l 742 644 b 517 822 719 751 639 822 b 260 491 360 822 260 696 l 260 490 b 517 157 260 284 360 157 b 744 340 635 157 718 224 l 745 347 l 945 347 l 944 340 b 517 -17 925 132 753 -17 "},"Ĉ":{"ha":989,"x_min":0,"x_max":0,"o":"m 437 1283 l 595 1283 l 753 1059 l 612 1059 l 515 1195 l 422 1059 l 281 1059 m 517 -17 b 51 490 231 -17 51 174 l 51 490 b 517 996 51 806 231 996 b 943 638 754 996 924 846 l 944 632 l 745 632 l 742 644 b 517 822 719 751 639 822 b 260 491 360 822 260 696 l 260 490 b 517 157 260 284 360 157 b 744 340 635 157 718 224 l 745 347 l 945 347 l 944 340 b 517 -17 925 132 753 -17 "},"Ċ":{"ha":989,"x_min":0,"x_max":0,"o":"m 517 1067 b 416 1166 460 1067 416 1112 b 517 1263 416 1219 460 1263 b 617 1166 573 1263 617 1219 b 517 1067 617 1112 573 1067 m 517 -17 b 51 490 231 -17 51 174 l 51 490 b 517 996 51 806 231 996 b 943 638 754 996 924 846 l 944 632 l 745 632 l 742 644 b 517 822 719 751 639 822 b 260 491 360 822 260 696 l 260 490 b 517 157 260 284 360 157 b 744 340 635 157 718 224 l 745 347 l 945 347 l 944 340 b 517 -17 925 132 753 -17 "},"Ç":{"ha":989,"x_min":0,"x_max":0,"o":"m 506 -322 b 392 -306 458 -322 414 -315 l 392 -211 b 460 -220 408 -216 434 -220 b 523 -183 496 -220 523 -209 l 523 -182 b 450 -140 523 -155 500 -140 l 424 -140 l 424 -81 l 465 -15 b 51 490 209 7 51 193 l 51 490 b 517 996 51 806 231 996 b 943 638 754 996 924 846 l 944 632 l 745 632 l 742 644 b 517 822 719 751 639 822 b 260 491 360 822 260 696 l 260 490 b 517 157 260 284 360 157 b 744 340 635 157 718 224 l 745 347 l 945 347 l 944 340 b 578 -14 926 150 783 9 l 551 -56 b 675 -187 627 -63 675 -108 l 675 -189 b 506 -322 675 -271 604 -322 "},"Ḉ":{"ha":989,"x_min":0,"x_max":0,"o":"m 436 1059 l 554 1283 l 728 1283 l 568 1059 m 506 -322 b 392 -306 458 -322 414 -315 l 392 -211 b 460 -220 408 -216 434 -220 b 523 -183 496 -220 523 -209 l 523 -182 b 450 -140 523 -155 500 -140 l 424 -140 l 424 -81 l 465 -15 b 51 490 209 7 51 193 l 51 490 b 517 996 51 806 231 996 b 943 638 754 996 924 846 l 944 632 l 745 632 l 742 644 b 517 822 719 751 639 822 b 260 491 360 822 260 696 l 260 490 b 517 157 260 284 360 157 b 744 340 635 157 718 224 l 745 347 l 945 347 l 944 340 b 578 -14 926 150 783 9 l 551 -56 b 675 -187 627 -63 675 -108 l 675 -189 b 506 -322 675 -271 604 -322 "},"Ȼ":{"ha":989,"x_min":0,"x_max":0,"o":"m 517 -17 b 441 -12 490 -17 466 -16 l 416 -113 l 288 -82 l 314 22 b 51 490 148 92 51 257 l 51 490 b 516 996 51 806 231 996 b 559 994 531 996 546 995 l 585 1092 l 713 1061 l 689 966 b 943 638 833 912 929 791 l 944 632 l 745 632 l 742 644 b 644 789 728 707 694 758 l 485 159 b 517 157 495 157 506 157 b 744 340 635 157 718 224 l 745 347 l 945 347 l 944 340 b 517 -17 925 132 753 -17 m 260 490 b 362 212 260 364 297 268 l 516 822 b 260 491 359 822 260 695 l 260 490 "},"D":{"ha":972,"x_min":0,"x_max":0,"o":"m 81 979 l 455 979 b 922 494 748 979 922 804 l 922 493 b 455 0 922 182 749 0 l 81 0 m 431 170 b 713 492 614 170 713 281 l 713 494 b 431 810 713 698 610 810 l 286 810 l 286 170 "},"Ḋ":{"ha":972,"x_min":0,"x_max":0,"o":"m 441 1067 b 340 1166 385 1067 340 1112 b 441 1263 340 1219 385 1263 b 541 1166 497 1263 541 1219 b 441 1067 541 1112 497 1067 m 81 979 l 455 979 b 922 494 748 979 922 804 l 922 493 b 455 0 922 182 749 0 l 81 0 m 431 170 b 713 492 614 170 713 281 l 713 494 b 431 810 713 698 610 810 l 286 810 l 286 170 "},"Ḓ":{"ha":972,"x_min":0,"x_max":0,"o":"m 81 979 l 455 979 b 922 494 748 979 922 804 l 922 493 b 455 0 922 182 749 0 l 81 0 m 431 170 b 713 492 614 170 713 281 l 713 494 b 431 810 713 698 610 810 l 286 810 l 286 170 m 360 -81 l 520 -81 l 685 -304 l 542 -304 l 439 -168 l 340 -304 l 197 -304 "},"Ḑ":{"ha":972,"x_min":0,"x_max":0,"o":"m 81 979 l 455 979 b 922 494 748 979 922 804 l 922 493 b 455 0 922 182 749 0 l 81 0 m 431 170 b 713 492 614 170 713 281 l 713 494 b 431 810 713 698 610 810 l 286 810 l 286 170 m 352 -81 l 524 -81 l 424 -322 l 300 -322 "},"Ḏ":{"ha":972,"x_min":0,"x_max":0,"o":"m 81 979 l 455 979 b 922 494 748 979 922 804 l 922 493 b 455 0 922 182 749 0 l 81 0 m 431 170 b 713 492 614 170 713 281 l 713 494 b 431 810 713 698 610 810 l 286 810 l 286 170 m 224 -130 l 658 -130 l 658 -252 l 224 -252 "},"Ď":{"ha":972,"x_min":0,"x_max":0,"o":"m 521 1059 l 362 1059 l 205 1283 l 346 1283 l 442 1147 l 536 1283 l 677 1283 m 81 979 l 455 979 b 922 494 748 979 922 804 l 922 493 b 455 0 922 182 749 0 l 81 0 m 431 170 b 713 492 614 170 713 281 l 713 494 b 431 810 713 698 610 810 l 286 810 l 286 170 "},"Ḍ":{"ha":972,"x_min":0,"x_max":0,"o":"m 81 979 l 455 979 b 922 494 748 979 922 804 l 922 493 b 455 0 922 182 749 0 l 81 0 m 431 170 b 713 492 614 170 713 281 l 713 494 b 431 810 713 698 610 810 l 286 810 l 286 170 m 441 -299 b 335 -196 382 -299 335 -252 b 441 -93 335 -140 382 -93 b 547 -196 500 -93 547 -140 b 441 -299 547 -252 500 -299 "},"Ð":{"ha":999,"x_min":0,"x_max":0,"o":"m 109 423 l 27 423 l 27 555 l 109 555 l 109 979 l 482 979 b 949 494 775 979 949 804 l 949 493 b 482 0 949 182 776 0 l 109 0 m 458 170 b 740 492 640 170 740 281 l 740 494 b 458 810 740 698 637 810 l 313 810 l 313 555 l 461 555 l 461 423 l 313 423 l 313 170 "},"Đ":{"ha":999,"x_min":0,"x_max":0,"o":"m 109 0 l 482 0 b 949 493 776 0 949 182 l 949 494 b 482 979 949 804 775 979 l 109 979 l 109 555 l 27 555 l 27 423 l 109 423 m 313 170 l 313 423 l 461 423 l 461 555 l 313 555 l 313 810 l 458 810 b 740 494 637 810 740 698 l 740 492 b 458 170 740 281 640 170 "},"Ɗ":{"ha":1195,"x_min":0,"x_max":0,"o":"m 304 825 l 268 825 b 178 733 210 825 178 793 b 197 642 178 705 184 675 l 32 642 b 10 760 18 680 10 720 b 262 979 10 897 106 979 l 677 979 b 1144 494 970 979 1144 804 l 1144 493 b 677 0 1144 182 971 0 l 304 0 m 653 170 b 935 492 836 170 935 281 l 935 494 b 653 810 935 698 833 810 l 509 810 l 509 170 "},"E":{"ha":796,"x_min":0,"x_max":0,"o":"m 81 979 l 730 979 l 730 810 l 286 810 l 286 575 l 705 575 l 705 415 l 286 415 l 286 169 l 730 169 l 730 0 l 81 0 "},"È":{"ha":796,"x_min":0,"x_max":0,"o":"m 202 1283 l 376 1283 l 494 1059 l 362 1059 m 81 979 l 730 979 l 730 810 l 286 810 l 286 575 l 705 575 l 705 415 l 286 415 l 286 169 l 730 169 l 730 0 l 81 0 "},"Ȅ":{"ha":796,"x_min":0,"x_max":0,"o":"m 64 1283 l 238 1283 l 372 1059 l 240 1059 m 324 1283 l 498 1283 l 616 1059 l 484 1059 m 81 979 l 730 979 l 730 810 l 286 810 l 286 575 l 705 575 l 705 415 l 286 415 l 286 169 l 730 169 l 730 0 l 81 0 "},"É":{"ha":796,"x_min":0,"x_max":0,"o":"m 325 1059 l 443 1283 l 616 1283 l 456 1059 m 81 979 l 730 979 l 730 810 l 286 810 l 286 575 l 705 575 l 705 415 l 286 415 l 286 169 l 730 169 l 730 0 l 81 0 "},"Ê":{"ha":796,"x_min":0,"x_max":0,"o":"m 326 1283 l 484 1283 l 642 1059 l 501 1059 l 404 1195 l 311 1059 l 170 1059 m 81 979 l 730 979 l 730 810 l 286 810 l 286 575 l 705 575 l 705 415 l 286 415 l 286 169 l 730 169 l 730 0 l 81 0 "},"Ể":{"ha":796,"x_min":0,"x_max":0,"o":"m 502 1164 b 526 1206 517 1178 526 1192 b 472 1242 526 1228 509 1242 b 439 1239 460 1242 448 1241 l 439 1316 b 508 1325 455 1320 480 1325 b 629 1244 583 1325 629 1294 b 575 1162 629 1211 609 1185 l 502 1162 m 471 1160 l 617 1023 l 481 1023 l 405 1095 l 330 1023 l 195 1023 l 340 1160 m 81 979 l 730 979 l 730 810 l 286 810 l 286 575 l 705 575 l 705 415 l 286 415 l 286 169 l 730 169 l 730 0 l 81 0 "},"Ề":{"ha":796,"x_min":0,"x_max":0,"o":"m 511 1192 l 372 1322 l 513 1322 l 607 1192 m 471 1160 l 617 1023 l 481 1023 l 405 1095 l 330 1023 l 195 1023 l 340 1160 m 81 979 l 730 979 l 730 810 l 286 810 l 286 575 l 705 575 l 705 415 l 286 415 l 286 169 l 730 169 l 730 0 l 81 0 "},"Ễ":{"ha":796,"x_min":0,"x_max":0,"o":"m 491 1188 b 401 1211 459 1188 430 1196 l 385 1221 b 338 1236 366 1232 354 1236 b 307 1190 316 1236 307 1220 l 307 1188 l 207 1188 l 207 1194 b 320 1322 207 1278 255 1322 b 408 1298 351 1322 380 1314 l 426 1289 b 473 1274 444 1278 456 1274 b 505 1320 495 1274 505 1290 l 505 1322 l 604 1322 l 604 1316 b 491 1188 604 1232 555 1188 m 471 1160 l 617 1023 l 481 1023 l 405 1095 l 330 1023 l 195 1023 l 340 1160 m 81 979 l 730 979 l 730 810 l 286 810 l 286 575 l 705 575 l 705 415 l 286 415 l 286 169 l 730 169 l 730 0 l 81 0 "},"Ệ":{"ha":796,"x_min":0,"x_max":0,"o":"m 326 1283 l 484 1283 l 642 1059 l 501 1059 l 404 1195 l 311 1059 l 170 1059 m 81 979 l 730 979 l 730 810 l 286 810 l 286 575 l 705 575 l 705 415 l 286 415 l 286 169 l 730 169 l 730 0 l 81 0 m 406 -299 b 300 -196 347 -299 300 -252 b 406 -93 300 -140 347 -93 b 511 -196 465 -93 511 -140 b 406 -299 511 -252 465 -299 "},"Ế":{"ha":796,"x_min":0,"x_max":0,"o":"m 590 1322 l 730 1322 l 591 1192 l 495 1192 m 471 1160 l 617 1023 l 481 1023 l 405 1095 l 330 1023 l 195 1023 l 340 1160 m 81 979 l 730 979 l 730 810 l 286 810 l 286 575 l 705 575 l 705 415 l 286 415 l 286 169 l 730 169 l 730 0 l 81 0 "},"Ë":{"ha":796,"x_min":0,"x_max":0,"o":"m 264 1070 b 168 1164 210 1070 168 1113 b 264 1258 168 1215 210 1258 b 360 1164 319 1258 360 1215 b 264 1070 360 1113 319 1070 m 548 1070 b 452 1164 494 1070 452 1113 b 548 1258 452 1215 494 1258 b 644 1164 602 1258 644 1215 b 548 1070 644 1113 602 1070 m 81 979 l 730 979 l 730 810 l 286 810 l 286 575 l 705 575 l 705 415 l 286 415 l 286 169 l 730 169 l 730 0 l 81 0 "},"Ẹ":{"ha":796,"x_min":0,"x_max":0,"o":"m 81 979 l 730 979 l 730 810 l 286 810 l 286 575 l 705 575 l 705 415 l 286 415 l 286 169 l 730 169 l 730 0 l 81 0 m 406 -299 b 300 -196 347 -299 300 -252 b 406 -93 300 -140 347 -93 b 511 -196 465 -93 511 -140 b 406 -299 511 -252 465 -299 "},"Ȇ":{"ha":796,"x_min":0,"x_max":0,"o":"m 406 1278 b 633 1063 542 1278 633 1192 l 633 1057 l 513 1057 l 513 1059 b 406 1164 513 1118 471 1164 b 298 1059 340 1164 298 1118 l 298 1057 l 178 1057 l 178 1063 b 406 1278 178 1192 269 1278 m 81 979 l 730 979 l 730 810 l 286 810 l 286 575 l 705 575 l 705 415 l 286 415 l 286 169 l 730 169 l 730 0 l 81 0 "},"Ẻ":{"ha":796,"x_min":0,"x_max":0,"o":"m 349 1061 b 407 1144 382 1088 407 1115 b 321 1196 407 1177 374 1196 b 269 1192 301 1196 283 1194 l 269 1290 b 357 1303 290 1297 323 1303 b 526 1175 454 1303 526 1253 b 455 1059 526 1127 498 1090 l 349 1059 m 81 979 l 730 979 l 730 810 l 286 810 l 286 575 l 705 575 l 705 415 l 286 415 l 286 169 l 730 169 l 730 0 l 81 0 "},"Ě":{"ha":796,"x_min":0,"x_max":0,"o":"m 486 1059 l 327 1059 l 170 1283 l 311 1283 l 407 1147 l 501 1283 l 642 1283 m 81 979 l 730 979 l 730 810 l 286 810 l 286 575 l 705 575 l 705 415 l 286 415 l 286 169 l 730 169 l 730 0 l 81 0 "},"Ē":{"ha":796,"x_min":0,"x_max":0,"o":"m 196 1225 l 616 1225 l 616 1103 l 196 1103 m 81 979 l 730 979 l 730 810 l 286 810 l 286 575 l 705 575 l 705 415 l 286 415 l 286 169 l 730 169 l 730 0 l 81 0 "},"Ḕ":{"ha":796,"x_min":0,"x_max":0,"o":"m 366 1183 l 227 1314 l 367 1314 l 462 1183 m 211 1133 l 601 1133 l 601 1037 l 211 1037 m 81 979 l 730 979 l 730 810 l 286 810 l 286 575 l 705 575 l 705 415 l 286 415 l 286 169 l 730 169 l 730 0 l 81 0 "},"Ḗ":{"ha":796,"x_min":0,"x_max":0,"o":"m 444 1314 l 585 1314 l 446 1183 l 350 1183 m 211 1133 l 601 1133 l 601 1037 l 211 1037 m 81 979 l 730 979 l 730 810 l 286 810 l 286 575 l 705 575 l 705 415 l 286 415 l 286 169 l 730 169 l 730 0 l 81 0 "},"Ẽ":{"ha":796,"x_min":0,"x_max":0,"o":"m 506 1056 b 412 1088 467 1056 437 1071 l 383 1107 b 326 1133 363 1122 345 1133 b 286 1059 299 1133 286 1109 l 286 1055 l 178 1055 l 178 1065 b 304 1261 178 1198 229 1261 b 397 1228 343 1261 373 1246 l 427 1209 b 484 1184 447 1195 465 1184 b 525 1258 511 1184 525 1207 l 525 1261 l 632 1261 l 632 1251 b 506 1056 632 1121 585 1056 m 81 979 l 730 979 l 730 810 l 286 810 l 286 575 l 705 575 l 705 415 l 286 415 l 286 169 l 730 169 l 730 0 l 81 0 "},"Ḙ":{"ha":796,"x_min":0,"x_max":0,"o":"m 81 979 l 730 979 l 730 810 l 286 810 l 286 575 l 705 575 l 705 415 l 286 415 l 286 169 l 730 169 l 730 0 l 81 0 m 325 -81 l 485 -81 l 650 -304 l 507 -304 l 404 -168 l 304 -304 l 161 -304 "},"Ĕ":{"ha":796,"x_min":0,"x_max":0,"o":"m 406 1057 b 178 1272 269 1057 178 1143 l 178 1278 l 298 1278 l 298 1276 b 406 1171 298 1217 340 1171 b 513 1276 471 1171 513 1217 l 513 1278 l 633 1278 l 633 1272 b 406 1057 633 1143 542 1057 m 81 979 l 730 979 l 730 810 l 286 810 l 286 575 l 705 575 l 705 415 l 286 415 l 286 169 l 730 169 l 730 0 l 81 0 "},"Ḛ":{"ha":796,"x_min":0,"x_max":0,"o":"m 81 979 l 730 979 l 730 810 l 286 810 l 286 575 l 705 575 l 705 415 l 286 415 l 286 169 l 730 169 l 730 0 l 81 0 m 511 -307 b 412 -273 470 -307 438 -292 l 382 -253 b 322 -225 361 -237 342 -225 b 280 -304 294 -225 280 -250 l 280 -308 l 171 -308 l 171 -298 b 300 -96 171 -161 223 -96 b 398 -131 341 -96 372 -112 l 428 -151 b 489 -178 450 -167 469 -178 b 531 -100 517 -178 531 -154 l 531 -96 l 640 -96 l 640 -106 b 511 -307 640 -240 592 -307 "},"Ė":{"ha":796,"x_min":0,"x_max":0,"o":"m 406 1067 b 305 1166 349 1067 305 1112 b 406 1263 305 1219 349 1263 b 506 1166 462 1263 506 1219 b 406 1067 506 1112 462 1067 m 81 979 l 730 979 l 730 810 l 286 810 l 286 575 l 705 575 l 705 415 l 286 415 l 286 169 l 730 169 l 730 0 l 81 0 "},"Ȩ":{"ha":796,"x_min":0,"x_max":0,"o":"m 81 979 l 730 979 l 730 810 l 286 810 l 286 575 l 705 575 l 705 415 l 286 415 l 286 169 l 730 169 l 730 0 l 475 0 l 440 -56 b 564 -187 515 -63 564 -108 l 564 -189 b 395 -322 564 -271 492 -322 b 281 -306 347 -322 302 -315 l 281 -211 b 349 -220 297 -216 323 -220 b 412 -183 385 -220 412 -209 l 412 -182 b 338 -140 412 -155 389 -140 l 313 -140 l 313 -81 l 363 0 l 81 0 "},"Ḝ":{"ha":796,"x_min":0,"x_max":0,"o":"m 406 1057 b 178 1272 269 1057 178 1143 l 178 1278 l 298 1278 l 298 1276 b 406 1171 298 1217 340 1171 b 513 1276 471 1171 513 1217 l 513 1278 l 633 1278 l 633 1272 b 406 1057 633 1143 542 1057 m 81 979 l 730 979 l 730 810 l 286 810 l 286 575 l 705 575 l 705 415 l 286 415 l 286 169 l 730 169 l 730 0 l 475 0 l 440 -56 b 564 -187 515 -63 564 -108 l 564 -189 b 395 -322 564 -271 492 -322 b 281 -306 347 -322 302 -315 l 281 -211 b 349 -220 297 -216 323 -220 b 412 -183 385 -220 412 -209 l 412 -182 b 338 -140 412 -155 389 -140 l 313 -140 l 313 -81 l 363 0 l 81 0 "},"Ę":{"ha":796,"x_min":0,"x_max":0,"o":"m 81 979 l 730 979 l 730 810 l 286 810 l 286 575 l 705 575 l 705 415 l 286 415 l 286 169 l 730 169 l 730 0 b 644 -146 673 -43 644 -90 l 644 -147 b 709 -218 644 -195 673 -218 b 742 -214 722 -218 734 -217 l 742 -311 b 640 -328 720 -321 680 -328 b 475 -178 547 -328 475 -273 l 475 -178 b 578 0 475 -110 511 -45 l 81 0 "},"Ǝ":{"ha":796,"x_min":0,"x_max":0,"o":"m 66 0 l 66 169 l 510 169 l 510 415 l 92 415 l 92 575 l 510 575 l 510 810 l 66 810 l 66 979 l 715 979 l 715 0 "},"Ɛ":{"ha":876,"x_min":0,"x_max":0,"o":"m 441 420 b 258 286 326 420 258 370 l 258 284 b 437 153 258 205 329 153 b 629 272 551 153 620 196 l 629 278 l 827 278 l 827 271 b 439 -17 821 100 666 -17 b 50 271 212 -17 50 103 l 50 272 b 264 509 50 401 132 494 l 264 515 b 81 735 155 538 81 627 l 81 736 b 435 996 81 891 222 996 b 804 712 654 996 797 886 l 805 704 l 614 704 l 614 712 b 439 825 605 784 542 825 b 277 711 336 825 277 783 l 277 710 b 443 580 277 631 341 580 l 574 580 l 574 420 "},"F":{"ha":762,"x_min":0,"x_max":0,"o":"m 81 979 l 722 979 l 722 810 l 286 810 l 286 547 l 684 547 l 684 385 l 286 385 l 286 0 l 81 0 "},"Ḟ":{"ha":762,"x_min":0,"x_max":0,"o":"m 401 1067 b 301 1166 346 1067 301 1112 b 401 1263 301 1219 346 1263 b 503 1166 458 1263 503 1219 b 401 1067 503 1112 458 1067 m 81 979 l 722 979 l 722 810 l 286 810 l 286 547 l 684 547 l 684 385 l 286 385 l 286 0 l 81 0 "},"Ƒ":{"ha":762,"x_min":0,"x_max":0,"o":"m 286 -13 b 39 -239 286 -163 203 -239 b -47 -235 4 -239 -27 -237 l -47 -90 b -4 -92 -36 -92 -20 -92 b 81 -13 54 -92 81 -67 l 81 979 l 722 979 l 722 810 l 286 810 l 286 547 l 684 547 l 684 385 l 286 385 "},"G":{"ha":1010,"x_min":0,"x_max":0,"o":"m 522 -17 b 51 492 230 -17 51 174 l 51 493 b 517 996 51 806 231 996 b 945 675 753 996 913 859 l 947 665 l 742 665 l 739 672 b 518 822 707 767 629 822 b 260 495 357 822 260 703 l 260 494 b 526 157 260 282 363 157 b 756 357 659 157 751 236 l 757 371 l 533 371 l 533 524 l 956 524 l 956 411 b 522 -17 956 144 795 -17 "},"Ǵ":{"ha":1010,"x_min":0,"x_max":0,"o":"m 436 1059 l 555 1283 l 728 1283 l 568 1059 m 522 -17 b 51 492 230 -17 51 174 l 51 493 b 517 996 51 806 231 996 b 945 675 753 996 913 859 l 947 665 l 742 665 l 739 672 b 518 822 707 767 629 822 b 260 495 357 822 260 703 l 260 494 b 526 157 260 282 363 157 b 756 357 659 157 751 236 l 757 371 l 533 371 l 533 524 l 956 524 l 956 411 b 522 -17 956 144 795 -17 "},"Ǧ":{"ha":1010,"x_min":0,"x_max":0,"o":"m 597 1059 l 439 1059 l 281 1283 l 422 1283 l 519 1147 l 612 1283 l 753 1283 m 522 -17 b 51 492 230 -17 51 174 l 51 493 b 517 996 51 806 231 996 b 945 675 753 996 913 859 l 947 665 l 742 665 l 739 672 b 518 822 707 767 629 822 b 260 495 357 822 260 703 l 260 494 b 526 157 260 282 363 157 b 756 357 659 157 751 236 l 757 371 l 533 371 l 533 524 l 956 524 l 956 411 b 522 -17 956 144 795 -17 "},"Ĝ":{"ha":1010,"x_min":0,"x_max":0,"o":"m 437 1283 l 596 1283 l 753 1059 l 612 1059 l 515 1195 l 422 1059 l 281 1059 m 522 -17 b 51 492 230 -17 51 174 l 51 493 b 517 996 51 806 231 996 b 945 675 753 996 913 859 l 947 665 l 742 665 l 739 672 b 518 822 707 767 629 822 b 260 495 357 822 260 703 l 260 494 b 526 157 260 282 363 157 b 756 357 659 157 751 236 l 757 371 l 533 371 l 533 524 l 956 524 l 956 411 b 522 -17 956 144 795 -17 "},"Ğ":{"ha":1010,"x_min":0,"x_max":0,"o":"m 517 1057 b 290 1272 381 1057 290 1143 l 290 1278 l 410 1278 l 410 1276 b 517 1171 410 1217 452 1171 b 625 1276 583 1171 625 1217 l 625 1278 l 745 1278 l 745 1272 b 517 1057 745 1143 654 1057 m 522 -17 b 51 492 230 -17 51 174 l 51 493 b 517 996 51 806 231 996 b 945 675 753 996 913 859 l 947 665 l 742 665 l 739 672 b 518 822 707 767 629 822 b 260 495 357 822 260 703 l 260 494 b 526 157 260 282 363 157 b 756 357 659 157 751 236 l 757 371 l 533 371 l 533 524 l 956 524 l 956 411 b 522 -17 956 144 795 -17 "},"Ḡ":{"ha":1010,"x_min":0,"x_max":0,"o":"m 307 1225 l 727 1225 l 727 1103 l 307 1103 m 522 -17 b 51 492 230 -17 51 174 l 51 493 b 517 996 51 806 231 996 b 945 675 753 996 913 859 l 947 665 l 742 665 l 739 672 b 518 822 707 767 629 822 b 260 495 357 822 260 703 l 260 494 b 526 157 260 282 363 157 b 756 357 659 157 751 236 l 757 371 l 533 371 l 533 524 l 956 524 l 956 411 b 522 -17 956 144 795 -17 "},"Ġ":{"ha":1010,"x_min":0,"x_max":0,"o":"m 517 1067 b 416 1166 461 1067 416 1112 b 517 1263 416 1219 461 1263 b 618 1166 574 1263 618 1219 b 517 1067 618 1112 574 1067 m 522 -17 b 51 492 230 -17 51 174 l 51 493 b 517 996 51 806 231 996 b 945 675 753 996 913 859 l 947 665 l 742 665 l 739 672 b 518 822 707 767 629 822 b 260 495 357 822 260 703 l 260 494 b 526 157 260 282 363 157 b 756 357 659 157 751 236 l 757 371 l 533 371 l 533 524 l 956 524 l 956 411 b 522 -17 956 144 795 -17 "},"Ģ":{"ha":1010,"x_min":0,"x_max":0,"o":"m 522 -17 b 51 492 230 -17 51 174 l 51 493 b 517 996 51 806 231 996 b 945 675 753 996 913 859 l 947 665 l 742 665 l 739 672 b 518 822 707 767 629 822 b 260 495 357 822 260 703 l 260 494 b 526 157 260 282 363 157 b 756 357 659 157 751 236 l 757 371 l 533 371 l 533 524 l 956 524 l 956 411 b 522 -17 956 144 795 -17 m 431 -81 l 603 -81 l 504 -322 l 380 -322 "},"Ǥ":{"ha":1071,"x_min":0,"x_max":0,"o":"m 522 -17 b 51 492 230 -17 51 174 l 51 493 b 517 996 51 806 231 996 b 945 675 753 996 913 859 l 947 665 l 742 665 l 739 672 b 518 822 707 767 629 822 b 260 495 357 822 260 703 l 260 494 b 526 157 260 282 363 157 b 681 205 588 157 641 174 l 618 205 l 618 337 l 754 337 b 756 357 755 343 755 350 l 757 371 l 533 371 l 533 524 l 956 524 l 956 411 b 951 337 956 385 954 361 l 1072 337 l 1072 205 l 916 205 b 522 -17 852 64 715 -17 "},"H":{"ha":1013,"x_min":0,"x_max":0,"o":"m 81 979 l 286 979 l 286 581 l 727 581 l 727 979 l 932 979 l 932 0 l 727 0 l 727 412 l 286 412 l 286 0 l 81 0 "},"Ḧ":{"ha":1013,"x_min":0,"x_max":0,"o":"m 365 1070 b 269 1164 311 1070 269 1113 b 365 1258 269 1215 311 1258 b 461 1164 420 1258 461 1215 b 365 1070 461 1113 420 1070 m 649 1070 b 553 1164 595 1070 553 1113 b 649 1258 553 1215 595 1258 b 745 1164 703 1258 745 1215 b 649 1070 745 1113 703 1070 m 81 979 l 286 979 l 286 581 l 727 581 l 727 979 l 932 979 l 932 0 l 727 0 l 727 412 l 286 412 l 286 0 l 81 0 "},"Ȟ":{"ha":1013,"x_min":0,"x_max":0,"o":"m 587 1059 l 428 1059 l 271 1283 l 412 1283 l 508 1147 l 602 1283 l 743 1283 m 81 979 l 286 979 l 286 581 l 727 581 l 727 979 l 932 979 l 932 0 l 727 0 l 727 412 l 286 412 l 286 0 l 81 0 "},"Ĥ":{"ha":1013,"x_min":0,"x_max":0,"o":"m 427 1283 l 585 1283 l 743 1059 l 602 1059 l 505 1195 l 412 1059 l 271 1059 m 81 979 l 286 979 l 286 581 l 727 581 l 727 979 l 932 979 l 932 0 l 727 0 l 727 412 l 286 412 l 286 0 l 81 0 "},"Ḥ":{"ha":1013,"x_min":0,"x_max":0,"o":"m 81 979 l 286 979 l 286 581 l 727 581 l 727 979 l 932 979 l 932 0 l 727 0 l 727 412 l 286 412 l 286 0 l 81 0 m 507 -299 b 401 -196 448 -299 401 -252 b 507 -93 401 -140 448 -93 b 612 -196 566 -93 612 -140 b 507 -299 612 -252 566 -299 "},"Ḣ":{"ha":1013,"x_min":0,"x_max":0,"o":"m 507 1067 b 406 1166 450 1067 406 1112 b 507 1263 406 1219 450 1263 b 607 1166 563 1263 607 1219 b 507 1067 607 1112 563 1067 m 81 979 l 286 979 l 286 581 l 727 581 l 727 979 l 932 979 l 932 0 l 727 0 l 727 412 l 286 412 l 286 0 l 81 0 "},"Ḫ":{"ha":1013,"x_min":0,"x_max":0,"o":"m 81 979 l 286 979 l 286 581 l 727 581 l 727 979 l 932 979 l 932 0 l 727 0 l 727 412 l 286 412 l 286 0 l 81 0 m 507 -304 b 272 -87 366 -304 272 -217 l 272 -81 l 394 -81 l 394 -83 b 507 -190 394 -143 437 -190 b 620 -83 576 -190 620 -143 l 620 -81 l 742 -81 l 742 -87 b 507 -304 742 -217 648 -304 "},"Ḩ":{"ha":1013,"x_min":0,"x_max":0,"o":"m 81 979 l 286 979 l 286 581 l 727 581 l 727 979 l 932 979 l 932 0 l 727 0 l 727 412 l 286 412 l 286 0 l 252 -56 b 375 -187 327 -63 375 -108 l 375 -189 b 206 -322 375 -271 304 -322 b 92 -306 159 -322 114 -315 l 92 -211 b 160 -220 109 -216 134 -220 b 223 -183 197 -220 223 -209 l 223 -182 b 150 -140 223 -155 200 -140 l 124 -140 l 124 -81 l 175 0 l 81 0 "},"Ħ":{"ha":1067,"x_min":0,"x_max":0,"o":"m 109 718 l 27 718 l 27 850 l 109 850 l 109 979 l 313 979 l 313 850 l 754 850 l 754 979 l 959 979 l 959 850 l 1040 850 l 1040 718 l 959 718 l 959 0 l 754 0 l 754 412 l 313 412 l 313 0 l 109 0 m 754 581 l 754 718 l 313 718 l 313 581 "},"I":{"ha":368,"x_min":0,"x_max":0,"o":"m 81 979 l 286 979 l 286 0 l 81 0 "},"İ":{"ha":368,"x_min":0,"x_max":0,"o":"m 184 1067 b 83 1166 127 1067 83 1112 b 184 1263 83 1219 127 1263 b 284 1166 240 1263 284 1219 b 184 1067 284 1112 240 1067 m 81 979 l 286 979 l 286 0 l 81 0 "},"Ì":{"ha":368,"x_min":0,"x_max":0,"o":"m -20 1283 l 154 1283 l 272 1059 l 140 1059 m 81 979 l 286 979 l 286 0 l 81 0 "},"Ȉ":{"ha":368,"x_min":0,"x_max":0,"o":"m -157 1283 l 16 1283 l 150 1059 l 18 1059 m 102 1283 l 276 1283 l 394 1059 l 262 1059 m 81 979 l 286 979 l 286 0 l 81 0 "},"Í":{"ha":368,"x_min":0,"x_max":0,"o":"m 103 1059 l 221 1283 l 395 1283 l 235 1059 m 81 979 l 286 979 l 286 0 l 81 0 "},"Î":{"ha":368,"x_min":0,"x_max":0,"o":"m 104 1283 l 262 1283 l 420 1059 l 279 1059 l 182 1195 l 89 1059 l -52 1059 m 81 979 l 286 979 l 286 0 l 81 0 "},"Ǐ":{"ha":368,"x_min":0,"x_max":0,"o":"m 264 1059 l 105 1059 l -52 1283 l 89 1283 l 185 1147 l 279 1283 l 420 1283 m 81 979 l 286 979 l 286 0 l 81 0 "},"Ï":{"ha":368,"x_min":0,"x_max":0,"o":"m 42 1070 b -54 1164 -12 1070 -54 1113 b 42 1258 -54 1215 -12 1258 b 138 1164 97 1258 138 1215 b 42 1070 138 1113 97 1070 m 326 1070 b 230 1164 272 1070 230 1113 b 326 1258 230 1215 272 1258 b 422 1164 380 1258 422 1215 b 326 1070 422 1113 380 1070 m 81 979 l 286 979 l 286 0 l 81 0 "},"Ḯ":{"ha":368,"x_min":0,"x_max":0,"o":"m 222 1316 l 363 1316 l 224 1185 l 128 1185 m 298 1021 b 225 1084 255 1021 225 1048 l 225 1088 b 298 1151 225 1124 255 1151 l 303 1151 b 375 1088 345 1151 375 1124 l 375 1084 b 303 1021 375 1048 345 1021 l 298 1021 m 65 1021 b -7 1084 23 1021 -7 1048 l -7 1088 b 65 1151 -7 1124 23 1151 l 71 1151 b 143 1088 113 1151 143 1124 l 143 1084 b 71 1021 143 1048 113 1021 l 65 1021 m 81 979 l 286 979 l 286 0 l 81 0 "},"Ĭ":{"ha":368,"x_min":0,"x_max":0,"o":"m 184 1057 b -43 1272 47 1057 -43 1143 l -43 1278 l 77 1278 l 77 1276 b 184 1171 77 1217 119 1171 b 292 1276 250 1171 292 1217 l 292 1278 l 412 1278 l 412 1272 b 184 1057 412 1143 320 1057 m 81 979 l 286 979 l 286 0 l 81 0 "},"Ị":{"ha":368,"x_min":0,"x_max":0,"o":"m 81 979 l 286 979 l 286 0 l 81 0 m 184 -299 b 78 -196 125 -299 78 -252 b 184 -93 78 -140 125 -93 b 290 -196 243 -93 290 -140 b 184 -299 290 -252 243 -299 "},"Ȋ":{"ha":368,"x_min":0,"x_max":0,"o":"m 184 1278 b 412 1063 320 1278 412 1192 l 412 1057 l 292 1057 l 292 1059 b 184 1164 292 1118 250 1164 b 77 1059 119 1164 77 1118 l 77 1057 l -43 1057 l -43 1063 b 184 1278 -43 1192 47 1278 m 81 979 l 286 979 l 286 0 l 81 0 "},"Ī":{"ha":368,"x_min":0,"x_max":0,"o":"m -26 1225 l 394 1225 l 394 1103 l -26 1103 m 81 979 l 286 979 l 286 0 l 81 0 "},"Ḭ":{"ha":368,"x_min":0,"x_max":0,"o":"m 81 979 l 286 979 l 286 0 l 81 0 m 289 -307 b 190 -273 248 -307 216 -292 l 161 -253 b 100 -225 139 -237 121 -225 b 58 -304 73 -225 58 -250 l 58 -308 l -51 -308 l -51 -298 b 79 -96 -51 -161 1 -96 b 176 -131 119 -96 151 -112 l 206 -151 b 267 -178 228 -167 247 -178 b 309 -100 295 -178 309 -154 l 309 -96 l 418 -96 l 418 -106 b 289 -307 418 -240 370 -307 "},"Ỉ":{"ha":368,"x_min":0,"x_max":0,"o":"m 127 1061 b 185 1144 160 1088 185 1115 b 99 1196 185 1177 152 1196 b 47 1192 79 1196 62 1194 l 47 1290 b 136 1303 68 1297 102 1303 b 304 1175 232 1303 304 1253 b 233 1059 304 1127 277 1090 l 127 1059 m 81 979 l 286 979 l 286 0 l 81 0 "},"Ĩ":{"ha":368,"x_min":0,"x_max":0,"o":"m 284 1056 b 190 1088 245 1056 215 1071 l 161 1107 b 104 1133 141 1122 123 1133 b 64 1059 77 1133 64 1109 l 64 1055 l -43 1055 l -43 1065 b 83 1261 -43 1198 7 1261 b 176 1228 121 1261 151 1246 l 205 1209 b 262 1184 225 1195 243 1184 b 303 1258 290 1184 303 1207 l 303 1261 l 410 1261 l 410 1251 b 284 1056 410 1121 363 1056 m 81 979 l 286 979 l 286 0 l 81 0 "},"Į":{"ha":368,"x_min":0,"x_max":0,"o":"m 81 979 l 286 979 l 286 0 b 201 -146 230 -43 201 -90 l 201 -147 b 266 -218 201 -195 230 -218 b 298 -214 279 -218 291 -217 l 298 -311 b 196 -328 277 -321 236 -328 b 31 -178 103 -328 31 -273 l 31 -178 b 134 0 31 -110 68 -45 l 81 0 "},"Ɨ":{"ha":449,"x_min":0,"x_max":0,"o":"m 122 409 l 41 409 l 41 541 l 122 541 l 122 979 l 327 979 l 327 541 l 408 541 l 408 409 l 327 409 l 327 0 l 122 0 "},"J":{"ha":775,"x_min":0,"x_max":0,"o":"m 351 -17 b 22 287 149 -17 26 103 l 21 293 l 220 293 l 220 289 b 349 160 224 213 269 160 b 481 311 435 160 481 212 l 481 979 l 686 979 l 686 309 b 351 -17 686 103 564 -17 "},"Ĵ":{"ha":775,"x_min":0,"x_max":0,"o":"m 504 1283 l 663 1283 l 821 1059 l 680 1059 l 583 1195 l 489 1059 l 348 1059 m 351 -17 b 22 287 149 -17 26 103 l 21 293 l 220 293 l 220 289 b 349 160 224 213 269 160 b 481 311 435 160 481 212 l 481 979 l 686 979 l 686 309 b 351 -17 686 103 564 -17 "},"Ĳ":{"ha":1143,"x_min":0,"x_max":0,"o":"m 81 979 l 286 979 l 286 0 l 81 0 m 719 -17 b 389 287 517 -17 394 103 l 389 293 l 587 293 l 588 289 b 717 160 591 213 636 160 b 849 311 803 160 849 212 l 849 979 l 1054 979 l 1054 309 b 719 -17 1054 103 931 -17 "},"K":{"ha":907,"x_min":0,"x_max":0,"o":"m 81 979 l 286 979 l 286 531 l 291 531 l 650 979 l 878 979 l 527 547 l 903 0 l 658 0 l 378 413 l 286 300 l 286 0 l 81 0 "},"K":{"ha":907,"x_min":0,"x_max":0,"o":"m 81 0 l 286 0 l 286 300 l 378 413 l 658 0 l 903 0 l 527 547 l 878 979 l 650 979 l 291 531 l 286 531 l 286 979 l 81 979 "},"Ḱ":{"ha":907,"x_min":0,"x_max":0,"o":"m 366 1059 l 484 1283 l 657 1283 l 497 1059 m 81 979 l 286 979 l 286 531 l 291 531 l 650 979 l 878 979 l 527 547 l 903 0 l 658 0 l 378 413 l 286 300 l 286 0 l 81 0 "},"Ǩ":{"ha":907,"x_min":0,"x_max":0,"o":"m 526 1059 l 368 1059 l 210 1283 l 351 1283 l 448 1147 l 542 1283 l 683 1283 m 81 979 l 286 979 l 286 531 l 291 531 l 650 979 l 878 979 l 527 547 l 903 0 l 658 0 l 378 413 l 286 300 l 286 0 l 81 0 "},"Ḳ":{"ha":907,"x_min":0,"x_max":0,"o":"m 81 979 l 286 979 l 286 531 l 291 531 l 650 979 l 878 979 l 527 547 l 903 0 l 658 0 l 378 413 l 286 300 l 286 0 l 81 0 m 446 -299 b 340 -196 387 -299 340 -252 b 446 -93 340 -140 387 -93 b 552 -196 506 -93 552 -140 b 446 -299 552 -252 506 -299 "},"Ḵ":{"ha":907,"x_min":0,"x_max":0,"o":"m 81 979 l 286 979 l 286 531 l 291 531 l 650 979 l 878 979 l 527 547 l 903 0 l 658 0 l 378 413 l 286 300 l 286 0 l 81 0 m 229 -130 l 663 -130 l 663 -252 l 229 -252 "},"Ķ":{"ha":907,"x_min":0,"x_max":0,"o":"m 81 979 l 286 979 l 286 531 l 291 531 l 650 979 l 878 979 l 527 547 l 903 0 l 658 0 l 378 413 l 286 300 l 286 0 l 81 0 m 357 -81 l 529 -81 l 429 -322 l 306 -322 "},"Ƙ":{"ha":918,"x_min":0,"x_max":0,"o":"m 81 979 l 286 979 l 286 531 l 291 531 l 572 869 b 786 991 635 951 690 991 b 887 972 817 991 857 985 l 887 795 b 814 807 863 803 838 807 b 709 754 768 807 741 792 l 528 547 l 913 0 l 668 0 l 379 414 l 286 300 l 286 0 l 81 0 "},"L":{"ha":754,"x_min":0,"x_max":0,"o":"m 81 979 l 286 979 l 286 169 l 714 169 l 714 0 l 81 0 "},"Ĺ":{"ha":754,"x_min":0,"x_max":0,"o":"m 103 1059 l 221 1283 l 395 1283 l 235 1059 m 81 979 l 286 979 l 286 169 l 714 169 l 714 0 l 81 0 "},"Ḽ":{"ha":754,"x_min":0,"x_max":0,"o":"m 81 979 l 286 979 l 286 169 l 714 169 l 714 0 l 81 0 m 317 -81 l 477 -81 l 642 -304 l 499 -304 l 396 -168 l 297 -304 l 154 -304 "},"Ŀ":{"ha":754,"x_min":0,"x_max":0,"o":"m 81 979 l 286 979 l 286 169 l 714 169 l 714 0 l 81 0 m 671 533 b 562 424 671 472 623 424 l 560 424 b 451 533 499 424 451 472 l 451 534 b 560 644 451 595 499 644 l 562 644 b 671 534 623 644 671 595 "},"Ḷ":{"ha":754,"x_min":0,"x_max":0,"o":"m 81 979 l 286 979 l 286 169 l 714 169 l 714 0 l 81 0 m 398 -299 b 292 -196 338 -299 292 -252 b 398 -93 292 -140 338 -93 b 504 -196 458 -93 504 -140 b 398 -299 504 -252 458 -299 "},"Ḹ":{"ha":754,"x_min":0,"x_max":0,"o":"m -26 1225 l 394 1225 l 394 1103 l -26 1103 m 81 979 l 286 979 l 286 169 l 714 169 l 714 0 l 81 0 m 398 -299 b 292 -196 338 -299 292 -252 b 398 -93 292 -140 338 -93 b 504 -196 458 -93 504 -140 b 398 -299 504 -252 458 -299 "},"Ḻ":{"ha":754,"x_min":0,"x_max":0,"o":"m 81 979 l 286 979 l 286 169 l 714 169 l 714 0 l 81 0 m 181 -130 l 615 -130 l 615 -252 l 181 -252 "},"Ļ":{"ha":754,"x_min":0,"x_max":0,"o":"m 81 979 l 286 979 l 286 169 l 714 169 l 714 0 l 81 0 m 309 -81 l 480 -81 l 381 -322 l 257 -322 "},"Ľ":{"ha":754,"x_min":0,"x_max":0,"o":"m 467 979 l 635 979 l 548 690 l 427 690 m 81 979 l 286 979 l 286 169 l 714 169 l 714 0 l 81 0 "},"Ł":{"ha":771,"x_min":0,"x_max":0,"o":"m 98 347 l 27 311 l 27 454 l 98 489 l 98 979 l 303 979 l 303 591 l 553 716 l 553 574 l 303 450 l 303 169 l 731 169 l 731 0 l 98 0 "},"Ɫ":{"ha":842,"x_min":0,"x_max":0,"o":"m 170 524 b 159 524 166 524 163 524 b -1 460 89 524 35 501 l -1 632 b 162 700 35 669 88 700 b 170 700 164 700 167 700 l 170 979 l 374 979 l 374 646 b 487 624 413 634 450 624 b 646 688 557 624 611 647 l 646 516 b 484 448 610 479 557 448 b 374 467 447 448 410 456 l 374 169 l 802 169 l 802 0 l 170 0 "},"M":{"ha":1196,"x_min":0,"x_max":0,"o":"m 81 979 l 318 979 l 596 275 l 600 275 l 878 979 l 1115 979 l 1115 0 l 932 0 l 932 662 l 926 662 l 663 0 l 534 0 l 269 662 l 264 662 l 264 0 l 81 0 "},"Ḿ":{"ha":1196,"x_min":0,"x_max":0,"o":"m 519 1059 l 637 1283 l 810 1283 l 650 1059 m 81 979 l 318 979 l 596 275 l 600 275 l 878 979 l 1115 979 l 1115 0 l 932 0 l 932 662 l 926 662 l 663 0 l 534 0 l 269 662 l 264 662 l 264 0 l 81 0 "},"Ṁ":{"ha":1196,"x_min":0,"x_max":0,"o":"m 600 1067 b 499 1166 543 1067 499 1112 b 600 1263 499 1219 543 1263 b 700 1166 656 1263 700 1219 b 600 1067 700 1112 656 1067 m 81 979 l 318 979 l 596 275 l 600 275 l 878 979 l 1115 979 l 1115 0 l 932 0 l 932 662 l 926 662 l 663 0 l 534 0 l 269 662 l 264 662 l 264 0 l 81 0 "},"Ṃ":{"ha":1196,"x_min":0,"x_max":0,"o":"m 81 979 l 318 979 l 596 275 l 600 275 l 878 979 l 1115 979 l 1115 0 l 932 0 l 932 662 l 926 662 l 663 0 l 534 0 l 269 662 l 264 662 l 264 0 l 81 0 m 600 -299 b 494 -196 541 -299 494 -252 b 600 -93 494 -140 541 -93 b 705 -196 659 -93 705 -140 b 600 -299 705 -252 659 -299 "},"N":{"ha":992,"x_min":0,"x_max":0,"o":"m 81 979 l 260 979 l 703 342 l 707 342 l 707 979 l 911 979 l 911 0 l 733 0 l 290 641 l 286 641 l 286 0 l 81 0 "},"Ǹ":{"ha":992,"x_min":0,"x_max":0,"o":"m 292 1283 l 466 1283 l 585 1059 l 453 1059 m 81 979 l 260 979 l 703 342 l 707 342 l 707 979 l 911 979 l 911 0 l 733 0 l 290 641 l 286 641 l 286 0 l 81 0 "},"Ń":{"ha":992,"x_min":0,"x_max":0,"o":"m 415 1059 l 534 1283 l 707 1283 l 547 1059 m 81 979 l 260 979 l 703 342 l 707 342 l 707 979 l 911 979 l 911 0 l 733 0 l 290 641 l 286 641 l 286 0 l 81 0 "},"Ñ":{"ha":992,"x_min":0,"x_max":0,"o":"m 597 1056 b 503 1088 558 1056 527 1071 l 473 1107 b 417 1133 454 1122 435 1133 b 376 1059 390 1133 376 1109 l 376 1055 l 269 1055 l 269 1065 b 395 1261 269 1198 320 1261 b 488 1228 433 1261 463 1246 l 517 1209 b 575 1184 538 1195 556 1184 b 616 1258 602 1184 616 1207 l 616 1261 l 723 1261 l 723 1251 b 597 1056 723 1121 675 1056 m 81 979 l 260 979 l 703 342 l 707 342 l 707 979 l 911 979 l 911 0 l 733 0 l 290 641 l 286 641 l 286 0 l 81 0 "},"Ṇ":{"ha":992,"x_min":0,"x_max":0,"o":"m 81 979 l 260 979 l 703 342 l 707 342 l 707 979 l 911 979 l 911 0 l 733 0 l 290 641 l 286 641 l 286 0 l 81 0 m 496 -299 b 391 -196 437 -299 391 -252 b 496 -93 391 -140 437 -93 b 602 -196 556 -93 602 -140 b 496 -299 602 -252 556 -299 "},"Ṅ":{"ha":992,"x_min":0,"x_max":0,"o":"m 496 1067 b 395 1166 440 1067 395 1112 b 496 1263 395 1219 440 1263 b 597 1166 553 1263 597 1219 b 496 1067 597 1112 553 1067 m 81 979 l 260 979 l 703 342 l 707 342 l 707 979 l 911 979 l 911 0 l 733 0 l 290 641 l 286 641 l 286 0 l 81 0 "},"Ň":{"ha":992,"x_min":0,"x_max":0,"o":"m 576 1059 l 418 1059 l 260 1283 l 401 1283 l 498 1147 l 591 1283 l 732 1283 m 81 979 l 260 979 l 703 342 l 707 342 l 707 979 l 911 979 l 911 0 l 733 0 l 290 641 l 286 641 l 286 0 l 81 0 "},"Ṋ":{"ha":992,"x_min":0,"x_max":0,"o":"m 81 979 l 260 979 l 703 342 l 707 342 l 707 979 l 911 979 l 911 0 l 733 0 l 290 641 l 286 641 l 286 0 l 81 0 m 416 -81 l 576 -81 l 741 -304 l 597 -304 l 494 -168 l 395 -304 l 252 -304 "},"Ṉ":{"ha":992,"x_min":0,"x_max":0,"o":"m 81 979 l 260 979 l 703 342 l 707 342 l 707 979 l 911 979 l 911 0 l 733 0 l 290 641 l 286 641 l 286 0 l 81 0 m 279 -130 l 713 -130 l 713 -252 l 279 -252 "},"Ņ":{"ha":992,"x_min":0,"x_max":0,"o":"m 81 979 l 260 979 l 703 342 l 707 342 l 707 979 l 911 979 l 911 0 l 733 0 l 290 641 l 286 641 l 286 0 l 81 0 m 407 -81 l 578 -81 l 479 -322 l 355 -322 "},"Ŋ":{"ha":992,"x_min":0,"x_max":0,"o":"m 81 0 l 81 979 l 260 979 l 703 342 l 707 342 l 707 979 l 911 979 l 911 -13 b 663 -239 911 -163 828 -239 b 578 -235 629 -239 597 -237 l 578 -90 b 621 -92 589 -92 604 -92 b 706 -13 679 -92 706 -67 l 706 40 l 290 641 l 286 641 l 286 0 "},"O":{"ha":1045,"x_min":0,"x_max":0,"o":"m 523 -17 b 51 489 232 -17 51 178 l 51 490 b 523 996 51 802 233 996 b 995 490 813 996 995 801 l 995 489 b 523 -17 995 178 814 -17 m 523 157 b 786 489 686 157 786 286 l 786 490 b 523 822 786 694 684 822 b 260 490 363 822 260 695 l 260 489 b 523 157 260 284 362 157 "},"Ö":{"ha":1045,"x_min":0,"x_max":0,"o":"m 381 1070 b 285 1164 327 1070 285 1113 b 381 1258 285 1215 327 1258 b 477 1164 435 1258 477 1215 b 381 1070 477 1113 435 1070 m 665 1070 b 568 1164 610 1070 568 1113 b 665 1258 568 1215 610 1258 b 761 1164 720 1258 761 1215 b 665 1070 761 1113 720 1070 m 523 -17 b 51 489 232 -17 51 178 l 51 490 b 523 996 51 802 233 996 b 995 490 813 996 995 801 l 995 489 b 523 -17 995 178 814 -17 m 523 157 b 786 489 686 157 786 286 l 786 490 b 523 822 786 694 684 822 b 260 490 363 822 260 695 l 260 489 b 523 157 260 284 362 157 "},"Õ":{"ha":1045,"x_min":0,"x_max":0,"o":"m 623 1056 b 529 1088 585 1056 553 1071 l 500 1107 b 444 1133 480 1122 462 1133 b 403 1059 416 1133 403 1109 l 403 1055 l 296 1055 l 296 1065 b 422 1261 296 1198 347 1261 b 515 1228 460 1261 490 1246 l 543 1209 b 602 1184 564 1195 583 1184 b 642 1258 629 1184 642 1207 l 642 1261 l 749 1261 l 749 1251 b 623 1056 749 1121 702 1056 m 523 -17 b 51 489 232 -17 51 178 l 51 490 b 523 996 51 802 233 996 b 995 490 813 996 995 801 l 995 489 b 523 -17 995 178 814 -17 m 523 157 b 786 489 686 157 786 286 l 786 490 b 523 822 786 694 684 822 b 260 490 363 822 260 695 l 260 489 b 523 157 260 284 362 157 "},"Ó":{"ha":1045,"x_min":0,"x_max":0,"o":"m 441 1059 l 560 1283 l 734 1283 l 573 1059 m 523 -17 b 51 489 232 -17 51 178 l 51 490 b 523 996 51 802 233 996 b 995 490 813 996 995 801 l 995 489 b 523 -17 995 178 814 -17 m 523 157 b 786 489 686 157 786 286 l 786 490 b 523 822 786 694 684 822 b 260 490 363 822 260 695 l 260 489 b 523 157 260 284 362 157 "},"Ô":{"ha":1045,"x_min":0,"x_max":0,"o":"m 443 1283 l 602 1283 l 759 1059 l 618 1059 l 521 1195 l 427 1059 l 286 1059 m 523 -17 b 51 489 232 -17 51 178 l 51 490 b 523 996 51 802 233 996 b 995 490 813 996 995 801 l 995 489 b 523 -17 995 178 814 -17 m 523 157 b 786 489 686 157 786 286 l 786 490 b 523 822 786 694 684 822 b 260 490 363 822 260 695 l 260 489 b 523 157 260 284 362 157 "},"Ò":{"ha":1045,"x_min":0,"x_max":0,"o":"m 319 1283 l 492 1283 l 611 1059 l 479 1059 m 523 -17 b 51 489 232 -17 51 178 l 51 490 b 523 996 51 802 233 996 b 995 490 813 996 995 801 l 995 489 b 523 -17 995 178 814 -17 m 523 157 b 786 489 686 157 786 286 l 786 490 b 523 822 786 694 684 822 b 260 490 363 822 260 695 l 260 489 b 523 157 260 284 362 157 "},"Ổ":{"ha":1045,"x_min":0,"x_max":0,"o":"m 619 1164 b 642 1206 634 1178 642 1192 b 589 1242 642 1228 627 1242 b 557 1239 577 1242 566 1241 l 557 1316 b 625 1325 572 1320 597 1325 b 747 1244 699 1325 747 1294 b 692 1162 747 1211 726 1185 l 619 1162 m 587 1160 l 734 1023 l 598 1023 l 522 1095 l 447 1023 l 311 1023 l 456 1160 m 523 -17 b 51 489 232 -17 51 178 l 51 490 b 523 996 51 802 233 996 b 995 490 813 996 995 801 l 995 489 b 523 -17 995 178 814 -17 m 523 157 b 786 489 686 157 786 286 l 786 490 b 523 822 786 694 684 822 b 260 490 363 822 260 695 l 260 489 b 523 157 260 284 362 157 "},"Ồ":{"ha":1045,"x_min":0,"x_max":0,"o":"m 628 1192 l 489 1322 l 629 1322 l 724 1192 m 587 1160 l 734 1023 l 598 1023 l 522 1095 l 447 1023 l 311 1023 l 456 1160 m 523 -17 b 51 489 232 -17 51 178 l 51 490 b 523 996 51 802 233 996 b 995 490 813 996 995 801 l 995 489 b 523 -17 995 178 814 -17 m 523 157 b 786 489 686 157 786 286 l 786 490 b 523 822 786 694 684 822 b 260 490 363 822 260 695 l 260 489 b 523 157 260 284 362 157 "},"Ọ":{"ha":1045,"x_min":0,"x_max":0,"o":"m 523 -17 b 51 489 232 -17 51 178 l 51 490 b 523 996 51 802 233 996 b 995 490 813 996 995 801 l 995 489 b 523 -17 995 178 814 -17 m 523 157 b 786 489 686 157 786 286 l 786 490 b 523 822 786 694 684 822 b 260 490 363 822 260 695 l 260 489 b 523 157 260 284 362 157 m 523 -299 b 417 -196 463 -299 417 -252 b 523 -93 417 -140 463 -93 b 629 -196 583 -93 629 -140 b 523 -299 629 -252 583 -299 "},"Ȍ":{"ha":1045,"x_min":0,"x_max":0,"o":"m 181 1283 l 355 1283 l 489 1059 l 357 1059 m 441 1283 l 614 1283 l 733 1059 l 602 1059 m 523 -17 b 51 489 232 -17 51 178 l 51 490 b 523 996 51 802 233 996 b 995 490 813 996 995 801 l 995 489 b 523 -17 995 178 814 -17 m 523 157 b 786 489 686 157 786 286 l 786 490 b 523 822 786 694 684 822 b 260 490 363 822 260 695 l 260 489 b 523 157 260 284 362 157 "},"Ṍ":{"ha":1045,"x_min":0,"x_max":0,"o":"m 562 1322 l 702 1322 l 563 1192 l 467 1192 m 608 1026 b 519 1050 576 1026 547 1034 l 502 1059 b 455 1075 483 1070 471 1075 b 423 1029 433 1075 423 1059 l 423 1026 l 324 1026 l 324 1032 b 437 1161 324 1116 372 1161 b 526 1137 468 1161 497 1152 l 543 1126 b 590 1112 562 1116 574 1112 b 622 1158 612 1112 622 1128 l 622 1161 l 722 1161 l 722 1155 b 608 1026 722 1071 673 1026 m 523 -17 b 51 489 232 -17 51 178 l 51 490 b 523 996 51 802 233 996 b 995 490 813 996 995 801 l 995 489 b 523 -17 995 178 814 -17 m 523 157 b 786 489 686 157 786 286 l 786 490 b 523 822 786 694 684 822 b 260 490 363 822 260 695 l 260 489 b 523 157 260 284 362 157 "},"Ṓ":{"ha":1045,"x_min":0,"x_max":0,"o":"m 562 1314 l 702 1314 l 563 1183 l 467 1183 m 328 1133 l 718 1133 l 718 1037 l 328 1037 m 523 -17 b 51 489 232 -17 51 178 l 51 490 b 523 996 51 802 233 996 b 995 490 813 996 995 801 l 995 489 b 523 -17 995 178 814 -17 m 523 157 b 786 489 686 157 786 286 l 786 490 b 523 822 786 694 684 822 b 260 490 363 822 260 695 l 260 489 b 523 157 260 284 362 157 "},"Ỗ":{"ha":1045,"x_min":0,"x_max":0,"o":"m 608 1188 b 519 1211 576 1188 547 1196 l 502 1221 b 455 1236 483 1232 471 1236 b 423 1190 433 1236 423 1220 l 423 1188 l 324 1188 l 324 1194 b 437 1322 324 1278 372 1322 b 526 1298 468 1322 497 1314 l 543 1289 b 590 1274 562 1278 574 1274 b 622 1320 612 1274 622 1290 l 622 1322 l 722 1322 l 722 1316 b 608 1188 722 1232 673 1188 m 587 1160 l 734 1023 l 598 1023 l 522 1095 l 447 1023 l 311 1023 l 456 1160 m 523 -17 b 51 489 232 -17 51 178 l 51 490 b 523 996 51 802 233 996 b 995 490 813 996 995 801 l 995 489 b 523 -17 995 178 814 -17 m 523 157 b 786 489 686 157 786 286 l 786 490 b 523 822 786 694 684 822 b 260 490 363 822 260 695 l 260 489 b 523 157 260 284 362 157 "},"Ȱ":{"ha":1045,"x_min":0,"x_max":0,"o":"m 328 1285 l 718 1285 l 718 1189 l 328 1189 m 521 1028 b 450 1091 479 1028 450 1057 l 450 1093 b 521 1155 450 1127 479 1155 l 524 1155 b 594 1093 566 1155 594 1128 l 594 1091 b 524 1028 594 1057 566 1028 l 521 1028 m 523 -17 b 51 489 232 -17 51 178 l 51 490 b 523 996 51 802 233 996 b 995 490 813 996 995 801 l 995 489 b 523 -17 995 178 814 -17 m 523 157 b 786 489 686 157 786 286 l 786 490 b 523 822 786 694 684 822 b 260 490 363 822 260 695 l 260 489 b 523 157 260 284 362 157 "},"Ṑ":{"ha":1045,"x_min":0,"x_max":0,"o":"m 482 1183 l 344 1314 l 484 1314 l 578 1183 m 328 1133 l 718 1133 l 718 1037 l 328 1037 m 523 -17 b 51 489 232 -17 51 178 l 51 490 b 523 996 51 802 233 996 b 995 490 813 996 995 801 l 995 489 b 523 -17 995 178 814 -17 m 523 157 b 786 489 686 157 786 286 l 786 490 b 523 822 786 694 684 822 b 260 490 363 822 260 695 l 260 489 b 523 157 260 284 362 157 "},"Ǒ":{"ha":1045,"x_min":0,"x_max":0,"o":"m 603 1059 l 444 1059 l 286 1283 l 427 1283 l 524 1147 l 618 1283 l 759 1283 m 523 -17 b 51 489 232 -17 51 178 l 51 490 b 523 996 51 802 233 996 b 995 490 813 996 995 801 l 995 489 b 523 -17 995 178 814 -17 m 523 157 b 786 489 686 157 786 286 l 786 490 b 523 822 786 694 684 822 b 260 490 363 822 260 695 l 260 489 b 523 157 260 284 362 157 "},"Ő":{"ha":1045,"x_min":0,"x_max":0,"o":"m 319 1059 l 422 1283 l 595 1283 l 451 1059 m 564 1059 l 682 1283 l 855 1283 l 695 1059 m 523 -17 b 51 489 232 -17 51 178 l 51 490 b 523 996 51 802 233 996 b 995 490 813 996 995 801 l 995 489 b 523 -17 995 178 814 -17 m 523 157 b 786 489 686 157 786 286 l 786 490 b 523 822 786 694 684 822 b 260 490 363 822 260 695 l 260 489 b 523 157 260 284 362 157 "},"Ŏ":{"ha":1045,"x_min":0,"x_max":0,"o":"m 523 1057 b 295 1272 387 1057 295 1143 l 295 1278 l 415 1278 l 415 1276 b 523 1171 415 1217 457 1171 b 630 1276 588 1171 630 1217 l 630 1278 l 750 1278 l 750 1272 b 523 1057 750 1143 659 1057 m 523 -17 b 51 489 232 -17 51 178 l 51 490 b 523 996 51 802 233 996 b 995 490 813 996 995 801 l 995 489 b 523 -17 995 178 814 -17 m 523 157 b 786 489 686 157 786 286 l 786 490 b 523 822 786 694 684 822 b 260 490 363 822 260 695 l 260 489 b 523 157 260 284 362 157 "},"Ȏ":{"ha":1045,"x_min":0,"x_max":0,"o":"m 523 1278 b 750 1063 659 1278 750 1192 l 750 1057 l 630 1057 l 630 1059 b 523 1164 630 1118 588 1164 b 415 1059 457 1164 415 1118 l 415 1057 l 295 1057 l 295 1063 b 523 1278 295 1192 387 1278 m 523 -17 b 51 489 232 -17 51 178 l 51 490 b 523 996 51 802 233 996 b 995 490 813 996 995 801 l 995 489 b 523 -17 995 178 814 -17 m 523 157 b 786 489 686 157 786 286 l 786 490 b 523 822 786 694 684 822 b 260 490 363 822 260 695 l 260 489 b 523 157 260 284 362 157 "},"Ỏ":{"ha":1045,"x_min":0,"x_max":0,"o":"m 466 1061 b 524 1144 499 1088 524 1115 b 437 1196 524 1177 490 1196 b 386 1192 418 1196 400 1194 l 386 1290 b 475 1303 407 1297 440 1303 b 643 1175 571 1303 643 1253 b 572 1059 643 1127 616 1090 l 466 1059 m 523 -17 b 51 489 232 -17 51 178 l 51 490 b 523 996 51 802 233 996 b 995 490 813 996 995 801 l 995 489 b 523 -17 995 178 814 -17 m 523 157 b 786 489 686 157 786 286 l 786 490 b 523 822 786 694 684 822 b 260 490 363 822 260 695 l 260 489 b 523 157 260 284 362 157 "},"Ȫ":{"ha":1045,"x_min":0,"x_max":0,"o":"m 328 1286 l 718 1286 l 718 1190 l 328 1190 m 636 1021 b 564 1084 593 1021 564 1048 l 564 1088 b 636 1151 564 1124 593 1151 l 642 1151 b 714 1088 684 1151 714 1124 l 714 1084 b 642 1021 714 1048 684 1021 l 636 1021 m 404 1021 b 332 1084 361 1021 332 1048 l 332 1088 b 404 1151 332 1124 361 1151 l 410 1151 b 481 1088 452 1151 481 1124 l 481 1084 b 410 1021 481 1048 452 1021 l 404 1021 m 523 -17 b 51 489 232 -17 51 178 l 51 490 b 523 996 51 802 233 996 b 995 490 813 996 995 801 l 995 489 b 523 -17 995 178 814 -17 m 523 157 b 786 489 686 157 786 286 l 786 490 b 523 822 786 694 684 822 b 260 490 363 822 260 695 l 260 489 b 523 157 260 284 362 157 "},"Ȭ":{"ha":1045,"x_min":0,"x_max":0,"o":"m 328 1293 l 718 1293 l 718 1197 l 328 1197 m 608 1026 b 519 1050 576 1026 547 1034 l 502 1059 b 455 1075 483 1070 471 1075 b 423 1029 433 1075 423 1059 l 423 1026 l 324 1026 l 324 1032 b 437 1161 324 1116 372 1161 b 526 1137 468 1161 497 1152 l 543 1126 b 590 1112 562 1116 574 1112 b 622 1158 612 1112 622 1128 l 622 1161 l 722 1161 l 722 1155 b 608 1026 722 1071 673 1026 m 523 -17 b 51 489 232 -17 51 178 l 51 490 b 523 996 51 802 233 996 b 995 490 813 996 995 801 l 995 489 b 523 -17 995 178 814 -17 m 523 157 b 786 489 686 157 786 286 l 786 490 b 523 822 786 694 684 822 b 260 490 363 822 260 695 l 260 489 b 523 157 260 284 362 157 "},"Ȯ":{"ha":1045,"x_min":0,"x_max":0,"o":"m 522 1067 b 422 1166 467 1067 422 1112 b 522 1263 422 1219 467 1263 b 623 1166 579 1263 623 1219 b 522 1067 623 1112 579 1067 m 523 -17 b 51 489 232 -17 51 178 l 51 490 b 523 996 51 802 233 996 b 995 490 813 996 995 801 l 995 489 b 523 -17 995 178 814 -17 m 523 157 b 786 489 686 157 786 286 l 786 490 b 523 822 786 694 684 822 b 260 490 363 822 260 695 l 260 489 b 523 157 260 284 362 157 "},"Ộ":{"ha":1045,"x_min":0,"x_max":0,"o":"m 443 1283 l 602 1283 l 759 1059 l 618 1059 l 521 1195 l 427 1059 l 286 1059 m 523 -17 b 51 489 232 -17 51 178 l 51 490 b 523 996 51 802 233 996 b 995 490 813 996 995 801 l 995 489 b 523 -17 995 178 814 -17 m 523 157 b 786 489 686 157 786 286 l 786 490 b 523 822 786 694 684 822 b 260 490 363 822 260 695 l 260 489 b 523 157 260 284 362 157 m 523 -299 b 417 -196 463 -299 417 -252 b 523 -93 417 -140 463 -93 b 629 -196 583 -93 629 -140 b 523 -299 629 -252 583 -299 "},"Ố":{"ha":1045,"x_min":0,"x_max":0,"o":"m 707 1322 l 847 1322 l 709 1192 l 612 1192 m 587 1160 l 734 1023 l 598 1023 l 522 1095 l 447 1023 l 311 1023 l 456 1160 m 523 -17 b 51 489 232 -17 51 178 l 51 490 b 523 996 51 802 233 996 b 995 490 813 996 995 801 l 995 489 b 523 -17 995 178 814 -17 m 523 157 b 786 489 686 157 786 286 l 786 490 b 523 822 786 694 684 822 b 260 490 363 822 260 695 l 260 489 b 523 157 260 284 362 157 "},"Ṏ":{"ha":1045,"x_min":0,"x_max":0,"o":"m 636 1185 b 564 1249 593 1185 564 1213 l 564 1252 b 636 1316 564 1288 593 1316 l 642 1316 b 714 1253 684 1316 714 1288 l 714 1249 b 642 1185 714 1213 684 1185 l 636 1185 m 404 1185 b 332 1249 361 1185 332 1213 l 332 1252 b 404 1316 332 1288 361 1316 l 410 1316 b 481 1253 452 1316 481 1288 l 481 1249 b 410 1185 481 1213 452 1185 l 404 1185 m 608 1026 b 519 1050 576 1026 547 1034 l 502 1059 b 455 1075 483 1070 471 1075 b 423 1029 433 1075 423 1059 l 423 1026 l 324 1026 l 324 1032 b 437 1161 324 1116 372 1161 b 526 1137 468 1161 497 1152 l 543 1126 b 590 1112 562 1116 574 1112 b 622 1158 612 1112 622 1128 l 622 1161 l 722 1161 l 722 1155 b 608 1026 722 1071 673 1026 m 523 -17 b 51 489 232 -17 51 178 l 51 490 b 523 996 51 802 233 996 b 995 490 813 996 995 801 l 995 489 b 523 -17 995 178 814 -17 m 523 157 b 786 489 686 157 786 286 l 786 490 b 523 822 786 694 684 822 b 260 490 363 822 260 695 l 260 489 b 523 157 260 284 362 157 "},"Ō":{"ha":1045,"x_min":0,"x_max":0,"o":"m 313 1225 l 732 1225 l 732 1103 l 313 1103 m 523 -17 b 51 489 232 -17 51 178 l 51 490 b 523 996 51 802 233 996 b 995 490 813 996 995 801 l 995 489 b 523 -17 995 178 814 -17 m 523 157 b 786 489 686 157 786 286 l 786 490 b 523 822 786 694 684 822 b 260 490 363 822 260 695 l 260 489 b 523 157 260 284 362 157 "},"Ǫ":{"ha":1045,"x_min":0,"x_max":0,"o":"m 563 -328 b 398 -178 470 -328 398 -273 l 397 -177 b 481 -16 398 -117 427 -60 b 51 489 214 3 51 193 l 51 490 b 523 996 51 802 233 996 b 995 490 813 996 995 801 l 995 489 b 621 -9 995 214 853 31 b 568 -135 585 -47 568 -89 l 568 -136 b 633 -218 568 -191 597 -218 b 665 -214 646 -218 658 -217 l 665 -311 b 563 -328 644 -321 603 -328 m 523 157 b 786 489 686 157 786 286 l 786 490 b 523 822 786 694 684 822 b 260 490 363 822 260 695 l 260 489 b 523 157 260 284 362 157 "},"Ǭ":{"ha":1045,"x_min":0,"x_max":0,"o":"m 313 1225 l 732 1225 l 732 1103 l 313 1103 m 563 -328 b 398 -178 470 -328 398 -273 l 397 -177 b 481 -16 398 -117 427 -60 b 51 489 214 3 51 193 l 51 490 b 523 996 51 802 233 996 b 995 490 813 996 995 801 l 995 489 b 621 -9 995 214 853 31 b 568 -135 585 -47 568 -89 l 568 -136 b 633 -218 568 -191 597 -218 b 665 -214 646 -218 658 -217 l 665 -311 b 563 -328 644 -321 603 -328 m 523 157 b 786 489 686 157 786 286 l 786 490 b 523 822 786 694 684 822 b 260 490 363 822 260 695 l 260 489 b 523 157 260 284 362 157 "},"Ơ":{"ha":1045,"x_min":0,"x_max":0,"o":"m 523 -17 b 51 489 232 -17 51 178 l 51 490 b 523 996 51 802 233 996 b 815 1183 759 1000 812 1044 l 968 1183 b 783 928 964 1037 922 962 b 995 490 918 846 995 693 l 995 489 b 523 -17 995 178 814 -17 m 523 157 b 786 489 686 157 786 286 l 786 490 b 523 822 786 694 684 822 b 260 490 363 822 260 695 l 260 489 b 523 157 260 284 362 157 "},"Ợ":{"ha":1045,"x_min":0,"x_max":0,"o":"m 523 -17 b 51 489 232 -17 51 178 l 51 490 b 523 996 51 802 233 996 b 815 1183 759 1000 812 1044 l 968 1183 b 783 928 964 1037 922 962 b 995 490 918 846 995 693 l 995 489 b 523 -17 995 178 814 -17 m 523 157 b 786 489 686 157 786 286 l 786 490 b 523 822 786 694 684 822 b 260 490 363 822 260 695 l 260 489 b 523 157 260 284 362 157 m 523 -299 b 417 -196 463 -299 417 -252 b 523 -93 417 -140 463 -93 b 629 -196 583 -93 629 -140 b 523 -299 629 -252 583 -299 "},"Ở":{"ha":1045,"x_min":0,"x_max":0,"o":"m 430 1061 b 488 1144 463 1088 488 1115 b 402 1196 488 1177 455 1196 b 351 1192 382 1196 365 1194 l 351 1290 b 439 1303 372 1297 405 1303 b 608 1175 535 1303 608 1253 b 536 1059 608 1127 580 1090 l 430 1059 m 523 -17 b 51 489 232 -17 51 178 l 51 490 b 523 996 51 802 233 996 b 815 1183 759 1000 812 1044 l 968 1183 b 783 928 964 1037 922 962 b 995 490 918 846 995 693 l 995 489 b 523 -17 995 178 814 -17 m 523 157 b 786 489 686 157 786 286 l 786 490 b 523 822 786 694 684 822 b 260 490 363 822 260 695 l 260 489 b 523 157 260 284 362 157 "},"Ỡ":{"ha":1045,"x_min":0,"x_max":0,"o":"m 579 1056 b 494 1088 544 1056 516 1071 l 467 1107 b 416 1133 449 1122 433 1133 b 379 1059 391 1133 379 1109 l 379 1055 l 279 1055 l 279 1065 b 395 1261 279 1198 327 1261 b 480 1228 430 1261 457 1246 l 507 1209 b 558 1184 525 1195 541 1184 b 595 1258 583 1184 595 1207 l 595 1261 l 695 1261 l 695 1251 b 579 1056 695 1121 652 1056 m 523 -17 b 51 489 232 -17 51 178 l 51 490 b 523 996 51 802 233 996 b 852 1183 791 996 848 1042 l 1005 1183 b 790 924 1001 1030 955 954 b 995 490 920 840 995 689 l 995 489 b 523 -17 995 178 814 -17 m 523 157 b 786 489 686 157 786 286 l 786 490 b 523 822 786 694 684 822 b 260 490 363 822 260 695 l 260 489 b 523 157 260 284 362 157 "},"Ờ":{"ha":1045,"x_min":0,"x_max":0,"o":"m 319 1283 l 492 1283 l 611 1059 l 479 1059 m 523 -17 b 51 489 232 -17 51 178 l 51 490 b 523 996 51 802 233 996 b 815 1183 759 1000 812 1044 l 968 1183 b 783 928 964 1037 922 962 b 995 490 918 846 995 693 l 995 489 b 523 -17 995 178 814 -17 m 523 157 b 786 489 686 157 786 286 l 786 490 b 523 822 786 694 684 822 b 260 490 363 822 260 695 l 260 489 b 523 157 260 284 362 157 "},"Ớ":{"ha":1045,"x_min":0,"x_max":0,"o":"m 406 1059 l 524 1283 l 698 1283 l 538 1059 m 523 -17 b 51 489 232 -17 51 178 l 51 490 b 523 996 51 802 233 996 b 815 1183 759 1000 812 1044 l 968 1183 b 783 928 964 1037 922 962 b 995 490 918 846 995 693 l 995 489 b 523 -17 995 178 814 -17 m 523 157 b 786 489 686 157 786 286 l 786 490 b 523 822 786 694 684 822 b 260 490 363 822 260 695 l 260 489 b 523 157 260 284 362 157 "},"Ø":{"ha":1039,"x_min":0,"x_max":0,"o":"m 519 -17 b 225 75 401 -17 302 16 l 123 -40 l 43 31 l 150 152 b 51 489 85 237 51 351 l 51 490 b 519 996 51 802 232 996 b 814 904 637 996 736 963 l 916 1019 l 996 948 l 889 827 b 988 490 953 742 988 627 l 988 489 b 519 -17 988 178 808 -17 m 247 489 b 283 303 247 417 260 354 l 690 764 b 519 825 646 804 587 825 b 247 490 353 825 247 697 l 247 489 m 519 153 b 792 489 688 153 792 284 l 791 490 b 755 675 792 562 779 625 l 349 214 b 519 153 393 175 451 153 "},"Ǿ":{"ha":1039,"x_min":0,"x_max":0,"o":"m 439 1059 l 557 1283 l 730 1283 l 570 1059 m 519 -17 b 225 75 401 -17 302 16 l 123 -40 l 43 31 l 150 152 b 51 489 85 237 51 351 l 51 490 b 519 996 51 802 232 996 b 814 904 637 996 736 963 l 916 1019 l 996 948 l 889 827 b 988 490 953 742 988 627 l 988 489 b 519 -17 988 178 808 -17 m 247 489 b 283 303 247 417 260 354 l 690 764 b 519 825 646 804 587 825 b 247 490 353 825 247 697 l 247 489 m 519 153 b 792 489 688 153 792 284 l 791 490 b 755 675 792 562 779 625 l 349 214 b 519 153 393 175 451 153 "},"Ɵ":{"ha":1045,"x_min":0,"x_max":0,"o":"m 523 -17 b 51 489 232 -17 51 178 l 51 490 b 523 996 51 802 233 996 b 995 490 813 996 995 801 l 995 489 b 523 -17 995 178 814 -17 m 523 822 b 264 566 383 822 287 726 l 781 566 b 523 822 758 725 663 822 m 523 157 b 783 433 670 157 766 262 l 262 433 b 523 157 279 261 377 157 "},"P":{"ha":858,"x_min":0,"x_max":0,"o":"m 81 979 l 475 979 b 819 644 681 979 819 846 l 819 643 b 475 309 819 441 681 309 l 286 309 l 286 0 l 81 0 m 286 817 l 286 469 l 425 469 b 611 642 542 469 611 531 l 611 644 b 425 817 611 755 542 817 "},"Ṗ":{"ha":858,"x_min":0,"x_max":0,"o":"m 357 1067 b 256 1166 300 1067 256 1112 b 357 1263 256 1219 300 1263 b 457 1166 413 1263 457 1219 b 357 1067 457 1112 413 1067 m 81 979 l 475 979 b 819 644 681 979 819 846 l 819 643 b 475 309 819 441 681 309 l 286 309 l 286 0 l 81 0 m 286 817 l 286 469 l 425 469 b 611 642 542 469 611 531 l 611 644 b 425 817 611 755 542 817 "},"Ṕ":{"ha":858,"x_min":0,"x_max":0,"o":"m 276 1059 l 394 1283 l 568 1283 l 408 1059 m 81 979 l 475 979 b 819 644 681 979 819 846 l 819 643 b 475 309 819 441 681 309 l 286 309 l 286 0 l 81 0 m 286 817 l 286 469 l 425 469 b 611 642 542 469 611 531 l 611 644 b 425 817 611 755 542 817 "},"Q":{"ha":1045,"x_min":0,"x_max":0,"o":"m 523 -17 b 51 489 232 -17 51 178 l 51 490 b 523 996 51 802 233 996 b 995 490 813 996 995 801 l 995 489 b 834 87 995 313 937 175 l 962 -92 l 767 -92 l 695 9 b 523 -17 643 -8 585 -17 m 523 157 b 586 164 545 157 566 159 l 465 336 l 659 336 l 718 252 b 785 489 762 309 785 390 l 785 490 b 523 822 785 694 684 822 b 260 490 363 822 260 695 l 260 489 b 523 157 260 284 362 157 "},"R":{"ha":889,"x_min":0,"x_max":0,"o":"m 81 979 l 486 979 b 836 665 705 979 836 862 l 836 664 b 659 385 836 535 767 428 l 865 0 l 633 0 l 450 355 l 286 355 l 286 0 l 81 0 m 463 510 b 626 664 565 510 626 568 l 626 665 b 460 819 626 759 562 819 l 286 819 l 286 510 "},"Ř":{"ha":889,"x_min":0,"x_max":0,"o":"m 493 1059 l 334 1059 l 177 1283 l 318 1283 l 414 1147 l 509 1283 l 650 1283 m 81 979 l 486 979 b 836 665 705 979 836 862 l 836 664 b 659 385 836 535 767 428 l 865 0 l 633 0 l 450 355 l 286 355 l 286 0 l 81 0 m 463 510 b 626 664 565 510 626 568 l 626 665 b 460 819 626 759 562 819 l 286 819 l 286 510 "},"Ṟ":{"ha":889,"x_min":0,"x_max":0,"o":"m 81 979 l 486 979 b 836 665 705 979 836 862 l 836 664 b 659 385 836 535 767 428 l 865 0 l 633 0 l 450 355 l 286 355 l 286 0 l 81 0 m 463 510 b 626 664 565 510 626 568 l 626 665 b 460 819 626 759 562 819 l 286 819 l 286 510 m 226 -130 l 660 -130 l 660 -252 l 226 -252 "},"Ṝ":{"ha":889,"x_min":0,"x_max":0,"o":"m 203 1225 l 623 1225 l 623 1103 l 203 1103 m 81 979 l 486 979 b 836 665 705 979 836 862 l 836 664 b 659 385 836 535 767 428 l 865 0 l 633 0 l 450 355 l 286 355 l 286 0 l 81 0 m 463 510 b 626 664 565 510 626 568 l 626 665 b 460 819 626 759 562 819 l 286 819 l 286 510 m 443 -299 b 337 -196 384 -299 337 -252 b 443 -93 337 -140 384 -93 b 549 -196 503 -93 549 -140 b 443 -299 549 -252 503 -299 "},"Ȑ":{"ha":889,"x_min":0,"x_max":0,"o":"m 72 1283 l 245 1283 l 379 1059 l 248 1059 m 332 1283 l 505 1283 l 623 1059 l 492 1059 m 81 979 l 486 979 b 836 665 705 979 836 862 l 836 664 b 659 385 836 535 767 428 l 865 0 l 633 0 l 450 355 l 286 355 l 286 0 l 81 0 m 463 510 b 626 664 565 510 626 568 l 626 665 b 460 819 626 759 562 819 l 286 819 l 286 510 "},"Ȓ":{"ha":889,"x_min":0,"x_max":0,"o":"m 413 1278 b 641 1063 549 1278 641 1192 l 641 1057 l 521 1057 l 521 1059 b 413 1164 521 1118 479 1164 b 306 1059 348 1164 306 1118 l 306 1057 l 186 1057 l 186 1063 b 413 1278 186 1192 277 1278 m 81 979 l 486 979 b 836 665 705 979 836 862 l 836 664 b 659 385 836 535 767 428 l 865 0 l 633 0 l 450 355 l 286 355 l 286 0 l 81 0 m 463 510 b 626 664 565 510 626 568 l 626 665 b 460 819 626 759 562 819 l 286 819 l 286 510 "},"Ŕ":{"ha":889,"x_min":0,"x_max":0,"o":"m 332 1059 l 450 1283 l 624 1283 l 464 1059 m 81 979 l 486 979 b 836 665 705 979 836 862 l 836 664 b 659 385 836 535 767 428 l 865 0 l 633 0 l 450 355 l 286 355 l 286 0 l 81 0 m 463 510 b 626 664 565 510 626 568 l 626 665 b 460 819 626 759 562 819 l 286 819 l 286 510 "},"Ṛ":{"ha":889,"x_min":0,"x_max":0,"o":"m 81 979 l 486 979 b 836 665 705 979 836 862 l 836 664 b 659 385 836 535 767 428 l 865 0 l 633 0 l 450 355 l 286 355 l 286 0 l 81 0 m 463 510 b 626 664 565 510 626 568 l 626 665 b 460 819 626 759 562 819 l 286 819 l 286 510 m 443 -299 b 337 -196 384 -299 337 -252 b 443 -93 337 -140 384 -93 b 549 -196 503 -93 549 -140 b 443 -299 549 -252 503 -299 "},"Ṙ":{"ha":889,"x_min":0,"x_max":0,"o":"m 413 1067 b 313 1166 357 1067 313 1112 b 413 1263 313 1219 357 1263 b 513 1166 469 1263 513 1219 b 413 1067 513 1112 469 1067 m 81 979 l 486 979 b 836 665 705 979 836 862 l 836 664 b 659 385 836 535 767 428 l 865 0 l 633 0 l 450 355 l 286 355 l 286 0 l 81 0 m 463 510 b 626 664 565 510 626 568 l 626 665 b 460 819 626 759 562 819 l 286 819 l 286 510 "},"Ŗ":{"ha":889,"x_min":0,"x_max":0,"o":"m 81 979 l 486 979 b 836 665 705 979 836 862 l 836 664 b 659 385 836 535 767 428 l 865 0 l 633 0 l 450 355 l 286 355 l 286 0 l 81 0 m 463 510 b 626 664 565 510 626 568 l 626 665 b 460 819 626 759 562 819 l 286 819 l 286 510 m 354 -81 l 526 -81 l 426 -322 l 302 -322 "},"S":{"ha":877,"x_min":0,"x_max":0,"o":"m 439 -17 b 45 270 206 -17 56 90 l 44 281 l 237 281 l 239 273 b 444 150 252 197 332 150 b 629 274 557 150 629 199 l 629 275 b 459 399 629 341 581 374 l 356 420 b 65 698 163 458 65 551 l 65 699 b 438 996 65 878 221 996 b 813 711 665 996 804 882 l 814 698 l 621 698 l 620 706 b 438 829 610 783 539 829 b 270 711 333 829 270 781 l 270 710 b 433 590 270 648 320 612 l 536 569 b 833 291 741 528 833 445 l 833 290 b 439 -17 833 102 686 -17 "},"Š":{"ha":877,"x_min":0,"x_max":0,"o":"m 519 1059 l 360 1059 l 203 1283 l 344 1283 l 440 1147 l 534 1283 l 675 1283 m 439 -17 b 45 270 206 -17 56 90 l 44 281 l 237 281 l 239 273 b 444 150 252 197 332 150 b 629 274 557 150 629 199 l 629 275 b 459 399 629 341 581 374 l 356 420 b 65 698 163 458 65 551 l 65 699 b 438 996 65 878 221 996 b 813 711 665 996 804 882 l 814 698 l 621 698 l 620 706 b 438 829 610 783 539 829 b 270 711 333 829 270 781 l 270 710 b 433 590 270 648 320 612 l 536 569 b 833 291 741 528 833 445 l 833 290 b 439 -17 833 102 686 -17 "},"Ş":{"ha":877,"x_min":0,"x_max":0,"o":"m 428 -322 b 314 -306 380 -322 336 -315 l 314 -211 b 382 -220 330 -216 356 -220 b 445 -183 418 -220 445 -209 l 445 -182 b 372 -140 445 -155 422 -140 l 346 -140 l 346 -81 l 387 -15 b 45 270 184 0 55 103 l 44 281 l 237 281 l 239 273 b 444 150 252 197 332 150 b 629 274 557 150 629 199 l 629 275 b 459 399 629 341 581 374 l 356 420 b 65 698 163 458 65 551 l 65 699 b 438 996 65 878 221 996 b 813 711 665 996 804 882 l 814 698 l 621 698 l 620 706 b 438 829 610 783 539 829 b 270 711 333 829 270 781 l 270 710 b 433 590 270 648 320 612 l 536 569 b 833 291 741 528 833 445 l 833 290 b 499 -14 833 118 709 3 l 473 -56 b 597 -187 549 -63 597 -108 l 597 -189 b 428 -322 597 -271 526 -322 "},"Ṡ":{"ha":877,"x_min":0,"x_max":0,"o":"m 439 1067 b 338 1166 382 1067 338 1112 b 439 1263 338 1219 382 1263 b 539 1166 495 1263 539 1219 b 439 1067 539 1112 495 1067 m 439 -17 b 45 270 206 -17 56 90 l 44 281 l 237 281 l 239 273 b 444 150 252 197 332 150 b 629 274 557 150 629 199 l 629 275 b 459 399 629 341 581 374 l 356 420 b 65 698 163 458 65 551 l 65 699 b 438 996 65 878 221 996 b 813 711 665 996 804 882 l 814 698 l 621 698 l 620 706 b 438 829 610 783 539 829 b 270 711 333 829 270 781 l 270 710 b 433 590 270 648 320 612 l 536 569 b 833 291 741 528 833 445 l 833 290 b 439 -17 833 102 686 -17 "},"Ṣ":{"ha":877,"x_min":0,"x_max":0,"o":"m 439 -17 b 45 270 206 -17 56 90 l 44 281 l 237 281 l 239 273 b 444 150 252 197 332 150 b 629 274 557 150 629 199 l 629 275 b 459 399 629 341 581 374 l 356 420 b 65 698 163 458 65 551 l 65 699 b 438 996 65 878 221 996 b 813 711 665 996 804 882 l 814 698 l 621 698 l 620 706 b 438 829 610 783 539 829 b 270 711 333 829 270 781 l 270 710 b 433 590 270 648 320 612 l 536 569 b 833 291 741 528 833 445 l 833 290 b 439 -17 833 102 686 -17 m 439 -299 b 333 -196 380 -299 333 -252 b 439 -93 333 -140 380 -93 b 545 -196 498 -93 545 -140 b 439 -299 545 -252 498 -299 "},"Ș":{"ha":877,"x_min":0,"x_max":0,"o":"m 439 -17 b 45 270 206 -17 56 90 l 44 281 l 237 281 l 239 273 b 444 150 252 197 332 150 b 629 274 557 150 629 199 l 629 275 b 459 399 629 341 581 374 l 356 420 b 65 698 163 458 65 551 l 65 699 b 438 996 65 878 221 996 b 813 711 665 996 804 882 l 814 698 l 621 698 l 620 706 b 438 829 610 783 539 829 b 270 711 333 829 270 781 l 270 710 b 433 590 270 648 320 612 l 536 569 b 833 291 741 528 833 445 l 833 290 b 439 -17 833 102 686 -17 m 350 -81 l 522 -81 l 422 -322 l 298 -322 "},"Ṩ":{"ha":877,"x_min":0,"x_max":0,"o":"m 439 1067 b 338 1166 382 1067 338 1112 b 439 1263 338 1219 382 1263 b 539 1166 495 1263 539 1219 b 439 1067 539 1112 495 1067 m 439 -17 b 45 270 206 -17 56 90 l 44 281 l 237 281 l 239 273 b 444 150 252 197 332 150 b 629 274 557 150 629 199 l 629 275 b 459 399 629 341 581 374 l 356 420 b 65 698 163 458 65 551 l 65 699 b 438 996 65 878 221 996 b 813 711 665 996 804 882 l 814 698 l 621 698 l 620 706 b 438 829 610 783 539 829 b 270 711 333 829 270 781 l 270 710 b 433 590 270 648 320 612 l 536 569 b 833 291 741 528 833 445 l 833 290 b 439 -17 833 102 686 -17 m 439 -299 b 333 -196 380 -299 333 -252 b 439 -93 333 -140 380 -93 b 545 -196 498 -93 545 -140 b 439 -299 545 -252 498 -299 "},"Ṧ":{"ha":877,"x_min":0,"x_max":0,"o":"m 437 1180 b 367 1243 395 1180 367 1208 l 367 1245 b 437 1308 367 1280 395 1308 l 441 1308 b 511 1245 483 1308 511 1280 l 511 1244 b 441 1180 511 1209 483 1180 l 437 1180 m 374 1030 l 228 1167 l 363 1167 l 439 1095 l 515 1167 l 650 1167 l 505 1030 m 439 -17 b 45 270 206 -17 56 90 l 44 281 l 237 281 l 239 273 b 444 150 252 197 332 150 b 629 274 557 150 629 199 l 629 275 b 459 399 629 341 581 374 l 356 420 b 65 698 163 458 65 551 l 65 699 b 438 996 65 878 221 996 b 813 711 665 996 804 882 l 814 698 l 621 698 l 620 706 b 438 829 610 783 539 829 b 270 711 333 829 270 781 l 270 710 b 433 590 270 648 320 612 l 536 569 b 833 291 741 528 833 445 l 833 290 b 439 -17 833 102 686 -17 "},"Ŝ":{"ha":877,"x_min":0,"x_max":0,"o":"m 359 1283 l 517 1283 l 675 1059 l 534 1059 l 437 1195 l 344 1059 l 203 1059 m 439 -17 b 45 270 206 -17 56 90 l 44 281 l 237 281 l 239 273 b 444 150 252 197 332 150 b 629 274 557 150 629 199 l 629 275 b 459 399 629 341 581 374 l 356 420 b 65 698 163 458 65 551 l 65 699 b 438 996 65 878 221 996 b 813 711 665 996 804 882 l 814 698 l 621 698 l 620 706 b 438 829 610 783 539 829 b 270 711 333 829 270 781 l 270 710 b 433 590 270 648 320 612 l 536 569 b 833 291 741 528 833 445 l 833 290 b 439 -17 833 102 686 -17 "},"Ṥ":{"ha":877,"x_min":0,"x_max":0,"o":"m 498 1180 b 429 1243 456 1180 429 1208 l 429 1245 b 498 1308 429 1280 456 1308 l 503 1308 b 572 1245 545 1308 572 1280 l 572 1244 b 503 1180 572 1209 545 1180 l 498 1180 m 477 1159 l 618 1159 l 479 1027 l 383 1027 m 439 -17 b 45 270 206 -17 56 90 l 44 281 l 237 281 l 239 273 b 444 150 252 197 332 150 b 629 274 557 150 629 199 l 629 275 b 459 399 629 341 581 374 l 356 420 b 65 698 163 458 65 551 l 65 699 b 438 996 65 878 221 996 b 813 711 665 996 804 882 l 814 698 l 621 698 l 620 706 b 438 829 610 783 539 829 b 270 711 333 829 270 781 l 270 710 b 433 590 270 648 320 612 l 536 569 b 833 291 741 528 833 445 l 833 290 b 439 -17 833 102 686 -17 "},"Ś":{"ha":877,"x_min":0,"x_max":0,"o":"m 358 1059 l 476 1283 l 650 1283 l 490 1059 m 439 -17 b 45 270 206 -17 56 90 l 44 281 l 237 281 l 239 273 b 444 150 252 197 332 150 b 629 274 557 150 629 199 l 629 275 b 459 399 629 341 581 374 l 356 420 b 65 698 163 458 65 551 l 65 699 b 438 996 65 878 221 996 b 813 711 665 996 804 882 l 814 698 l 621 698 l 620 706 b 438 829 610 783 539 829 b 270 711 333 829 270 781 l 270 710 b 433 590 270 648 320 612 l 536 569 b 833 291 741 528 833 445 l 833 290 b 439 -17 833 102 686 -17 "},"ẞ":{"ha":992,"x_min":0,"x_max":0,"o":"m 635 -17 b 411 24 553 -17 478 -3 l 411 208 b 606 157 484 172 543 157 b 741 282 689 157 741 205 l 741 283 b 578 421 741 356 688 400 l 496 437 l 496 570 l 686 793 b 528 822 631 812 580 822 b 287 587 374 822 287 739 l 287 0 l 82 0 l 82 610 b 516 996 82 855 241 996 b 895 909 627 996 770 964 l 895 776 l 701 550 b 949 276 869 507 949 418 l 949 275 b 635 -17 949 100 824 -17 "},"T":{"ha":836,"x_min":0,"x_max":0,"o":"m 315 810 l 33 810 l 33 979 l 804 979 l 804 810 l 520 810 l 520 0 l 315 0 "},"Ṱ":{"ha":836,"x_min":0,"x_max":0,"o":"m 315 810 l 33 810 l 33 979 l 804 979 l 804 810 l 520 810 l 520 0 l 315 0 m 337 -81 l 497 -81 l 662 -304 l 519 -304 l 416 -168 l 317 -304 l 174 -304 "},"Ṭ":{"ha":836,"x_min":0,"x_max":0,"o":"m 315 810 l 33 810 l 33 979 l 804 979 l 804 810 l 520 810 l 520 0 l 315 0 m 418 -299 b 312 -196 359 -299 312 -252 b 418 -93 312 -140 359 -93 b 524 -196 477 -93 524 -140 b 418 -299 524 -252 477 -299 "},"Ț":{"ha":836,"x_min":0,"x_max":0,"o":"m 315 810 l 33 810 l 33 979 l 804 979 l 804 810 l 520 810 l 520 0 l 315 0 m 329 -81 l 500 -81 l 401 -322 l 277 -322 "},"Ṫ":{"ha":836,"x_min":0,"x_max":0,"o":"m 418 1067 b 317 1166 361 1067 317 1112 b 418 1263 317 1219 361 1263 b 518 1166 474 1263 518 1219 b 418 1067 518 1112 474 1067 m 315 810 l 33 810 l 33 979 l 804 979 l 804 810 l 520 810 l 520 0 l 315 0 "},"Ţ":{"ha":836,"x_min":0,"x_max":0,"o":"m 315 810 l 33 810 l 33 979 l 804 979 l 804 810 l 520 810 l 520 0 l 486 -56 b 609 -187 561 -63 609 -108 l 609 -189 b 440 -322 609 -271 538 -322 b 326 -306 393 -322 348 -315 l 326 -211 b 394 -220 342 -216 368 -220 b 457 -183 431 -220 457 -209 l 457 -182 b 384 -140 457 -155 434 -140 l 358 -140 l 358 -81 l 409 0 l 315 0 "},"Ṯ":{"ha":836,"x_min":0,"x_max":0,"o":"m 315 810 l 33 810 l 33 979 l 804 979 l 804 810 l 520 810 l 520 0 l 315 0 m 201 -130 l 635 -130 l 635 -252 l 201 -252 "},"Ť":{"ha":836,"x_min":0,"x_max":0,"o":"m 498 1059 l 339 1059 l 182 1283 l 323 1283 l 419 1147 l 513 1283 l 654 1283 m 315 810 l 33 810 l 33 979 l 804 979 l 804 810 l 520 810 l 520 0 l 315 0 "},"Ŧ":{"ha":836,"x_min":0,"x_max":0,"o":"m 315 409 l 129 409 l 129 541 l 315 541 l 315 810 l 33 810 l 33 979 l 804 979 l 804 810 l 520 810 l 520 541 l 707 541 l 707 409 l 520 409 l 520 0 l 315 0 "},"U":{"ha":983,"x_min":0,"x_max":0,"o":"m 492 -17 b 81 346 241 -17 81 128 l 81 979 l 286 979 l 286 364 b 492 157 286 237 360 157 b 696 364 623 157 696 237 l 696 979 l 901 979 l 901 346 b 492 -17 901 129 744 -17 "},"Ù":{"ha":983,"x_min":0,"x_max":0,"o":"m 288 1283 l 461 1283 l 580 1059 l 448 1059 m 492 -17 b 81 346 241 -17 81 128 l 81 979 l 286 979 l 286 364 b 492 157 286 237 360 157 b 696 364 623 157 696 237 l 696 979 l 901 979 l 901 346 b 492 -17 901 129 744 -17 "},"Ȕ":{"ha":983,"x_min":0,"x_max":0,"o":"m 150 1283 l 323 1283 l 458 1059 l 326 1059 m 410 1283 l 583 1283 l 702 1059 l 570 1059 m 492 -17 b 81 346 241 -17 81 128 l 81 979 l 286 979 l 286 364 b 492 157 286 237 360 157 b 696 364 623 157 696 237 l 696 979 l 901 979 l 901 346 b 492 -17 901 129 744 -17 "},"Ú":{"ha":983,"x_min":0,"x_max":0,"o":"m 410 1059 l 529 1283 l 703 1283 l 542 1059 m 492 -17 b 81 346 241 -17 81 128 l 81 979 l 286 979 l 286 364 b 492 157 286 237 360 157 b 696 364 623 157 696 237 l 696 979 l 901 979 l 901 346 b 492 -17 901 129 744 -17 "},"Ű":{"ha":983,"x_min":0,"x_max":0,"o":"m 288 1059 l 391 1283 l 564 1283 l 420 1059 m 532 1059 l 650 1283 l 824 1283 l 664 1059 m 492 -17 b 81 346 241 -17 81 128 l 81 979 l 286 979 l 286 364 b 492 157 286 237 360 157 b 696 364 623 157 696 237 l 696 979 l 901 979 l 901 346 b 492 -17 901 129 744 -17 "},"Û":{"ha":983,"x_min":0,"x_max":0,"o":"m 412 1283 l 570 1283 l 728 1059 l 587 1059 l 490 1195 l 396 1059 l 255 1059 m 492 -17 b 81 346 241 -17 81 128 l 81 979 l 286 979 l 286 364 b 492 157 286 237 360 157 b 696 364 623 157 696 237 l 696 979 l 901 979 l 901 346 b 492 -17 901 129 744 -17 "},"Ǔ":{"ha":983,"x_min":0,"x_max":0,"o":"m 572 1059 l 413 1059 l 255 1283 l 396 1283 l 493 1147 l 587 1283 l 728 1283 m 492 -17 b 81 346 241 -17 81 128 l 81 979 l 286 979 l 286 364 b 492 157 286 237 360 157 b 696 364 623 157 696 237 l 696 979 l 901 979 l 901 346 b 492 -17 901 129 744 -17 "},"Ṷ":{"ha":983,"x_min":0,"x_max":0,"o":"m 492 -17 b 81 346 241 -17 81 128 l 81 979 l 286 979 l 286 364 b 492 157 286 237 360 157 b 696 364 623 157 696 237 l 696 979 l 901 979 l 901 346 b 492 -17 901 129 744 -17 m 411 -81 l 571 -81 l 736 -304 l 593 -304 l 490 -168 l 391 -304 l 248 -304 "},"Ü":{"ha":983,"x_min":0,"x_max":0,"o":"m 350 1070 b 254 1164 296 1070 254 1113 b 350 1258 254 1215 296 1258 b 446 1164 404 1258 446 1215 b 350 1070 446 1113 404 1070 m 633 1070 b 537 1164 579 1070 537 1113 b 633 1258 537 1215 579 1258 b 730 1164 688 1258 730 1215 b 633 1070 730 1113 688 1070 m 492 -17 b 81 346 241 -17 81 128 l 81 979 l 286 979 l 286 364 b 492 157 286 237 360 157 b 696 364 623 157 696 237 l 696 979 l 901 979 l 901 346 b 492 -17 901 129 744 -17 "},"Ǜ":{"ha":983,"x_min":0,"x_max":0,"o":"m 451 1185 l 313 1316 l 453 1316 l 547 1185 m 605 1021 b 532 1084 562 1021 532 1048 l 532 1088 b 605 1151 532 1124 562 1151 l 610 1151 b 683 1088 653 1151 683 1124 l 683 1084 b 610 1021 683 1048 653 1021 l 605 1021 m 373 1021 b 300 1084 330 1021 300 1048 l 300 1088 b 373 1151 300 1124 330 1151 l 378 1151 b 450 1088 421 1151 450 1124 l 450 1084 b 378 1021 450 1048 421 1021 l 373 1021 m 492 -17 b 81 346 241 -17 81 128 l 81 979 l 286 979 l 286 364 b 492 157 286 237 360 157 b 696 364 623 157 696 237 l 696 979 l 901 979 l 901 346 b 492 -17 901 129 744 -17 "},"Ǘ":{"ha":983,"x_min":0,"x_max":0,"o":"m 530 1316 l 671 1316 l 532 1185 l 435 1185 m 605 1021 b 532 1084 562 1021 532 1048 l 532 1088 b 605 1151 532 1124 562 1151 l 610 1151 b 683 1088 653 1151 683 1124 l 683 1084 b 610 1021 683 1048 653 1021 l 605 1021 m 373 1021 b 300 1084 330 1021 300 1048 l 300 1088 b 373 1151 300 1124 330 1151 l 378 1151 b 450 1088 421 1151 450 1124 l 450 1084 b 378 1021 450 1048 421 1021 l 373 1021 m 492 -17 b 81 346 241 -17 81 128 l 81 979 l 286 979 l 286 364 b 492 157 286 237 360 157 b 696 364 623 157 696 237 l 696 979 l 901 979 l 901 346 b 492 -17 901 129 744 -17 "},"Ǖ":{"ha":983,"x_min":0,"x_max":0,"o":"m 296 1286 l 686 1286 l 686 1190 l 296 1190 m 605 1021 b 532 1084 562 1021 532 1048 l 532 1088 b 605 1151 532 1124 562 1151 l 610 1151 b 683 1088 653 1151 683 1124 l 683 1084 b 610 1021 683 1048 653 1021 l 605 1021 m 373 1021 b 300 1084 330 1021 300 1048 l 300 1088 b 373 1151 300 1124 330 1151 l 378 1151 b 450 1088 421 1151 450 1124 l 450 1084 b 378 1021 450 1048 421 1021 l 373 1021 m 492 -17 b 81 346 241 -17 81 128 l 81 979 l 286 979 l 286 364 b 492 157 286 237 360 157 b 696 364 623 157 696 237 l 696 979 l 901 979 l 901 346 b 492 -17 901 129 744 -17 "},"Ǚ":{"ha":983,"x_min":0,"x_max":0,"o":"m 427 1181 l 280 1318 l 416 1318 l 492 1246 l 567 1318 l 703 1318 l 557 1181 m 605 1021 b 532 1084 562 1021 532 1048 l 532 1088 b 605 1151 532 1124 562 1151 l 610 1151 b 683 1088 653 1151 683 1124 l 683 1084 b 610 1021 683 1048 653 1021 l 605 1021 m 373 1021 b 300 1084 330 1021 300 1048 l 300 1088 b 373 1151 300 1124 330 1151 l 378 1151 b 450 1088 421 1151 450 1124 l 450 1084 b 378 1021 450 1048 421 1021 l 373 1021 m 492 -17 b 81 346 241 -17 81 128 l 81 979 l 286 979 l 286 364 b 492 157 286 237 360 157 b 696 364 623 157 696 237 l 696 979 l 901 979 l 901 346 b 492 -17 901 129 744 -17 "},"Ṳ":{"ha":983,"x_min":0,"x_max":0,"o":"m 492 -17 b 81 346 241 -17 81 128 l 81 979 l 286 979 l 286 364 b 492 157 286 237 360 157 b 696 364 623 157 696 237 l 696 979 l 901 979 l 901 346 b 492 -17 901 129 744 -17 m 353 -84 b 446 -176 404 -84 446 -125 b 353 -266 446 -225 404 -266 b 259 -176 300 -266 259 -225 b 353 -84 259 -125 300 -84 m 631 -84 b 724 -176 683 -84 724 -125 b 631 -266 724 -225 683 -266 b 538 -176 578 -266 538 -225 b 631 -84 538 -125 578 -84 "},"Ṵ":{"ha":983,"x_min":0,"x_max":0,"o":"m 492 -17 b 81 346 241 -17 81 128 l 81 979 l 286 979 l 286 364 b 492 157 286 237 360 157 b 696 364 623 157 696 237 l 696 979 l 901 979 l 901 346 b 492 -17 901 129 744 -17 m 597 -307 b 498 -273 556 -307 524 -292 l 468 -253 b 408 -225 447 -237 428 -225 b 366 -304 380 -225 366 -250 l 366 -308 l 257 -308 l 257 -298 b 387 -96 257 -161 309 -96 b 484 -131 427 -96 458 -112 l 513 -151 b 575 -178 535 -167 555 -178 b 617 -100 603 -178 617 -154 l 617 -96 l 726 -96 l 726 -106 b 597 -307 726 -240 677 -307 "},"Ủ":{"ha":983,"x_min":0,"x_max":0,"o":"m 435 1061 b 493 1144 468 1088 493 1115 b 406 1196 493 1177 459 1196 b 355 1192 387 1196 369 1194 l 355 1290 b 444 1303 376 1297 409 1303 b 612 1175 540 1303 612 1253 b 541 1059 612 1127 585 1090 l 435 1059 m 492 -17 b 81 346 241 -17 81 128 l 81 979 l 286 979 l 286 364 b 492 157 286 237 360 157 b 696 364 623 157 696 237 l 696 979 l 901 979 l 901 346 b 492 -17 901 129 744 -17 "},"Ŭ":{"ha":983,"x_min":0,"x_max":0,"o":"m 492 1057 b 264 1272 355 1057 264 1143 l 264 1278 l 384 1278 l 384 1276 b 492 1171 384 1217 426 1171 b 599 1276 557 1171 599 1217 l 599 1278 l 719 1278 l 719 1272 b 492 1057 719 1143 628 1057 m 492 -17 b 81 346 241 -17 81 128 l 81 979 l 286 979 l 286 364 b 492 157 286 237 360 157 b 696 364 623 157 696 237 l 696 979 l 901 979 l 901 346 b 492 -17 901 129 744 -17 "},"Ȗ":{"ha":983,"x_min":0,"x_max":0,"o":"m 492 1278 b 719 1063 628 1278 719 1192 l 719 1057 l 599 1057 l 599 1059 b 492 1164 599 1118 557 1164 b 384 1059 426 1164 384 1118 l 384 1057 l 264 1057 l 264 1063 b 492 1278 264 1192 355 1278 m 492 -17 b 81 346 241 -17 81 128 l 81 979 l 286 979 l 286 364 b 492 157 286 237 360 157 b 696 364 623 157 696 237 l 696 979 l 901 979 l 901 346 b 492 -17 901 129 744 -17 "},"Ṹ":{"ha":983,"x_min":0,"x_max":0,"o":"m 530 1322 l 671 1322 l 532 1192 l 435 1192 m 577 1026 b 488 1050 545 1026 516 1034 l 471 1059 b 424 1075 452 1070 440 1075 b 392 1029 401 1075 392 1059 l 392 1026 l 293 1026 l 293 1032 b 406 1161 293 1116 340 1161 b 494 1137 437 1161 466 1152 l 511 1126 b 559 1112 530 1116 543 1112 b 591 1158 581 1112 591 1128 l 591 1161 l 690 1161 l 690 1155 b 577 1026 690 1071 642 1026 m 492 -17 b 81 346 241 -17 81 128 l 81 979 l 286 979 l 286 364 b 492 157 286 237 360 157 b 696 364 623 157 696 237 l 696 979 l 901 979 l 901 346 b 492 -17 901 129 744 -17 "},"Ụ":{"ha":983,"x_min":0,"x_max":0,"o":"m 492 -17 b 81 346 241 -17 81 128 l 81 979 l 286 979 l 286 364 b 492 157 286 237 360 157 b 696 364 623 157 696 237 l 696 979 l 901 979 l 901 346 b 492 -17 901 129 744 -17 m 492 -299 b 386 -196 432 -299 386 -252 b 492 -93 386 -140 432 -93 b 597 -196 551 -93 597 -140 b 492 -299 597 -252 551 -299 "},"Ũ":{"ha":983,"x_min":0,"x_max":0,"o":"m 592 1056 b 498 1088 553 1056 522 1071 l 469 1107 b 412 1133 449 1122 431 1133 b 372 1059 385 1133 372 1109 l 372 1055 l 264 1055 l 264 1065 b 391 1261 264 1198 315 1261 b 484 1228 429 1261 458 1246 l 512 1209 b 570 1184 533 1195 551 1184 b 611 1258 597 1184 611 1207 l 611 1261 l 718 1261 l 718 1251 b 592 1056 718 1121 671 1056 m 492 -17 b 81 346 241 -17 81 128 l 81 979 l 286 979 l 286 364 b 492 157 286 237 360 157 b 696 364 623 157 696 237 l 696 979 l 901 979 l 901 346 b 492 -17 901 129 744 -17 "},"Ū":{"ha":983,"x_min":0,"x_max":0,"o":"m 281 1225 l 701 1225 l 701 1103 l 281 1103 m 492 -17 b 81 346 241 -17 81 128 l 81 979 l 286 979 l 286 364 b 492 157 286 237 360 157 b 696 364 623 157 696 237 l 696 979 l 901 979 l 901 346 b 492 -17 901 129 744 -17 "},"Ṻ":{"ha":983,"x_min":0,"x_max":0,"o":"m 605 1177 b 532 1240 562 1177 532 1204 l 532 1244 b 605 1308 532 1280 562 1308 l 610 1308 b 683 1244 653 1308 683 1280 l 683 1241 b 610 1177 683 1204 653 1177 l 605 1177 m 373 1177 b 300 1240 330 1177 300 1204 l 300 1244 b 373 1308 300 1280 330 1308 l 378 1308 b 450 1244 421 1308 450 1280 l 450 1241 b 378 1177 450 1204 421 1177 l 373 1177 m 296 1133 l 686 1133 l 686 1037 l 296 1037 m 492 -17 b 81 346 241 -17 81 128 l 81 979 l 286 979 l 286 364 b 492 157 286 237 360 157 b 696 364 623 157 696 237 l 696 979 l 901 979 l 901 346 b 492 -17 901 129 744 -17 "},"Ů":{"ha":983,"x_min":0,"x_max":0,"o":"m 496 1036 b 356 1171 420 1036 356 1094 l 356 1171 b 496 1306 356 1248 420 1306 b 634 1171 571 1306 634 1248 l 634 1171 b 496 1036 634 1094 571 1036 m 496 1118 b 550 1171 525 1118 550 1141 l 550 1171 b 496 1225 550 1202 526 1225 b 441 1171 465 1225 441 1202 l 441 1171 b 496 1118 441 1141 466 1118 m 492 -17 b 81 346 241 -17 81 128 l 81 979 l 286 979 l 286 364 b 492 157 286 237 360 157 b 696 364 623 157 696 237 l 696 979 l 901 979 l 901 346 b 492 -17 901 129 744 -17 "},"Ų":{"ha":983,"x_min":0,"x_max":0,"o":"m 529 -328 b 364 -178 436 -328 364 -273 l 364 -177 b 447 -16 363 -117 393 -60 b 81 346 222 1 81 141 l 81 979 l 286 979 l 286 364 b 492 157 286 237 360 157 b 696 364 623 157 696 237 l 696 979 l 901 979 l 901 346 b 586 -9 901 157 783 22 b 534 -135 551 -47 534 -89 l 534 -136 b 599 -218 534 -191 563 -218 b 631 -214 612 -218 624 -217 l 631 -311 b 529 -328 610 -321 569 -328 "},"Ư":{"ha":983,"x_min":0,"x_max":0,"o":"m 492 -17 b 81 346 241 -17 81 128 l 81 979 l 286 979 l 286 364 b 492 157 286 237 360 157 b 696 364 623 157 696 237 l 696 979 b 878 1183 846 997 879 1040 l 1030 1183 b 901 920 1030 1038 997 962 l 901 346 b 492 -17 901 129 744 -17 "},"Ừ":{"ha":983,"x_min":0,"x_max":0,"o":"m 288 1283 l 461 1283 l 580 1059 l 448 1059 m 492 -17 b 81 346 241 -17 81 128 l 81 979 l 286 979 l 286 364 b 492 157 286 237 360 157 b 696 364 623 157 696 237 l 696 979 b 878 1183 846 997 879 1040 l 1030 1183 b 901 920 1030 1038 997 962 l 901 346 b 492 -17 901 129 744 -17 "},"Ứ":{"ha":983,"x_min":0,"x_max":0,"o":"m 410 1059 l 529 1283 l 703 1283 l 542 1059 m 492 -17 b 81 346 241 -17 81 128 l 81 979 l 286 979 l 286 364 b 492 157 286 237 360 157 b 696 364 623 157 696 237 l 696 979 b 878 1183 846 997 879 1040 l 1030 1183 b 901 920 1030 1038 997 962 l 901 346 b 492 -17 901 129 744 -17 "},"Ự":{"ha":983,"x_min":0,"x_max":0,"o":"m 492 -17 b 81 346 241 -17 81 128 l 81 979 l 286 979 l 286 364 b 492 157 286 237 360 157 b 696 364 623 157 696 237 l 696 979 b 878 1183 846 997 879 1040 l 1030 1183 b 901 920 1030 1038 997 962 l 901 346 b 492 -17 901 129 744 -17 m 492 -299 b 386 -196 432 -299 386 -252 b 492 -93 386 -140 432 -93 b 597 -196 551 -93 597 -140 b 492 -299 597 -252 551 -299 "},"Ử":{"ha":983,"x_min":0,"x_max":0,"o":"m 435 1061 b 493 1144 468 1088 493 1115 b 406 1196 493 1177 459 1196 b 355 1192 387 1196 369 1194 l 355 1290 b 444 1303 376 1297 409 1303 b 612 1175 540 1303 612 1253 b 541 1059 612 1127 585 1090 l 435 1059 m 492 -17 b 81 346 241 -17 81 128 l 81 979 l 286 979 l 286 364 b 492 157 286 237 360 157 b 696 364 623 157 696 237 l 696 979 b 878 1183 846 997 879 1040 l 1030 1183 b 901 920 1030 1038 997 962 l 901 346 b 492 -17 901 129 744 -17 "},"Ữ":{"ha":983,"x_min":0,"x_max":0,"o":"m 595 1056 b 511 1088 561 1056 532 1071 l 484 1107 b 433 1133 466 1122 450 1133 b 395 1059 408 1133 395 1109 l 395 1055 l 296 1055 l 296 1065 b 412 1261 296 1198 343 1261 b 496 1228 447 1261 474 1246 l 523 1209 b 575 1184 542 1195 557 1184 b 612 1258 600 1184 612 1207 l 612 1261 l 712 1261 l 712 1251 b 595 1056 712 1121 669 1056 m 492 -17 b 81 346 241 -17 81 128 l 81 979 l 286 979 l 286 364 b 492 157 286 237 360 157 b 696 364 623 157 696 237 l 696 979 b 878 1183 846 997 879 1040 l 1030 1183 b 901 920 1030 1038 997 962 l 901 346 b 492 -17 901 129 744 -17 "},"V":{"ha":942,"x_min":0,"x_max":0,"o":"m 19 979 l 245 979 l 469 210 l 473 210 l 696 979 l 924 979 l 596 0 l 347 0 "},"Ṽ":{"ha":942,"x_min":0,"x_max":0,"o":"m 574 1056 b 480 1088 536 1056 505 1071 l 451 1107 b 395 1133 431 1122 413 1133 b 354 1059 368 1133 354 1109 l 354 1055 l 247 1055 l 247 1065 b 373 1261 247 1198 298 1261 b 466 1228 411 1261 441 1246 l 494 1209 b 553 1184 515 1195 534 1184 b 593 1258 580 1184 593 1207 l 593 1261 l 701 1261 l 701 1251 b 574 1056 701 1121 653 1056 m 19 979 l 245 979 l 469 210 l 473 210 l 696 979 l 924 979 l 596 0 l 347 0 "},"Ṿ":{"ha":942,"x_min":0,"x_max":0,"o":"m 19 979 l 245 979 l 469 210 l 473 210 l 696 979 l 924 979 l 596 0 l 347 0 m 474 -299 b 368 -196 414 -299 368 -252 b 474 -93 368 -140 414 -93 b 580 -196 534 -93 580 -140 b 474 -299 580 -252 534 -299 "},"W":{"ha":1341,"x_min":0,"x_max":0,"o":"m 29 979 l 241 979 l 396 277 l 400 277 l 581 979 l 760 979 l 941 277 l 945 277 l 1100 979 l 1312 979 l 1053 0 l 852 0 l 673 656 l 669 656 l 488 0 l 288 0 "},"Ẁ":{"ha":1341,"x_min":0,"x_max":0,"o":"m 467 1283 l 640 1283 l 759 1059 l 627 1059 m 29 979 l 241 979 l 396 277 l 400 277 l 581 979 l 760 979 l 941 277 l 945 277 l 1100 979 l 1312 979 l 1053 0 l 852 0 l 673 656 l 669 656 l 488 0 l 288 0 "},"Ẃ":{"ha":1341,"x_min":0,"x_max":0,"o":"m 589 1059 l 708 1283 l 882 1283 l 721 1059 m 29 979 l 241 979 l 396 277 l 400 277 l 581 979 l 760 979 l 941 277 l 945 277 l 1100 979 l 1312 979 l 1053 0 l 852 0 l 673 656 l 669 656 l 488 0 l 288 0 "},"Ẇ":{"ha":1341,"x_min":0,"x_max":0,"o":"m 670 1067 b 570 1166 614 1067 570 1112 b 670 1263 570 1219 614 1263 b 771 1166 727 1263 771 1219 b 670 1067 771 1112 727 1067 m 29 979 l 241 979 l 396 277 l 400 277 l 581 979 l 760 979 l 941 277 l 945 277 l 1100 979 l 1312 979 l 1053 0 l 852 0 l 673 656 l 669 656 l 488 0 l 288 0 "},"Ẉ":{"ha":1341,"x_min":0,"x_max":0,"o":"m 29 979 l 241 979 l 396 277 l 400 277 l 581 979 l 760 979 l 941 277 l 945 277 l 1100 979 l 1312 979 l 1053 0 l 852 0 l 673 656 l 669 656 l 488 0 l 288 0 m 671 -299 b 565 -196 611 -299 565 -252 b 671 -93 565 -140 611 -93 b 777 -196 730 -93 777 -140 b 671 -299 777 -252 730 -299 "},"Ẅ":{"ha":1341,"x_min":0,"x_max":0,"o":"m 529 1070 b 433 1164 475 1070 433 1113 b 529 1258 433 1215 475 1258 b 625 1164 583 1258 625 1215 b 529 1070 625 1113 583 1070 m 812 1070 b 716 1164 758 1070 716 1113 b 812 1258 716 1215 758 1258 b 909 1164 867 1258 909 1215 b 812 1070 909 1113 867 1070 m 29 979 l 241 979 l 396 277 l 400 277 l 581 979 l 760 979 l 941 277 l 945 277 l 1100 979 l 1312 979 l 1053 0 l 852 0 l 673 656 l 669 656 l 488 0 l 288 0 "},"Ŵ":{"ha":1341,"x_min":0,"x_max":0,"o":"m 591 1283 l 749 1283 l 907 1059 l 766 1059 l 669 1195 l 575 1059 l 434 1059 m 29 979 l 241 979 l 396 277 l 400 277 l 581 979 l 760 979 l 941 277 l 945 277 l 1100 979 l 1312 979 l 1053 0 l 852 0 l 673 656 l 669 656 l 488 0 l 288 0 "},"X":{"ha":952,"x_min":0,"x_max":0,"o":"m 340 493 l 340 495 l 31 979 l 272 979 l 480 626 l 488 626 l 694 979 l 923 979 l 602 492 l 602 489 l 919 0 l 686 0 l 471 343 l 464 343 l 250 0 l 29 0 "},"Ẋ":{"ha":952,"x_min":0,"x_max":0,"o":"m 481 1067 b 381 1166 425 1067 381 1112 b 481 1263 381 1219 425 1263 b 582 1166 538 1263 582 1219 b 481 1067 582 1112 538 1067 m 340 493 l 340 495 l 31 979 l 272 979 l 480 626 l 488 626 l 694 979 l 923 979 l 602 492 l 602 489 l 919 0 l 686 0 l 471 343 l 464 343 l 250 0 l 29 0 "},"Ẍ":{"ha":952,"x_min":0,"x_max":0,"o":"m 340 1070 b 243 1164 286 1070 243 1113 b 340 1258 243 1215 286 1258 b 436 1164 395 1258 436 1215 b 340 1070 436 1113 395 1070 m 624 1070 b 528 1164 570 1070 528 1113 b 624 1258 528 1215 570 1258 b 720 1164 678 1258 720 1215 b 624 1070 720 1113 678 1070 m 340 493 l 340 495 l 31 979 l 272 979 l 480 626 l 488 626 l 694 979 l 923 979 l 602 492 l 602 489 l 919 0 l 686 0 l 471 343 l 464 343 l 250 0 l 29 0 "},"Y":{"ha":924,"x_min":0,"x_max":0,"o":"m 359 366 l 19 979 l 240 979 l 460 561 l 465 561 l 684 979 l 905 979 l 564 366 l 564 0 l 359 0 "},"Ỳ":{"ha":924,"x_min":0,"x_max":0,"o":"m 258 1283 l 432 1283 l 550 1059 l 418 1059 m 359 366 l 19 979 l 240 979 l 460 561 l 465 561 l 684 979 l 905 979 l 564 366 l 564 0 l 359 0 "},"Ý":{"ha":924,"x_min":0,"x_max":0,"o":"m 381 1059 l 499 1283 l 673 1283 l 513 1059 m 359 366 l 19 979 l 240 979 l 460 561 l 465 561 l 684 979 l 905 979 l 564 366 l 564 0 l 359 0 "},"Ẏ":{"ha":924,"x_min":0,"x_max":0,"o":"m 462 1067 b 361 1166 406 1067 361 1112 b 462 1263 361 1219 406 1263 b 562 1166 518 1263 562 1219 b 462 1067 562 1112 518 1067 m 359 366 l 19 979 l 240 979 l 460 561 l 465 561 l 684 979 l 905 979 l 564 366 l 564 0 l 359 0 "},"Ỵ":{"ha":924,"x_min":0,"x_max":0,"o":"m 359 366 l 19 979 l 240 979 l 460 561 l 465 561 l 684 979 l 905 979 l 564 366 l 564 0 l 359 0 m 462 -299 b 356 -196 403 -299 356 -252 b 462 -93 356 -140 403 -93 b 568 -196 522 -93 568 -140 b 462 -299 568 -252 522 -299 "},"Ÿ":{"ha":924,"x_min":0,"x_max":0,"o":"m 320 1070 b 224 1164 266 1070 224 1113 b 320 1258 224 1215 266 1258 b 416 1164 375 1258 416 1215 b 320 1070 416 1113 375 1070 m 604 1070 b 508 1164 550 1070 508 1113 b 604 1258 508 1215 550 1258 b 701 1164 659 1258 701 1215 b 604 1070 701 1113 659 1070 m 359 366 l 19 979 l 240 979 l 460 561 l 465 561 l 684 979 l 905 979 l 564 366 l 564 0 l 359 0 "},"Ỹ":{"ha":924,"x_min":0,"x_max":0,"o":"m 562 1056 b 468 1088 524 1056 493 1071 l 439 1107 b 382 1133 419 1122 401 1133 b 342 1059 355 1133 342 1109 l 342 1055 l 235 1055 l 235 1065 b 361 1261 235 1198 286 1261 b 454 1228 399 1261 429 1246 l 483 1209 b 541 1184 503 1195 522 1184 b 581 1258 568 1184 581 1207 l 581 1261 l 688 1261 l 688 1251 b 562 1056 688 1121 642 1056 m 359 366 l 19 979 l 240 979 l 460 561 l 465 561 l 684 979 l 905 979 l 564 366 l 564 0 l 359 0 "},"Ŷ":{"ha":924,"x_min":0,"x_max":0,"o":"m 382 1283 l 541 1283 l 699 1059 l 557 1059 l 460 1195 l 367 1059 l 226 1059 m 359 366 l 19 979 l 240 979 l 460 561 l 465 561 l 684 979 l 905 979 l 564 366 l 564 0 l 359 0 "},"Ȳ":{"ha":924,"x_min":0,"x_max":0,"o":"m 252 1225 l 672 1225 l 672 1103 l 252 1103 m 359 366 l 19 979 l 240 979 l 460 561 l 465 561 l 684 979 l 905 979 l 564 366 l 564 0 l 359 0 "},"Ỷ":{"ha":924,"x_min":0,"x_max":0,"o":"m 405 1061 b 463 1144 438 1088 463 1115 b 377 1196 463 1177 430 1196 b 326 1192 357 1196 340 1194 l 326 1290 b 414 1303 347 1297 380 1303 b 583 1175 510 1303 583 1253 b 511 1059 583 1127 555 1090 l 405 1059 m 359 366 l 19 979 l 240 979 l 460 561 l 465 561 l 684 979 l 905 979 l 564 366 l 564 0 l 359 0 "},"Ƴ":{"ha":977,"x_min":0,"x_max":0,"o":"m 359 366 l 19 979 l 240 979 l 460 561 l 465 561 l 618 846 b 818 991 667 946 721 991 b 969 953 869 991 928 975 l 912 787 b 851 802 892 796 868 802 b 782 750 821 802 801 785 l 564 366 l 564 0 l 359 0 "},"⅄":{"ha":924,"x_min":0,"x_max":0,"o":"m 564 613 l 905 0 l 684 0 l 465 418 l 460 418 l 240 0 l 19 0 l 359 613 l 359 979 l 564 979 "},"Z":{"ha":876,"x_min":0,"x_max":0,"o":"m 60 134 l 558 806 l 558 810 l 72 810 l 72 979 l 802 979 l 802 846 l 307 173 l 307 169 l 816 169 l 816 0 l 60 0 "},"Ź":{"ha":876,"x_min":0,"x_max":0,"o":"m 357 1059 l 476 1283 l 650 1283 l 489 1059 m 60 134 l 558 806 l 558 810 l 72 810 l 72 979 l 802 979 l 802 846 l 307 173 l 307 169 l 816 169 l 816 0 l 60 0 "},"Ž":{"ha":876,"x_min":0,"x_max":0,"o":"m 519 1059 l 360 1059 l 202 1283 l 343 1283 l 440 1147 l 534 1283 l 675 1283 m 60 134 l 558 806 l 558 810 l 72 810 l 72 979 l 802 979 l 802 846 l 307 173 l 307 169 l 816 169 l 816 0 l 60 0 "},"Ẑ":{"ha":876,"x_min":0,"x_max":0,"o":"m 359 1283 l 517 1283 l 675 1059 l 534 1059 l 437 1195 l 343 1059 l 202 1059 m 60 134 l 558 806 l 558 810 l 72 810 l 72 979 l 802 979 l 802 846 l 307 173 l 307 169 l 816 169 l 816 0 l 60 0 "},"Ẕ":{"ha":876,"x_min":0,"x_max":0,"o":"m 60 134 l 558 806 l 558 810 l 72 810 l 72 979 l 802 979 l 802 846 l 307 173 l 307 169 l 816 169 l 816 0 l 60 0 m 222 -130 l 656 -130 l 656 -252 l 222 -252 "},"Ẓ":{"ha":876,"x_min":0,"x_max":0,"o":"m 60 134 l 558 806 l 558 810 l 72 810 l 72 979 l 802 979 l 802 846 l 307 173 l 307 169 l 816 169 l 816 0 l 60 0 m 439 -299 b 333 -196 379 -299 333 -252 b 439 -93 333 -140 379 -93 b 545 -196 498 -93 545 -140 b 439 -299 545 -252 498 -299 "},"Ż":{"ha":876,"x_min":0,"x_max":0,"o":"m 438 1067 b 338 1166 382 1067 338 1112 b 438 1263 338 1219 382 1263 b 539 1166 495 1263 539 1219 b 438 1067 539 1112 495 1067 m 60 134 l 558 806 l 558 810 l 72 810 l 72 979 l 802 979 l 802 846 l 307 173 l 307 169 l 816 169 l 816 0 l 60 0 "},"Æ":{"ha":1362,"x_min":0,"x_max":0,"o":"m 455 979 l 1296 979 l 1296 810 l 842 810 l 842 570 l 1271 570 l 1271 413 l 842 413 l 842 169 l 1296 169 l 1296 0 l 655 0 l 655 253 l 334 253 l 223 0 l 19 0 m 401 406 l 655 406 l 655 821 l 583 821 "},"Ǣ":{"ha":1362,"x_min":0,"x_max":0,"o":"m 645 1225 l 1065 1225 l 1065 1103 l 645 1103 m 455 979 l 1296 979 l 1296 810 l 842 810 l 842 570 l 1271 570 l 1271 413 l 842 413 l 842 169 l 1296 169 l 1296 0 l 655 0 l 655 253 l 334 253 l 223 0 l 19 0 m 401 406 l 655 406 l 655 821 l 583 821 "},"Ǽ":{"ha":1362,"x_min":0,"x_max":0,"o":"m 774 1059 l 892 1283 l 1066 1283 l 905 1059 m 455 979 l 1296 979 l 1296 810 l 842 810 l 842 570 l 1271 570 l 1271 413 l 842 413 l 842 169 l 1296 169 l 1296 0 l 655 0 l 655 253 l 334 253 l 223 0 l 19 0 m 401 406 l 655 406 l 655 821 l 583 821 "},"Œ":{"ha":1499,"x_min":0,"x_max":0,"o":"m 498 -17 b 51 488 230 -17 51 186 l 51 490 b 498 996 51 792 230 996 b 810 819 639 996 759 928 l 812 819 l 812 979 l 1434 979 l 1434 810 l 997 810 l 997 574 l 1408 574 l 1408 416 l 997 416 l 997 169 l 1434 169 l 1434 0 l 812 0 l 812 161 l 810 161 b 498 -17 759 52 637 -17 m 525 157 b 790 488 686 157 790 287 l 790 490 b 525 822 790 692 686 822 b 260 490 363 822 260 692 l 260 488 b 525 157 260 287 363 157 "},"Þ":{"ha":902,"x_min":0,"x_max":0,"o":"m 102 979 l 309 979 l 308 819 l 517 819 b 839 510 701 819 839 703 l 839 509 b 507 199 839 316 696 199 l 307 199 l 307 0 l 102 0 m 308 657 l 308 359 l 459 359 b 630 508 563 359 630 410 l 630 509 b 460 657 630 607 563 657 "},"Ɣ":{"ha":818,"x_min":0,"x_max":0,"o":"m 409 -16 b 204 160 285 -16 204 60 l 204 161 b 270 357 204 226 231 283 l 304 418 l 19 979 l 235 979 l 409 579 l 583 979 l 799 979 l 514 418 l 548 357 b 614 161 587 283 614 226 l 614 160 b 409 -16 614 60 533 -16 m 408 106 b 466 164 444 106 466 131 l 466 165 b 414 296 466 191 454 221 l 408 306 l 404 296 b 351 165 363 221 351 191 l 351 164 b 408 106 351 131 374 106 "},"Ǳ":{"ha":1849,"x_min":0,"x_max":0,"o":"m 81 979 l 455 979 b 922 494 748 979 922 804 l 922 493 b 455 0 922 182 749 0 l 81 0 m 1033 134 l 1531 806 l 1531 810 l 1044 810 l 1044 979 l 1774 979 l 1774 846 l 1278 173 l 1278 169 l 1788 169 l 1788 0 l 1033 0 m 431 170 b 713 492 614 170 713 281 l 713 494 b 431 810 713 698 610 810 l 286 810 l 286 170 "},"Ǆ":{"ha":1849,"x_min":0,"x_max":0,"o":"m 1491 1059 l 1332 1059 l 1175 1283 l 1316 1283 l 1412 1147 l 1506 1283 l 1647 1283 m 81 979 l 455 979 b 922 494 748 979 922 804 l 922 493 b 455 0 922 182 749 0 l 81 0 m 1033 134 l 1531 806 l 1531 810 l 1044 810 l 1044 979 l 1774 979 l 1774 846 l 1278 173 l 1278 169 l 1788 169 l 1788 0 l 1033 0 m 431 170 b 713 492 614 170 713 281 l 713 494 b 431 810 713 698 610 810 l 286 810 l 286 170 "},"Ǉ":{"ha":1529,"x_min":0,"x_max":0,"o":"m 81 979 l 286 979 l 286 169 l 714 169 l 714 0 l 81 0 m 1105 -17 b 776 287 903 -17 781 103 l 775 293 l 974 293 l 975 289 b 1103 160 978 213 1023 160 b 1236 311 1190 160 1236 212 l 1236 979 l 1440 979 l 1440 309 b 1105 -17 1440 103 1318 -17 "},"Ǌ":{"ha":1767,"x_min":0,"x_max":0,"o":"m 81 979 l 260 979 l 703 342 l 707 342 l 707 979 l 911 979 l 911 0 l 733 0 l 290 641 l 286 641 l 286 0 l 81 0 m 1343 -17 b 1014 287 1141 -17 1019 103 l 1013 293 l 1212 293 l 1213 289 b 1341 160 1216 213 1261 160 b 1474 311 1428 160 1474 212 l 1474 979 l 1678 979 l 1678 309 b 1343 -17 1678 103 1556 -17 "},"Α":{"ha":962,"x_min":0,"x_max":0,"o":"m 361 979 l 602 979 l 943 0 l 728 0 l 654 237 l 308 237 l 234 0 l 19 0 m 355 391 l 606 391 l 483 789 l 479 789 "},"Β":{"ha":888,"x_min":0,"x_max":0,"o":"m 81 979 l 507 979 b 808 733 692 979 808 884 l 808 732 b 618 519 808 625 726 533 l 618 515 b 853 280 755 505 853 408 l 853 279 b 515 0 853 107 724 0 l 81 0 m 286 827 l 286 570 l 429 570 b 606 703 545 570 606 618 l 606 704 b 454 827 606 782 550 827 m 286 431 l 286 153 l 463 153 b 644 292 580 153 644 201 l 644 293 b 454 431 644 382 579 431 "},"Γ":{"ha":755,"x_min":0,"x_max":0,"o":"m 81 0 l 81 979 l 712 979 l 712 810 l 286 810 l 286 0 "},"Δ":{"ha":945,"x_min":0,"x_max":0,"o":"m 36 117 l 353 979 l 593 979 l 910 117 l 910 0 l 36 0 m 680 169 l 680 174 l 469 798 l 465 798 l 251 174 l 251 169 "},"∆":{"ha":945,"x_min":0,"x_max":0,"o":"m 36 0 l 910 0 l 910 117 l 593 979 l 353 979 l 36 117 m 251 169 l 251 174 l 465 798 l 469 798 l 680 174 l 680 169 "},"Ε":{"ha":796,"x_min":0,"x_max":0,"o":"m 81 979 l 730 979 l 730 810 l 286 810 l 286 575 l 705 575 l 705 415 l 286 415 l 286 169 l 730 169 l 730 0 l 81 0 "},"Ζ":{"ha":876,"x_min":0,"x_max":0,"o":"m 60 134 l 558 806 l 558 810 l 72 810 l 72 979 l 802 979 l 802 846 l 307 173 l 307 169 l 816 169 l 816 0 l 60 0 "},"Η":{"ha":1013,"x_min":0,"x_max":0,"o":"m 81 979 l 286 979 l 286 581 l 727 581 l 727 979 l 932 979 l 932 0 l 727 0 l 727 412 l 286 412 l 286 0 l 81 0 "},"Θ":{"ha":1059,"x_min":0,"x_max":0,"o":"m 530 -17 b 51 489 235 -17 51 178 l 51 490 b 530 996 51 802 236 996 b 1008 490 825 996 1008 801 l 1008 489 b 530 -17 1008 178 825 -17 m 530 157 b 808 489 702 157 808 286 l 808 490 b 530 822 808 694 700 822 b 252 490 360 822 252 695 l 252 489 b 530 157 252 284 359 157 m 367 571 l 692 571 l 692 408 l 367 408 "},"Ι":{"ha":368,"x_min":0,"x_max":0,"o":"m 81 979 l 286 979 l 286 0 l 81 0 "},"Κ":{"ha":907,"x_min":0,"x_max":0,"o":"m 81 979 l 286 979 l 286 531 l 291 531 l 650 979 l 878 979 l 527 547 l 903 0 l 658 0 l 378 413 l 286 300 l 286 0 l 81 0 "},"Λ":{"ha":938,"x_min":0,"x_max":0,"o":"m 349 979 l 589 979 l 919 0 l 702 0 l 468 781 l 463 781 l 229 0 l 19 0 "},"Μ":{"ha":1196,"x_min":0,"x_max":0,"o":"m 81 979 l 318 979 l 596 275 l 600 275 l 878 979 l 1115 979 l 1115 0 l 932 0 l 932 662 l 926 662 l 663 0 l 534 0 l 269 662 l 264 662 l 264 0 l 81 0 "},"Ν":{"ha":992,"x_min":0,"x_max":0,"o":"m 81 979 l 260 979 l 703 342 l 707 342 l 707 979 l 911 979 l 911 0 l 733 0 l 290 641 l 286 641 l 286 0 l 81 0 "},"Ξ":{"ha":870,"x_min":0,"x_max":0,"o":"m 66 979 l 804 979 l 804 810 l 66 810 m 125 574 l 745 574 l 745 416 l 125 416 m 66 169 l 804 169 l 804 0 l 66 0 "},"Ο":{"ha":1045,"x_min":0,"x_max":0,"o":"m 523 -17 b 51 489 232 -17 51 178 l 51 490 b 523 996 51 802 233 996 b 995 490 813 996 995 801 l 995 489 b 523 -17 995 178 814 -17 m 523 157 b 786 489 686 157 786 286 l 786 490 b 523 822 786 694 684 822 b 260 490 363 822 260 695 l 260 489 b 523 157 260 284 362 157 "},"Π":{"ha":1010,"x_min":0,"x_max":0,"o":"m 724 0 l 724 810 l 286 810 l 286 0 l 81 0 l 81 979 l 928 979 l 928 0 "},"Ρ":{"ha":858,"x_min":0,"x_max":0,"o":"m 81 979 l 475 979 b 819 644 681 979 819 846 l 819 643 b 475 309 819 441 681 309 l 286 309 l 286 0 l 81 0 m 286 817 l 286 469 l 425 469 b 611 642 542 469 611 531 l 611 644 b 425 817 611 755 542 817 "},"Ʃ":{"ha":859,"x_min":0,"x_max":0,"o":"m 60 124 l 319 491 l 75 834 l 75 979 l 781 979 l 781 810 l 330 810 l 330 805 l 542 500 l 542 496 l 311 174 l 311 169 l 799 169 l 799 0 l 60 0 "},"Σ":{"ha":859,"x_min":0,"x_max":0,"o":"m 60 0 l 799 0 l 799 169 l 311 169 l 311 174 l 542 496 l 542 500 l 330 805 l 330 810 l 781 810 l 781 979 l 75 979 l 75 834 l 319 491 l 60 124 "},"Τ":{"ha":836,"x_min":0,"x_max":0,"o":"m 315 810 l 33 810 l 33 979 l 804 979 l 804 810 l 520 810 l 520 0 l 315 0 "},"Υ":{"ha":924,"x_min":0,"x_max":0,"o":"m 359 366 l 19 979 l 240 979 l 460 561 l 465 561 l 684 979 l 905 979 l 564 366 l 564 0 l 359 0 "},"Φ":{"ha":1212,"x_min":0,"x_max":0,"o":"m 512 31 b 42 484 232 44 42 224 l 42 484 b 512 938 42 745 232 925 l 512 1041 l 700 1041 l 700 938 b 1170 484 981 925 1170 745 l 1170 484 b 700 31 1170 223 981 44 l 700 -71 l 512 -71 m 512 776 b 243 484 342 763 243 656 l 243 484 b 512 193 243 313 342 205 m 700 193 b 969 484 869 205 969 313 l 969 484 b 700 776 969 656 869 763 l 700 193 "},"Χ":{"ha":952,"x_min":0,"x_max":0,"o":"m 340 493 l 340 495 l 31 979 l 272 979 l 480 626 l 488 626 l 694 979 l 923 979 l 602 492 l 602 489 l 919 0 l 686 0 l 471 343 l 464 343 l 250 0 l 29 0 "},"Ψ":{"ha":1142,"x_min":0,"x_max":0,"o":"m 474 210 b 68 612 222 214 68 370 l 68 979 l 262 979 l 262 611 b 474 376 262 467 334 386 l 474 979 l 669 979 l 669 376 b 880 611 808 386 880 467 l 880 979 l 1074 979 l 1074 612 b 669 210 1074 370 920 214 l 669 0 l 474 0 "},"Ω":{"ha":1062,"x_min":0,"x_max":0,"o":"m 58 169 l 256 169 l 256 174 b 58 549 130 251 58 386 l 58 550 b 531 996 58 814 249 996 b 1005 550 813 996 1005 814 l 1005 549 b 807 174 1005 386 932 251 l 807 169 l 1005 169 l 1005 0 l 614 0 l 614 210 b 796 534 741 296 796 391 l 796 535 b 531 822 796 711 694 822 b 267 535 368 822 267 711 l 267 534 b 449 210 267 391 321 296 l 449 0 l 58 0 "},"Ω":{"ha":1062,"x_min":0,"x_max":0,"o":"m 58 0 l 449 0 l 449 210 b 267 534 321 296 267 391 l 267 535 b 531 822 267 711 368 822 b 796 535 694 822 796 711 l 796 534 b 614 210 796 391 741 296 l 614 0 l 1005 0 l 1005 169 l 807 169 l 807 174 b 1005 549 932 251 1005 386 l 1005 550 b 531 996 1005 814 813 996 b 58 550 249 996 58 814 l 58 549 b 256 174 58 386 130 251 l 256 169 l 58 169 "},"Ά":{"ha":988,"x_min":0,"x_max":0,"o":"m 58 747 l 111 979 l 286 979 l 193 747 m 387 979 l 628 979 l 970 0 l 754 0 l 681 237 l 334 237 l 261 0 l 45 0 m 382 391 l 633 391 l 510 789 l 506 789 "},"Έ":{"ha":1043,"x_min":0,"x_max":0,"o":"m 19 747 l 73 979 l 248 979 l 154 747 m 329 979 l 977 979 l 977 810 l 534 810 l 534 575 l 952 575 l 952 415 l 534 415 l 534 169 l 977 169 l 977 0 l 329 0 "},"Ή":{"ha":1261,"x_min":0,"x_max":0,"o":"m 19 747 l 73 979 l 248 979 l 154 747 m 329 979 l 534 979 l 534 581 l 975 581 l 975 979 l 1179 979 l 1179 0 l 975 0 l 975 412 l 534 412 l 534 0 l 329 0 "},"Ί":{"ha":615,"x_min":0,"x_max":0,"o":"m 19 747 l 73 979 l 248 979 l 154 747 m 329 979 l 534 979 l 534 0 l 329 0 "},"Ϊ":{"ha":368,"x_min":0,"x_max":0,"o":"m 42 1070 b -54 1164 -12 1070 -54 1113 b 42 1258 -54 1215 -12 1258 b 138 1164 97 1258 138 1215 b 42 1070 138 1113 97 1070 m 326 1070 b 230 1164 272 1070 230 1113 b 326 1258 230 1215 272 1258 b 422 1164 380 1258 422 1215 b 326 1070 422 1113 380 1070 m 81 979 l 286 979 l 286 0 l 81 0 "},"Ό":{"ha":1190,"x_min":0,"x_max":0,"o":"m 667 -17 b 195 489 376 -17 195 178 l 195 490 b 667 996 195 802 377 996 b 1139 490 957 996 1139 801 l 1139 489 b 667 -17 1139 178 958 -17 m 19 747 l 73 979 l 248 979 l 154 747 m 667 157 b 930 489 829 157 930 286 l 930 490 b 667 822 930 694 827 822 b 404 490 507 822 404 695 l 404 489 b 667 157 404 284 506 157 "},"Ύ":{"ha":1194,"x_min":0,"x_max":0,"o":"m 19 747 l 73 979 l 248 979 l 154 747 m 630 366 l 290 979 l 511 979 l 730 561 l 735 561 l 954 979 l 1176 979 l 835 366 l 835 0 l 630 0 "},"Ϋ":{"ha":924,"x_min":0,"x_max":0,"o":"m 320 1070 b 224 1164 266 1070 224 1113 b 320 1258 224 1215 266 1258 b 416 1164 375 1258 416 1215 b 320 1070 416 1113 375 1070 m 604 1070 b 508 1164 550 1070 508 1113 b 604 1258 508 1215 550 1258 b 701 1164 659 1258 701 1215 b 604 1070 701 1113 659 1070 m 359 366 l 19 979 l 240 979 l 460 561 l 465 561 l 684 979 l 905 979 l 564 366 l 564 0 l 359 0 "},"Ώ":{"ha":1197,"x_min":0,"x_max":0,"o":"m 192 169 l 390 169 l 390 174 b 192 549 264 251 192 386 l 192 550 b 666 996 192 814 384 996 b 1139 550 948 996 1139 814 l 1139 549 b 941 174 1139 386 1067 251 l 941 169 l 1139 169 l 1139 0 l 748 0 l 748 210 b 930 534 876 296 930 391 l 930 535 b 666 822 930 711 829 822 b 401 535 503 822 401 711 l 401 534 b 583 210 401 391 456 296 l 583 0 l 192 0 m 19 747 l 73 979 l 248 979 l 154 747 "},"Ϝ":{"ha":762,"x_min":0,"x_max":0,"o":"m 88 0 l 88 979 l 719 979 l 719 810 l 293 810 l 293 553 l 719 553 l 719 384 l 293 384 l 293 0 "},"∇":{"ha":945,"x_min":0,"x_max":0,"o":"m 910 862 l 593 0 l 353 0 l 36 862 l 36 979 l 910 979 m 266 810 l 266 805 l 477 181 l 481 181 l 694 805 l 694 810 "},"А":{"ha":972,"x_min":0,"x_max":0,"o":"m 366 979 l 606 979 l 948 0 l 732 0 l 659 237 l 313 237 l 239 0 l 24 0 m 360 391 l 611 391 l 488 789 l 484 789 "},"Ӑ":{"ha":972,"x_min":0,"x_max":0,"o":"m 492 1053 b 241 1265 338 1053 241 1134 l 241 1273 l 389 1273 l 389 1267 b 492 1168 389 1213 427 1168 b 595 1267 556 1168 595 1213 l 595 1273 l 743 1273 l 743 1265 b 492 1053 743 1134 646 1053 m 366 979 l 606 979 l 948 0 l 732 0 l 659 237 l 313 237 l 239 0 l 24 0 m 360 391 l 611 391 l 488 789 l 484 789 "},"Ӓ":{"ha":972,"x_min":0,"x_max":0,"o":"m 345 1070 b 248 1164 290 1070 248 1113 b 345 1258 248 1215 290 1258 b 441 1164 399 1258 441 1215 b 345 1070 441 1113 399 1070 m 628 1070 b 532 1164 574 1070 532 1113 b 628 1258 532 1215 574 1258 b 724 1164 683 1258 724 1215 b 628 1070 724 1113 683 1070 m 366 979 l 606 979 l 948 0 l 732 0 l 659 237 l 313 237 l 239 0 l 24 0 m 360 391 l 611 391 l 488 789 l 484 789 "},"Б":{"ha":886,"x_min":0,"x_max":0,"o":"m 88 979 l 739 979 l 739 810 l 293 810 l 293 611 l 483 611 b 829 309 687 611 829 490 l 829 308 b 490 0 829 123 690 0 l 88 0 m 439 163 b 620 308 553 163 620 214 l 620 309 b 438 455 620 404 553 455 l 293 455 l 293 163 "},"В":{"ha":899,"x_min":0,"x_max":0,"o":"m 87 979 l 513 979 b 813 733 697 979 813 884 l 813 732 b 624 519 813 625 731 533 l 624 515 b 859 280 760 505 859 408 l 859 279 b 520 0 859 107 729 0 l 87 0 m 292 827 l 292 570 l 435 570 b 612 703 549 570 612 618 l 612 704 b 460 827 612 782 555 827 m 292 431 l 292 153 l 467 153 b 649 292 585 153 649 201 l 649 293 b 458 431 649 382 584 431 "},"Г":{"ha":762,"x_min":0,"x_max":0,"o":"m 88 0 l 88 979 l 719 979 l 719 810 l 293 810 l 293 0 "},"Ѓ":{"ha":762,"x_min":0,"x_max":0,"o":"m 313 1059 l 431 1283 l 605 1283 l 445 1059 m 88 0 l 88 979 l 719 979 l 719 810 l 293 810 l 293 0 "},"Ґ":{"ha":762,"x_min":0,"x_max":0,"o":"m 88 0 l 88 979 l 534 979 l 534 1172 l 719 1172 l 719 810 l 392 810 l 293 810 l 293 0 "},"Ӷ":{"ha":762,"x_min":0,"x_max":0,"o":"m 230 0 l 88 0 l 88 979 l 719 979 l 719 810 l 293 810 l 293 169 l 415 169 l 415 -193 l 230 -193 "},"Ғ":{"ha":791,"x_min":0,"x_max":0,"o":"m 117 0 l 117 402 l 29 402 l 29 534 l 117 534 l 117 979 l 748 979 l 748 810 l 322 810 l 322 534 l 523 534 l 523 402 l 322 402 l 322 0 "},"Ӻ":{"ha":791,"x_min":0,"x_max":0,"o":"m 322 0 l 322 -13 b 74 -239 322 -163 239 -239 b -12 -235 40 -239 9 -237 l -12 -90 b 31 -92 0 -92 16 -92 b 117 -13 90 -92 117 -67 l 117 54 l 117 402 l 29 402 l 29 534 l 117 534 l 117 979 l 748 979 l 748 810 l 322 810 l 322 534 l 523 534 l 523 402 l 322 402 l 322 0 "},"Д":{"ha":1059,"x_min":0,"x_max":0,"o":"m 17 -193 l 17 169 l 85 169 b 182 425 154 216 174 293 l 216 979 l 909 979 l 909 169 l 1031 169 l 1031 -193 l 846 -193 l 846 0 l 203 0 l 203 -193 m 370 410 b 305 174 363 300 349 225 l 305 169 l 705 169 l 705 810 l 396 810 l 370 410 "},"Е":{"ha":806,"x_min":0,"x_max":0,"o":"m 87 979 l 735 979 l 735 810 l 292 810 l 292 575 l 710 575 l 710 415 l 292 415 l 292 169 l 735 169 l 735 0 l 87 0 "},"Ё":{"ha":806,"x_min":0,"x_max":0,"o":"m 269 1070 b 173 1164 215 1070 173 1113 b 269 1258 173 1215 215 1258 b 366 1164 323 1258 366 1215 b 269 1070 366 1113 323 1070 m 553 1070 b 456 1164 498 1070 456 1113 b 553 1258 456 1215 498 1258 b 649 1164 608 1258 649 1215 b 553 1070 649 1113 608 1070 m 87 979 l 735 979 l 735 810 l 292 810 l 292 575 l 710 575 l 710 415 l 292 415 l 292 169 l 735 169 l 735 0 l 87 0 "},"Ӗ":{"ha":806,"x_min":0,"x_max":0,"o":"m 417 1053 b 166 1265 263 1053 166 1134 l 166 1273 l 314 1273 l 314 1267 b 417 1168 314 1213 352 1168 b 520 1267 481 1168 520 1213 l 520 1273 l 668 1273 l 668 1265 b 417 1053 668 1134 571 1053 m 87 979 l 735 979 l 735 810 l 292 810 l 292 575 l 710 575 l 710 415 l 292 415 l 292 169 l 735 169 l 735 0 l 87 0 "},"Ѐ":{"ha":806,"x_min":0,"x_max":0,"o":"m 207 1283 l 380 1283 l 499 1059 l 368 1059 m 87 979 l 735 979 l 735 810 l 292 810 l 292 575 l 710 575 l 710 415 l 292 415 l 292 169 l 735 169 l 735 0 l 87 0 "},"Ж":{"ha":1403,"x_min":0,"x_max":0,"o":"m 826 574 l 1135 979 l 1363 979 l 994 515 l 1393 0 l 1142 0 l 826 418 l 799 418 l 799 0 l 602 0 l 602 418 l 575 418 l 259 0 l 10 0 l 408 513 l 37 979 l 267 979 l 575 574 l 602 574 l 602 979 l 799 979 l 799 574 "},"Ӂ":{"ha":1403,"x_min":0,"x_max":0,"o":"m 709 1053 b 458 1265 555 1053 458 1134 l 458 1273 l 606 1273 l 606 1267 b 709 1168 606 1213 644 1168 b 812 1267 773 1168 812 1213 l 812 1273 l 960 1273 l 960 1265 b 709 1053 960 1134 863 1053 m 826 574 l 1135 979 l 1363 979 l 994 515 l 1393 0 l 1142 0 l 826 418 l 799 418 l 799 0 l 602 0 l 602 418 l 575 418 l 259 0 l 10 0 l 408 513 l 37 979 l 267 979 l 575 574 l 602 574 l 602 979 l 799 979 l 799 574 "},"Ӝ":{"ha":1403,"x_min":0,"x_max":0,"o":"m 561 1070 b 465 1164 507 1070 465 1113 b 561 1258 465 1215 507 1258 b 657 1164 616 1258 657 1215 b 561 1070 657 1113 616 1070 m 845 1070 b 749 1164 791 1070 749 1113 b 845 1258 749 1215 791 1258 b 941 1164 899 1258 941 1215 b 845 1070 941 1113 899 1070 m 826 574 l 1135 979 l 1363 979 l 994 515 l 1393 0 l 1142 0 l 826 418 l 799 418 l 799 0 l 602 0 l 602 418 l 575 418 l 259 0 l 10 0 l 408 513 l 37 979 l 267 979 l 575 574 l 602 574 l 602 979 l 799 979 l 799 574 "},"Җ":{"ha":1440,"x_min":0,"x_max":0,"o":"m 826 574 l 1135 979 l 1363 979 l 994 515 l 1261 169 l 1413 169 l 1413 -193 l 1227 -193 l 1227 0 l 1141 0 l 1141 1 l 826 418 l 799 418 l 799 0 l 602 0 l 602 418 l 575 418 l 259 0 l 10 0 l 408 513 l 37 979 l 267 979 l 575 574 l 602 574 l 602 979 l 799 979 l 799 574 "},"З":{"ha":876,"x_min":0,"x_max":0,"o":"m 302 580 l 433 580 b 600 710 535 580 600 631 l 600 711 b 437 825 600 783 541 825 b 262 712 334 825 271 784 l 262 704 l 71 704 l 72 712 b 441 996 79 886 222 996 b 795 736 654 996 795 891 l 795 735 b 612 515 795 627 722 538 l 612 509 b 827 272 744 494 827 401 l 827 271 b 437 -17 827 103 665 -17 b 50 271 210 -17 56 100 l 50 278 l 247 278 l 248 272 b 439 153 256 196 326 153 b 618 284 547 153 618 205 l 618 286 b 435 420 618 370 550 420 l 302 420 "},"Ӟ":{"ha":876,"x_min":0,"x_max":0,"o":"m 298 1070 b 201 1164 243 1070 201 1113 b 298 1258 201 1215 243 1258 b 394 1164 352 1258 394 1215 b 298 1070 394 1113 352 1070 m 581 1070 b 485 1164 527 1070 485 1113 b 581 1258 485 1215 527 1258 b 677 1164 636 1258 677 1215 b 581 1070 677 1113 636 1070 m 302 580 l 433 580 b 600 710 535 580 600 631 l 600 711 b 437 825 600 783 541 825 b 262 712 334 825 271 784 l 262 704 l 71 704 l 72 712 b 441 996 79 886 222 996 b 795 736 654 996 795 891 l 795 735 b 612 515 795 627 722 538 l 612 509 b 827 272 744 494 827 401 l 827 271 b 437 -17 827 103 665 -17 b 50 271 210 -17 56 100 l 50 278 l 247 278 l 248 272 b 439 153 256 196 326 153 b 618 284 547 153 618 205 l 618 286 b 435 420 618 370 550 420 l 302 420 "},"Ҙ":{"ha":876,"x_min":0,"x_max":0,"o":"m 302 580 l 433 580 b 600 710 535 580 600 631 l 600 711 b 437 825 600 783 541 825 b 262 712 334 825 271 784 l 262 704 l 71 704 l 72 712 b 441 996 79 886 222 996 b 795 736 654 996 795 891 l 795 735 b 612 515 795 627 722 538 l 612 509 b 827 272 744 494 827 401 l 827 271 b 527 -10 827 126 706 17 l 527 -194 l 342 -194 l 342 -9 b 50 271 168 18 55 125 l 50 278 l 247 278 l 248 272 b 439 153 256 196 326 153 b 618 284 547 153 618 205 l 618 286 b 435 420 618 370 550 420 l 302 420 "},"Ԑ":{"ha":876,"x_min":0,"x_max":0,"o":"m 441 420 b 258 286 326 420 258 370 l 258 284 b 437 153 258 205 329 153 b 629 272 551 153 620 196 l 629 278 l 827 278 l 827 271 b 439 -17 821 100 666 -17 b 50 271 212 -17 50 103 l 50 272 b 264 509 50 401 132 494 l 264 515 b 81 735 155 538 81 627 l 81 736 b 435 996 81 891 222 996 b 804 712 654 996 797 886 l 805 704 l 614 704 l 614 712 b 439 825 605 784 542 825 b 277 711 336 825 277 783 l 277 710 b 443 580 277 631 341 580 l 574 580 l 574 420 "},"И":{"ha":1006,"x_min":0,"x_max":0,"o":"m 88 979 l 292 979 l 292 336 l 294 336 l 739 979 l 918 979 l 918 0 l 713 0 l 713 646 l 711 646 l 266 0 l 88 0 "},"Й":{"ha":1006,"x_min":0,"x_max":0,"o":"m 511 1053 b 260 1265 357 1053 260 1134 l 260 1273 l 408 1273 l 408 1267 b 511 1168 408 1213 446 1168 b 614 1267 574 1168 614 1213 l 614 1273 l 762 1273 l 762 1265 b 511 1053 762 1134 665 1053 m 88 979 l 292 979 l 292 336 l 294 336 l 739 979 l 918 979 l 918 0 l 713 0 l 713 646 l 711 646 l 266 0 l 88 0 "},"Ѝ":{"ha":1006,"x_min":0,"x_max":0,"o":"m 300 1283 l 474 1283 l 593 1059 l 461 1059 m 88 979 l 292 979 l 292 336 l 294 336 l 739 979 l 918 979 l 918 0 l 713 0 l 713 646 l 711 646 l 266 0 l 88 0 "},"Ӣ":{"ha":1006,"x_min":0,"x_max":0,"o":"m 294 1225 l 714 1225 l 714 1103 l 294 1103 m 88 979 l 292 979 l 292 336 l 294 336 l 739 979 l 918 979 l 918 0 l 713 0 l 713 646 l 711 646 l 266 0 l 88 0 "},"Ӥ":{"ha":1006,"x_min":0,"x_max":0,"o":"m 363 1070 b 267 1164 309 1070 267 1113 b 363 1258 267 1215 309 1258 b 459 1164 417 1258 459 1215 b 363 1070 459 1113 417 1070 m 646 1070 b 550 1164 592 1070 550 1113 b 646 1258 550 1215 592 1258 b 743 1164 701 1258 743 1215 b 646 1070 743 1113 701 1070 m 88 979 l 292 979 l 292 336 l 294 336 l 739 979 l 918 979 l 918 0 l 713 0 l 713 646 l 711 646 l 266 0 l 88 0 "},"Ҋ":{"ha":1053,"x_min":0,"x_max":0,"o":"m 511 1053 b 260 1265 357 1053 260 1134 l 260 1273 l 408 1273 l 408 1267 b 511 1168 408 1213 446 1168 b 614 1267 574 1168 614 1213 l 614 1273 l 762 1273 l 762 1265 b 511 1053 762 1134 665 1053 m 88 979 l 292 979 l 292 336 l 294 336 l 739 979 l 918 979 l 918 169 l 1039 169 l 1039 127 l 958 -193 l 777 -193 l 831 0 l 713 0 l 713 646 l 711 646 l 266 0 l 88 0 "},"К":{"ha":941,"x_min":0,"x_max":0,"o":"m 88 0 l 88 979 l 293 979 l 293 574 l 327 574 l 665 979 l 897 979 l 500 515 l 928 0 l 674 0 l 327 418 l 293 418 l 293 0 "},"Ќ":{"ha":941,"x_min":0,"x_max":0,"o":"m 357 1059 l 475 1283 l 648 1283 l 488 1059 m 88 0 l 88 979 l 293 979 l 293 574 l 327 574 l 665 979 l 897 979 l 500 515 l 928 0 l 674 0 l 327 418 l 293 418 l 293 0 "},"Қ":{"ha":970,"x_min":0,"x_max":0,"o":"m 88 0 l 88 979 l 293 979 l 293 574 l 327 574 l 665 979 l 897 979 l 500 515 l 788 169 l 940 169 l 940 -193 l 755 -193 l 755 0 l 669 0 l 669 7 l 327 418 l 293 418 l 293 0 "},"Ҝ":{"ha":1011,"x_min":0,"x_max":0,"o":"m 88 0 l 88 979 l 293 979 l 293 574 l 374 574 l 374 790 l 481 790 l 481 574 l 492 574 l 751 979 l 960 979 l 656 512 l 998 0 l 760 0 l 493 418 l 481 418 l 481 203 l 374 203 l 374 418 l 293 418 l 293 0 "},"Ҟ":{"ha":970,"x_min":0,"x_max":0,"o":"m 117 0 l 117 741 l 29 741 l 29 873 l 117 873 l 117 979 l 322 979 l 322 873 l 422 873 l 422 741 l 322 741 l 322 574 l 356 574 l 694 979 l 926 979 l 530 515 l 958 0 l 703 0 l 356 418 l 322 418 l 322 0 "},"Ҡ":{"ha":1107,"x_min":0,"x_max":0,"o":"m 254 0 l 254 810 l 34 810 l 34 979 l 458 979 l 458 574 l 492 574 l 831 979 l 1062 979 l 666 515 l 1094 0 l 840 0 l 492 418 l 458 418 l 458 0 "},"Ӄ":{"ha":952,"x_min":0,"x_max":0,"o":"m 476 -284 b 393 -277 444 -284 412 -281 l 393 -113 b 450 -116 410 -115 427 -116 b 663 123 580 -116 663 -21 l 663 124 b 334 393 663 290 536 393 l 315 393 l 315 0 l 111 0 l 111 979 l 315 979 l 315 562 l 322 562 l 689 979 l 917 979 l 522 532 b 872 126 742 480 872 329 l 872 125 b 476 -284 872 -106 711 -284 "},"Л":{"ha":1001,"x_min":0,"x_max":0,"o":"m 104 -9 b 31 0 71 -9 44 -4 l 31 179 b 76 174 40 177 58 174 b 205 400 167 174 198 253 l 235 979 l 913 979 l 913 0 l 708 0 l 708 810 l 418 810 l 394 387 b 104 -9 380 133 300 -9 "},"Ӆ":{"ha":1047,"x_min":0,"x_max":0,"o":"m 104 -9 b 31 0 71 -9 44 -4 l 31 179 b 76 174 40 177 58 174 b 205 400 167 174 198 253 l 235 979 l 913 979 l 913 169 l 1034 169 l 1034 127 l 952 -193 l 771 -193 l 825 0 l 708 0 l 708 810 l 418 810 l 394 387 b 104 -9 380 133 300 -9 "},"Ԯ":{"ha":1062,"x_min":0,"x_max":0,"o":"m 104 -9 b 31 0 71 -9 44 -4 l 31 179 b 76 174 40 177 58 174 b 205 400 167 174 198 253 l 235 979 l 913 979 l 913 169 l 1035 169 l 1035 -193 l 850 -193 l 850 0 l 708 0 l 708 810 l 418 810 l 394 387 b 104 -9 380 133 300 -9 "},"Ԓ":{"ha":1001,"x_min":0,"x_max":0,"o":"m 104 -9 b 31 0 71 -9 44 -4 l 31 179 b 76 174 40 177 58 174 b 205 400 167 174 198 253 l 235 979 l 913 979 l 913 -13 b 665 -239 913 -163 830 -239 b 580 -235 631 -239 600 -237 l 580 -90 b 623 -92 591 -92 606 -92 b 708 -13 681 -92 708 -67 l 708 810 l 418 810 l 394 387 b 104 -9 380 133 300 -9 "},"М":{"ha":1206,"x_min":0,"x_max":0,"o":"m 87 979 l 323 979 l 601 275 l 606 275 l 883 979 l 1120 979 l 1120 0 l 937 0 l 937 662 l 932 662 l 667 0 l 539 0 l 275 662 l 269 662 l 269 0 l 87 0 "},"Ӎ":{"ha":1276,"x_min":0,"x_max":0,"o":"m 87 979 l 323 979 l 601 275 l 606 275 l 883 979 l 1120 979 l 1120 169 l 1263 169 l 1263 127 l 1181 -193 l 1000 -193 l 1055 0 l 937 0 l 937 662 l 932 662 l 667 0 l 539 0 l 275 662 l 269 662 l 269 0 l 87 0 "},"Н":{"ha":1023,"x_min":0,"x_max":0,"o":"m 87 979 l 292 979 l 292 581 l 732 581 l 732 979 l 937 979 l 937 0 l 732 0 l 732 412 l 292 412 l 292 0 l 87 0 "},"Ӈ":{"ha":1023,"x_min":0,"x_max":0,"o":"m 87 979 l 292 979 l 292 581 l 732 581 l 732 979 l 937 979 l 937 -13 b 689 -239 937 -163 854 -239 b 604 -235 655 -239 624 -237 l 604 -90 b 646 -92 615 -92 631 -92 b 732 -13 705 -92 732 -67 l 732 412 l 292 412 l 292 0 l 87 0 "},"Ң":{"ha":1086,"x_min":0,"x_max":0,"o":"m 87 979 l 292 979 l 292 581 l 732 581 l 732 979 l 937 979 l 937 169 l 1059 169 l 1059 -193 l 874 -193 l 874 0 l 732 0 l 732 412 l 292 412 l 292 0 l 87 0 "},"Ӊ":{"ha":1072,"x_min":0,"x_max":0,"o":"m 87 979 l 292 979 l 292 581 l 732 581 l 732 979 l 937 979 l 937 169 l 1058 169 l 1058 127 l 976 -193 l 795 -193 l 849 0 l 732 0 l 732 412 l 292 412 l 292 0 l 87 0 "},"Ҥ":{"ha":1400,"x_min":0,"x_max":0,"o":"m 81 979 l 286 979 l 286 581 l 727 581 l 727 979 l 1358 979 l 1358 810 l 932 810 l 932 0 l 727 0 l 727 412 l 286 412 l 286 0 l 81 0 "},"О":{"ha":1055,"x_min":0,"x_max":0,"o":"m 528 -17 b 56 489 237 -17 56 178 l 56 490 b 528 996 56 802 238 996 b 1000 490 818 996 1000 801 l 1000 489 b 528 -17 1000 178 819 -17 m 528 157 b 791 489 690 157 791 286 l 791 490 b 528 822 791 694 688 822 b 264 490 368 822 264 695 l 264 489 b 528 157 264 284 367 157 "},"Ӧ":{"ha":1055,"x_min":0,"x_max":0,"o":"m 386 1070 b 290 1164 332 1070 290 1113 b 386 1258 290 1215 332 1258 b 482 1164 441 1258 482 1215 b 386 1070 482 1113 441 1070 m 670 1070 b 574 1164 616 1070 574 1113 b 670 1258 574 1215 616 1258 b 766 1164 724 1258 766 1215 b 670 1070 766 1113 724 1070 m 528 -17 b 56 489 237 -17 56 178 l 56 490 b 528 996 56 802 238 996 b 1000 490 818 996 1000 801 l 1000 489 b 528 -17 1000 178 819 -17 m 528 157 b 791 489 690 157 791 286 l 791 490 b 528 822 791 694 688 822 b 264 490 368 822 264 695 l 264 489 b 528 157 264 284 367 157 "},"Ө":{"ha":1055,"x_min":0,"x_max":0,"o":"m 528 -17 b 56 489 237 -17 56 178 l 56 490 b 528 996 56 802 238 996 b 1000 490 818 996 1000 801 l 1000 489 b 528 -17 1000 178 819 -17 m 528 822 b 269 566 388 822 292 726 l 786 566 b 528 822 764 725 667 822 m 528 157 b 788 433 675 157 771 262 l 267 433 b 528 157 284 261 382 157 "},"Ӫ":{"ha":1055,"x_min":0,"x_max":0,"o":"m 386 1070 b 290 1164 332 1070 290 1113 b 386 1258 290 1215 332 1258 b 482 1164 441 1258 482 1215 b 386 1070 482 1113 441 1070 m 670 1070 b 574 1164 616 1070 574 1113 b 670 1258 574 1215 616 1258 b 766 1164 724 1258 766 1215 b 670 1070 766 1113 724 1070 m 528 -17 b 56 489 237 -17 56 178 l 56 490 b 528 996 56 802 238 996 b 1000 490 818 996 1000 801 l 1000 489 b 528 -17 1000 178 819 -17 m 528 822 b 269 566 388 822 292 726 l 786 566 b 528 822 764 725 667 822 m 528 157 b 788 433 675 157 771 262 l 267 433 b 528 157 284 261 382 157 "},"Ѳ":{"ha":1056,"x_min":0,"x_max":0,"o":"m 529 -17 b 58 489 240 -17 58 176 l 58 490 b 529 996 58 802 241 996 b 999 490 817 996 999 802 l 999 489 b 529 -17 999 176 817 -17 m 386 598 b 673 536 507 598 572 536 b 785 578 724 536 763 552 b 529 824 759 730 664 824 b 269 556 387 824 289 722 b 386 598 301 583 342 598 m 529 155 b 788 428 671 155 770 259 b 665 385 753 399 710 385 b 378 447 543 385 477 447 b 271 406 332 447 292 430 b 529 155 295 250 391 155 "},"П":{"ha":1023,"x_min":0,"x_max":0,"o":"m 730 0 l 730 810 l 293 810 l 293 0 l 88 0 l 88 979 l 935 979 l 935 0 "},"Ԥ":{"ha":1085,"x_min":0,"x_max":0,"o":"m 873 0 l 730 0 l 730 810 l 293 810 l 293 0 l 88 0 l 88 979 l 935 979 l 935 169 l 1058 169 l 1058 -193 l 873 -193 "},"Џ":{"ha":1023,"x_min":0,"x_max":0,"o":"m 293 979 l 293 169 l 730 169 l 730 979 l 935 979 l 935 0 l 604 0 l 604 -194 l 420 -194 l 420 0 l 88 0 l 88 979 "},"Р":{"ha":868,"x_min":0,"x_max":0,"o":"m 87 979 l 479 979 b 823 644 686 979 823 846 l 823 643 b 479 309 823 441 686 309 l 292 309 l 292 0 l 87 0 m 292 817 l 292 469 l 430 469 b 616 642 547 469 616 531 l 616 644 b 430 817 616 755 547 817 "},"Ҏ":{"ha":858,"x_min":0,"x_max":0,"o":"m 81 979 l 475 979 b 819 644 681 979 819 846 l 819 643 b 604 328 819 487 736 373 l 667 175 l 551 128 l 477 309 l 286 309 l 286 0 l 81 0 m 286 817 l 286 469 l 425 469 l 362 623 l 456 661 l 526 490 b 611 642 581 516 611 568 l 611 644 b 425 817 611 755 542 817 "},"С":{"ha":1000,"x_min":0,"x_max":0,"o":"m 522 -17 b 56 490 235 -17 56 174 l 56 490 b 522 996 56 806 236 996 b 948 638 760 996 930 846 l 949 632 l 749 632 l 747 644 b 522 822 724 751 644 822 b 265 491 365 822 265 696 l 265 490 b 522 157 265 284 366 157 b 749 340 640 157 723 224 l 750 347 l 949 347 l 949 340 b 522 -17 930 132 759 -17 "},"Ҫ":{"ha":1000,"x_min":0,"x_max":0,"o":"m 949 340 b 614 -9 932 160 802 24 l 614 -194 l 430 -194 l 430 -10 b 56 490 197 27 56 210 l 56 490 b 522 996 56 806 236 996 b 948 638 760 996 930 846 l 949 632 l 749 632 l 747 644 b 522 822 724 751 644 822 b 265 491 365 822 265 696 l 265 490 b 522 157 265 284 366 157 b 749 340 640 157 723 224 l 750 347 l 949 347 l 949 340 "},"Т":{"ha":846,"x_min":0,"x_max":0,"o":"m 321 810 l 37 810 l 37 979 l 808 979 l 808 810 l 526 810 l 526 0 l 321 0 "},"Ҭ":{"ha":846,"x_min":0,"x_max":0,"o":"m 321 810 l 37 810 l 37 979 l 808 979 l 808 810 l 526 810 l 526 169 l 648 169 l 648 -193 l 463 -193 l 463 0 l 321 0 "},"У":{"ha":906,"x_min":0,"x_max":0,"o":"m 237 -9 b 153 1 195 -9 158 -1 l 153 168 b 212 161 166 165 189 161 b 351 233 272 161 316 180 l 26 979 l 243 979 l 456 435 l 465 435 l 668 979 l 884 979 l 584 280 b 237 -9 498 81 412 -9 "},"Ў":{"ha":906,"x_min":0,"x_max":0,"o":"m 463 1053 b 212 1265 309 1053 212 1134 l 212 1273 l 360 1273 l 360 1267 b 463 1168 360 1213 398 1168 b 566 1267 527 1168 566 1213 l 566 1273 l 714 1273 l 714 1265 b 463 1053 714 1134 617 1053 m 237 -9 b 153 1 195 -9 158 -1 l 153 168 b 212 161 166 165 189 161 b 351 233 272 161 316 180 l 26 979 l 243 979 l 456 435 l 465 435 l 668 979 l 884 979 l 584 280 b 237 -9 498 81 412 -9 "},"Ӯ":{"ha":906,"x_min":0,"x_max":0,"o":"m 247 1225 l 667 1225 l 667 1103 l 247 1103 m 237 -9 b 153 1 195 -9 158 -1 l 153 168 b 212 161 166 165 189 161 b 351 233 272 161 316 180 l 26 979 l 243 979 l 456 435 l 465 435 l 668 979 l 884 979 l 584 280 b 237 -9 498 81 412 -9 "},"Ӱ":{"ha":906,"x_min":0,"x_max":0,"o":"m 315 1070 b 219 1164 261 1070 219 1113 b 315 1258 219 1215 261 1258 b 412 1164 370 1258 412 1215 b 315 1070 412 1113 370 1070 m 599 1070 b 503 1164 545 1070 503 1113 b 599 1258 503 1215 545 1258 b 695 1164 654 1258 695 1215 b 599 1070 695 1113 654 1070 m 237 -9 b 153 1 195 -9 158 -1 l 153 168 b 212 161 166 165 189 161 b 351 233 272 161 316 180 l 26 979 l 243 979 l 456 435 l 465 435 l 668 979 l 884 979 l 584 280 b 237 -9 498 81 412 -9 "},"Ӳ":{"ha":906,"x_min":0,"x_max":0,"o":"m 254 1059 l 356 1283 l 530 1283 l 385 1059 m 498 1059 l 616 1283 l 789 1283 l 629 1059 m 237 -9 b 153 1 195 -9 158 -1 l 153 168 b 212 161 166 165 189 161 b 351 233 272 161 316 180 l 26 979 l 243 979 l 456 435 l 465 435 l 668 979 l 884 979 l 584 280 b 237 -9 498 81 412 -9 "},"Ү":{"ha":934,"x_min":0,"x_max":0,"o":"m 365 366 l 24 979 l 245 979 l 465 561 l 469 561 l 689 979 l 910 979 l 570 366 l 570 0 l 365 0 "},"Ұ":{"ha":934,"x_min":0,"x_max":0,"o":"m 126 451 l 317 451 l 24 979 l 245 979 l 465 561 l 469 561 l 689 979 l 910 979 l 617 451 l 808 451 l 808 319 l 570 319 l 570 0 l 365 0 l 365 319 l 126 319 "},"Ф":{"ha":1199,"x_min":0,"x_max":0,"o":"m 498 84 b 48 490 227 93 48 244 l 48 492 b 498 898 48 740 227 890 l 498 989 l 701 989 l 701 898 b 1152 492 973 890 1152 740 l 1152 490 b 701 84 1152 244 972 93 l 701 -10 l 498 -10 m 257 490 b 500 249 257 347 351 256 l 500 734 b 257 492 351 727 257 636 l 257 490 m 699 249 b 943 490 848 256 943 347 l 943 492 b 699 734 943 636 848 727 "},"Х":{"ha":962,"x_min":0,"x_max":0,"o":"m 345 493 l 345 495 l 36 979 l 277 979 l 485 626 l 493 626 l 699 979 l 928 979 l 608 492 l 608 489 l 924 0 l 690 0 l 476 343 l 469 343 l 256 0 l 35 0 "},"Ҳ":{"ha":989,"x_min":0,"x_max":0,"o":"m 345 493 l 345 495 l 36 979 l 277 979 l 485 626 l 493 626 l 699 979 l 928 979 l 608 492 l 608 489 l 814 169 l 962 169 l 962 -193 l 777 -193 l 777 0 l 690 0 l 476 343 l 469 343 l 256 0 l 35 0 "},"Ӿ":{"ha":962,"x_min":0,"x_max":0,"o":"m 301 424 l 101 424 l 101 556 l 307 556 l 36 979 l 277 979 l 485 626 l 493 626 l 699 979 l 928 979 l 650 556 l 861 556 l 861 424 l 650 424 l 924 0 l 690 0 l 476 343 l 469 343 l 256 0 l 35 0 "},"Ӽ":{"ha":964,"x_min":0,"x_max":0,"o":"m 637 -276 b 552 -270 603 -276 572 -273 l 552 -107 b 599 -111 568 -110 582 -111 b 686 -39 652 -111 686 -83 b 634 93 686 -2 673 31 l 477 343 l 473 343 l 257 0 l 36 0 l 347 491 l 347 495 l 38 979 l 279 979 l 487 626 l 492 626 l 701 979 l 930 979 l 609 492 l 609 488 l 798 195 b 890 -50 861 98 890 37 b 637 -276 890 -186 789 -276 "},"Ц":{"ha":1085,"x_min":0,"x_max":0,"o":"m 873 0 l 88 0 l 88 979 l 293 979 l 293 169 l 730 169 l 730 979 l 935 979 l 935 169 l 1058 169 l 1058 -193 l 873 -193 "},"Ҵ":{"ha":1258,"x_min":0,"x_max":0,"o":"m 33 979 l 694 979 l 694 810 l 467 810 l 467 169 l 904 169 l 904 979 l 1109 979 l 1109 169 l 1232 169 l 1232 -193 l 1046 -193 l 1046 0 l 262 0 l 262 810 l 33 810 "},"Ч":{"ha":975,"x_min":0,"x_max":0,"o":"m 682 398 l 677 398 b 447 338 649 379 570 338 b 73 701 206 338 73 491 l 73 979 l 278 979 l 278 714 b 484 511 278 587 350 511 b 682 573 572 511 640 537 l 682 979 l 886 979 l 886 0 l 682 0 "},"Ӵ":{"ha":975,"x_min":0,"x_max":0,"o":"m 337 1070 b 241 1164 283 1070 241 1113 b 337 1258 241 1215 283 1258 b 433 1164 392 1258 433 1215 b 337 1070 433 1113 392 1070 m 621 1070 b 525 1164 567 1070 525 1113 b 621 1258 525 1215 567 1258 b 718 1164 675 1258 718 1215 b 621 1070 718 1113 675 1070 m 682 398 l 677 398 b 447 338 649 379 570 338 b 73 701 206 338 73 491 l 73 979 l 278 979 l 278 714 b 484 511 278 587 350 511 b 682 573 572 511 640 537 l 682 979 l 886 979 l 886 0 l 682 0 "},"Ҷ":{"ha":1036,"x_min":0,"x_max":0,"o":"m 682 398 l 677 398 b 447 338 649 379 570 338 b 73 701 206 338 73 491 l 73 979 l 278 979 l 278 714 b 484 511 278 587 350 511 b 682 573 572 511 640 537 l 682 979 l 886 979 l 886 169 l 1008 169 l 1008 -193 l 823 -193 l 823 0 l 682 0 "},"Ӌ":{"ha":975,"x_min":0,"x_max":0,"o":"m 559 -193 l 559 155 l 682 155 l 682 398 l 677 398 b 447 338 649 379 570 338 b 73 701 206 338 73 491 l 73 979 l 278 979 l 278 714 b 484 511 278 587 350 511 b 682 573 572 511 640 537 l 682 979 l 886 979 l 886 0 l 745 0 l 745 -193 "},"Ҹ":{"ha":1027,"x_min":0,"x_max":0,"o":"m 457 338 b 73 701 201 344 73 495 l 73 979 l 278 979 l 278 714 b 457 515 278 602 334 530 l 457 758 l 564 758 l 564 514 b 734 573 642 521 701 543 l 734 979 l 939 979 l 939 0 l 734 0 l 734 398 l 730 398 b 564 344 708 383 652 356 l 564 171 l 457 171 "},"Ҩ":{"ha":1344,"x_min":0,"x_max":0,"o":"m 610 -16 b 58 500 274 -16 58 189 l 58 501 b 509 996 58 769 240 971 l 509 814 b 264 498 353 780 264 656 l 264 496 b 611 154 264 288 411 154 b 692 159 640 154 667 156 b 531 505 589 248 531 364 l 531 507 b 873 868 531 713 667 868 b 1215 522 1080 868 1215 731 l 1215 521 b 1038 155 1215 374 1143 240 b 1103 150 1059 151 1081 150 b 1286 191 1164 150 1229 164 l 1286 17 b 1102 -17 1236 -5 1171 -17 b 859 43 1009 -17 931 2 b 610 -16 783 3 703 -16 m 728 513 b 871 229 728 397 781 297 b 1017 519 961 292 1017 397 l 1017 520 b 873 700 1017 625 960 700 b 728 515 779 700 728 621 l 728 513 "},"Ҽ":{"ha":1211,"x_min":0,"x_max":0,"o":"m 726 -17 b 264 450 452 -17 277 161 b 10 673 109 454 10 540 b 34 788 10 718 21 764 l 198 788 b 178 698 188 765 178 731 b 272 606 178 640 212 608 b 713 996 312 845 477 996 b 1154 522 988 996 1154 817 b 1152 450 1154 502 1153 471 l 472 450 l 472 439 b 727 157 472 267 571 157 b 938 276 834 157 910 198 l 940 281 l 1144 281 l 1143 275 b 726 -17 1112 103 941 -17 m 710 822 b 475 601 586 822 494 733 l 938 601 l 937 610 b 710 822 928 740 838 822 "},"Ҿ":{"ha":1211,"x_min":0,"x_max":0,"o":"m 1143 275 b 820 -9 1116 129 989 20 l 820 -194 l 635 -194 l 635 -10 b 264 450 414 26 276 195 b 10 673 109 454 10 540 b 34 788 10 718 21 764 l 198 788 b 178 698 188 765 178 731 b 272 606 178 640 212 608 b 713 996 312 845 477 996 b 1154 522 988 996 1154 817 b 1152 450 1154 502 1153 471 l 472 450 l 472 439 b 727 157 472 267 571 157 b 938 276 834 157 910 198 l 940 281 l 1144 281 l 1143 275 m 710 822 b 475 601 586 822 494 733 l 938 601 l 937 610 b 710 822 928 740 838 822 "},"Һ":{"ha":986,"x_min":0,"x_max":0,"o":"m 88 979 l 293 979 l 293 589 l 301 589 b 533 654 357 627 440 654 b 901 290 765 654 901 501 l 901 0 l 696 0 l 696 279 b 493 481 696 406 625 481 b 293 403 404 481 332 452 l 293 0 l 88 0 "},"Ԧ":{"ha":1050,"x_min":0,"x_max":0,"o":"m 88 979 l 293 979 l 293 589 l 301 589 b 533 654 357 627 440 654 b 901 290 765 654 901 501 l 901 169 l 1023 169 l 1023 -193 l 838 -193 l 838 0 l 696 0 l 696 279 b 493 481 696 406 625 481 b 293 403 404 481 332 452 l 293 0 l 88 0 "},"Ш":{"ha":1347,"x_min":0,"x_max":0,"o":"m 88 979 l 293 979 l 293 170 l 571 170 l 571 979 l 776 979 l 776 170 l 1054 170 l 1054 979 l 1259 979 l 1259 1 l 88 1 "},"Щ":{"ha":1409,"x_min":0,"x_max":0,"o":"m 88 979 l 293 979 l 293 170 l 571 170 l 571 979 l 776 979 l 776 170 l 1054 170 l 1054 979 l 1259 979 l 1259 169 l 1381 169 l 1381 -193 l 1196 -193 l 1196 0 l 1055 0 l 1055 1 l 88 1 "},"Ъ":{"ha":1043,"x_min":0,"x_max":0,"o":"m 254 810 l 34 810 l 34 979 l 458 979 l 458 650 l 648 650 b 998 326 854 650 998 519 l 998 325 b 659 0 998 130 860 0 l 254 0 m 458 489 l 458 163 l 604 163 b 789 325 721 163 789 220 l 789 326 b 604 489 789 431 720 489 "},"Ы":{"ha":1236,"x_min":0,"x_max":0,"o":"m 88 979 l 293 979 l 293 650 l 483 650 b 832 326 689 650 832 519 l 832 325 b 493 0 832 130 694 0 l 88 0 m 944 979 l 1149 979 l 1149 0 l 944 0 m 293 489 l 293 163 l 439 163 b 623 325 555 163 623 220 l 623 326 b 438 489 623 431 555 489 "},"Ӹ":{"ha":1236,"x_min":0,"x_max":0,"o":"m 477 1070 b 380 1164 422 1070 380 1113 b 477 1258 380 1215 422 1258 b 573 1164 532 1258 573 1215 b 477 1070 573 1113 532 1070 m 761 1070 b 665 1164 707 1070 665 1113 b 761 1258 665 1215 707 1258 b 857 1164 815 1258 857 1215 b 761 1070 857 1113 815 1070 m 88 979 l 293 979 l 293 650 l 483 650 b 832 326 689 650 832 519 l 832 325 b 493 0 832 130 694 0 l 88 0 m 944 979 l 1149 979 l 1149 0 l 944 0 m 293 489 l 293 163 l 439 163 b 623 325 555 163 623 220 l 623 326 b 438 489 623 431 555 489 "},"Ҍ":{"ha":907,"x_min":0,"x_max":0,"o":"m 117 792 l 29 792 l 29 899 l 117 899 l 117 1031 l 322 1031 l 322 899 l 523 899 l 523 792 l 322 792 l 322 644 l 513 644 b 861 323 719 644 861 514 l 861 321 b 524 0 861 129 724 0 l 117 0 m 322 482 l 322 163 l 469 163 b 652 321 585 163 652 220 l 652 323 b 469 482 652 426 585 482 "},"Ѣ":{"ha":1082,"x_min":0,"x_max":0,"o":"m 293 770 l 38 770 l 38 922 l 293 922 l 293 1031 l 498 1031 l 498 922 l 809 922 l 809 770 l 498 770 l 498 636 l 690 636 b 1036 319 895 636 1036 509 l 1036 318 b 701 0 1036 127 900 0 l 293 0 m 498 475 l 498 163 l 646 163 b 827 318 761 163 827 218 l 827 319 b 645 475 827 420 760 475 "},"Ь":{"ha":878,"x_min":0,"x_max":0,"o":"m 88 979 l 293 979 l 293 650 l 483 650 b 832 326 689 650 832 519 l 832 325 b 493 0 832 130 694 0 l 88 0 m 293 489 l 293 163 l 439 163 b 623 325 555 163 623 220 l 623 326 b 438 489 623 431 555 489 "},"Љ":{"ha":1497,"x_min":0,"x_max":0,"o":"m 104 -9 b 31 0 71 -9 44 -4 l 31 179 b 76 174 40 177 58 174 b 205 400 167 174 198 253 l 235 979 l 913 979 l 913 650 l 1103 650 b 1452 326 1309 650 1452 519 l 1452 325 b 1113 0 1452 130 1314 0 l 708 0 l 708 810 l 418 810 l 394 387 b 104 -9 380 133 300 -9 m 913 489 l 913 163 l 1059 163 b 1243 325 1175 163 1243 220 l 1243 326 b 1058 489 1243 431 1175 489 "},"Њ":{"ha":1522,"x_min":0,"x_max":0,"o":"m 87 979 l 292 979 l 292 581 l 732 581 l 732 979 l 937 979 l 937 650 l 1126 650 b 1476 326 1333 650 1476 519 l 1476 325 b 1137 0 1476 130 1338 0 l 732 0 l 732 412 l 292 412 l 292 0 l 87 0 m 937 489 l 937 163 l 1083 163 b 1267 325 1199 163 1267 220 l 1267 326 b 1082 489 1267 431 1198 489 "},"Э":{"ha":1002,"x_min":0,"x_max":0,"o":"m 480 -17 b 53 323 246 -17 71 123 l 52 330 l 252 330 l 254 322 b 480 153 283 212 364 153 b 732 417 622 153 713 250 l 344 417 l 344 576 l 731 576 b 481 825 708 734 618 825 b 254 657 364 825 283 766 l 252 648 l 53 648 l 54 655 b 480 996 71 854 247 996 b 946 490 768 996 946 803 l 946 490 b 480 -17 946 176 768 -17 "},"Ӭ":{"ha":1002,"x_min":0,"x_max":0,"o":"m 339 1070 b 243 1164 285 1070 243 1113 b 339 1258 243 1215 285 1258 b 435 1164 394 1258 435 1215 b 339 1070 435 1113 394 1070 m 623 1070 b 527 1164 569 1070 527 1113 b 623 1258 527 1215 569 1258 b 720 1164 677 1258 720 1215 b 623 1070 720 1113 677 1070 m 480 -17 b 53 323 246 -17 71 123 l 52 330 l 252 330 l 254 322 b 480 153 283 212 364 153 b 732 417 622 153 713 250 l 344 417 l 344 576 l 731 576 b 481 825 708 734 618 825 b 254 657 364 825 283 766 l 252 648 l 53 648 l 54 655 b 480 996 71 854 247 996 b 946 490 768 996 946 803 l 946 490 b 480 -17 946 176 768 -17 "},"Є":{"ha":1002,"x_min":0,"x_max":0,"o":"m 522 -17 b 56 490 233 -17 56 176 l 56 490 b 522 996 56 803 233 996 b 948 655 755 996 930 854 l 949 648 l 749 648 l 747 657 b 521 825 719 766 637 825 b 271 576 383 825 293 734 l 658 576 l 658 417 l 269 417 b 521 153 289 250 379 153 b 748 322 637 153 718 212 l 750 330 l 949 330 l 949 323 b 522 -17 931 123 755 -17 "},"Ю":{"ha":1410,"x_min":0,"x_max":0,"o":"m 88 979 l 293 979 l 293 581 l 431 581 b 889 996 463 839 634 996 b 1352 490 1174 996 1352 802 l 1352 489 b 889 -17 1352 178 1175 -17 b 429 412 627 -17 457 146 l 293 412 l 293 0 l 88 0 m 888 822 b 633 490 734 822 633 693 l 633 489 b 888 157 633 288 732 157 b 1143 489 1044 157 1143 288 l 1143 490 b 888 822 1143 693 1044 822 "},"Я":{"ha":928,"x_min":0,"x_max":0,"o":"m 637 0 l 637 353 l 496 353 l 264 0 l 37 0 l 295 382 b 83 662 169 421 83 525 l 83 663 b 439 979 83 851 221 979 l 840 979 l 840 0 m 637 817 l 468 817 b 292 663 359 817 292 759 l 292 661 b 468 506 292 564 358 506 l 637 506 "},"Ӏ":{"ha":378,"x_min":0,"x_max":0,"o":"m 87 979 l 292 979 l 292 0 l 87 0 "},"І":{"ha":378,"x_min":0,"x_max":0,"o":"m 87 979 l 292 979 l 292 0 l 87 0 "},"Ї":{"ha":378,"x_min":0,"x_max":0,"o":"m 47 1070 b -49 1164 -7 1070 -49 1113 b 47 1258 -49 1215 -7 1258 b 144 1164 102 1258 144 1215 b 47 1070 144 1113 102 1070 m 331 1070 b 235 1164 277 1070 235 1113 b 331 1258 235 1215 277 1258 b 427 1164 386 1258 427 1215 b 331 1070 427 1113 386 1070 m 87 979 l 292 979 l 292 0 l 87 0 "},"Ѕ":{"ha":887,"x_min":0,"x_max":0,"o":"m 444 -17 b 50 270 212 -17 61 90 l 50 281 l 243 281 l 244 273 b 449 150 257 197 338 150 b 633 274 563 150 633 199 l 633 275 b 465 399 633 341 586 374 l 361 420 b 70 698 168 458 70 551 l 70 699 b 443 996 71 878 227 996 b 819 711 669 996 809 882 l 819 698 l 626 698 l 625 706 b 443 829 614 783 545 829 b 275 711 338 829 275 781 l 275 710 b 438 590 275 648 326 612 l 541 569 b 838 291 747 528 838 445 l 838 290 b 444 -17 838 102 691 -17 "},"Ʒ":{"ha":860,"x_min":0,"x_max":0,"o":"m 422 -17 b 47 269 208 -17 59 96 l 47 278 l 243 278 l 245 269 b 424 151 253 197 323 151 b 598 292 529 151 598 205 l 598 293 b 380 448 598 397 521 448 l 272 448 l 272 593 l 505 798 l 505 810 l 85 810 l 85 979 l 771 979 l 771 846 l 491 597 l 491 585 b 806 293 682 572 806 471 l 806 292 b 422 -17 806 107 652 -17 "},"Ӡ":{"ha":860,"x_min":0,"x_max":0,"o":"m 422 -17 b 806 292 652 -17 806 107 l 806 293 b 491 585 806 471 682 572 l 491 597 l 771 846 l 771 979 l 85 979 l 85 810 l 505 810 l 505 798 l 272 593 l 272 448 l 380 448 b 598 293 521 448 598 397 l 598 292 b 424 151 598 205 529 151 b 245 269 323 151 253 197 l 243 278 l 47 278 l 47 269 b 422 -17 59 96 208 -17 "},"Ћ":{"ha":1219,"x_min":0,"x_max":0,"o":"m 321 810 l 37 810 l 37 979 l 808 979 l 808 810 l 526 810 l 526 568 l 534 568 b 766 634 589 607 673 634 b 1134 269 997 634 1134 481 l 1134 0 l 929 0 l 929 258 b 725 460 929 385 857 460 b 526 382 636 460 564 431 l 526 0 l 321 0 "},"Ђ":{"ha":1175,"x_min":0,"x_max":0,"o":"m 755 -64 b 663 -54 715 -64 684 -59 l 663 107 b 728 101 682 103 707 101 b 902 269 831 101 902 161 l 902 271 b 732 441 902 370 836 441 b 531 327 643 441 570 387 l 531 0 l 326 0 l 326 810 l 39 810 l 39 979 l 818 979 l 818 810 l 531 810 l 531 529 l 537 529 b 772 615 595 582 674 615 b 1111 284 975 615 1111 480 l 1111 283 b 755 -64 1111 73 970 -64 "},"Ҕ":{"ha":938,"x_min":0,"x_max":0,"o":"m 517 -64 b 425 -54 477 -64 446 -59 l 425 107 b 490 101 444 103 470 101 b 665 269 594 101 665 161 l 665 271 b 494 441 665 370 598 441 b 293 327 405 441 332 387 l 293 0 l 88 0 l 88 979 l 702 979 l 702 810 l 293 810 l 294 529 l 300 529 b 535 615 358 582 437 615 b 873 284 737 615 873 480 l 873 283 b 517 -64 873 73 732 -64 "},"Ҧ":{"ha":1535,"x_min":0,"x_max":0,"o":"m 1115 -64 b 1023 -54 1075 -64 1044 -59 l 1023 107 b 1088 101 1042 103 1067 101 b 1262 269 1192 101 1262 161 l 1262 271 b 1093 441 1262 370 1196 441 b 891 327 1003 441 930 387 l 891 0 l 686 0 l 686 810 l 293 810 l 293 0 l 88 0 l 88 979 l 891 979 l 891 529 l 897 529 b 1133 615 956 582 1034 615 b 1471 284 1335 615 1471 480 l 1471 283 b 1115 -64 1471 73 1330 -64 "},"Ј":{"ha":785,"x_min":0,"x_max":0,"o":"m 357 -17 b 26 287 155 -17 32 103 l 26 293 l 225 293 l 225 289 b 354 160 229 213 274 160 b 486 311 441 160 486 212 l 486 979 l 691 979 l 691 309 b 357 -17 691 103 568 -17 "},"Ѵ":{"ha":1061,"x_min":0,"x_max":0,"o":"m 26 979 l 257 979 l 481 219 l 490 219 l 648 744 b 895 991 692 912 762 991 b 1053 953 948 991 1011 976 l 996 787 b 935 802 976 796 951 802 b 842 702 888 802 864 763 l 604 0 l 357 0 "},"Ѷ":{"ha":1061,"x_min":0,"x_max":0,"o":"m 171 1283 l 345 1283 l 478 1059 l 347 1059 m 431 1283 l 604 1283 l 722 1059 l 591 1059 m 26 979 l 257 979 l 481 219 l 490 219 l 648 744 b 895 991 692 912 762 991 b 1053 953 948 991 1011 976 l 996 787 b 935 802 976 796 951 802 b 842 702 888 802 864 763 l 604 0 l 357 0 "},"Ԝ":{"ha":1351,"x_min":0,"x_max":0,"o":"m 34 979 l 246 979 l 401 277 l 406 277 l 586 979 l 766 979 l 946 277 l 950 277 l 1105 979 l 1317 979 l 1058 0 l 858 0 l 677 656 l 673 656 l 494 0 l 294 0 "},"Ӕ":{"ha":1362,"x_min":0,"x_max":0,"o":"m 455 979 l 1296 979 l 1296 810 l 842 810 l 842 570 l 1271 570 l 1271 413 l 842 413 l 842 169 l 1296 169 l 1296 0 l 655 0 l 655 253 l 334 253 l 223 0 l 19 0 m 401 406 l 655 406 l 655 821 l 583 821 "},"Ə":{"ha":1009,"x_min":0,"x_max":0,"o":"m 505 -17 b 58 469 222 -17 58 177 b 59 538 58 489 58 513 l 740 538 l 740 549 b 489 822 740 711 637 822 b 281 708 387 822 314 782 l 277 698 l 69 698 l 74 715 b 490 996 127 891 287 996 b 951 489 771 996 951 797 l 951 488 b 505 -17 951 184 772 -17 m 506 157 b 738 389 627 157 723 245 l 273 389 l 274 380 b 506 157 285 241 374 157 "},"Ә":{"ha":1019,"x_min":0,"x_max":0,"o":"m 509 -17 b 62 469 227 -17 62 177 b 64 538 62 489 63 513 l 745 538 l 745 549 b 494 822 745 711 642 822 b 286 708 391 822 319 782 l 281 698 l 74 698 l 79 715 b 496 996 132 891 292 996 b 957 489 777 996 957 797 l 957 488 b 509 -17 957 184 777 -17 m 511 157 b 743 389 633 157 728 245 l 278 389 l 279 380 b 511 157 290 241 380 157 "},"Ӛ":{"ha":1019,"x_min":0,"x_max":0,"o":"m 353 1070 b 257 1164 299 1070 257 1113 b 353 1258 257 1215 299 1258 b 450 1164 408 1258 450 1215 b 353 1070 450 1113 408 1070 m 637 1070 b 541 1164 583 1070 541 1113 b 637 1258 541 1215 583 1258 b 733 1164 692 1258 733 1215 b 637 1070 733 1113 692 1070 m 509 -17 b 62 469 227 -17 62 177 b 64 538 62 489 63 513 l 745 538 l 745 549 b 494 822 745 711 642 822 b 286 708 391 822 319 782 l 281 698 l 74 698 l 79 715 b 496 996 132 891 292 996 b 957 489 777 996 957 797 l 957 488 b 509 -17 957 184 777 -17 m 511 157 b 743 389 633 157 728 245 l 278 389 l 279 380 b 511 157 290 241 380 157 "},"ᴀ":{"ha":755,"x_min":0,"x_max":0,"o":"m 261 727 l 494 727 l 750 0 l 551 0 l 502 164 l 253 164 l 204 0 l 5 0 m 292 292 l 463 292 l 380 574 l 376 574 "},"ʙ":{"ha":761,"x_min":0,"x_max":0,"o":"m 64 727 l 427 727 b 677 545 583 727 677 657 l 677 544 b 520 385 677 463 610 396 l 520 382 b 713 210 629 376 713 304 l 713 208 b 437 0 713 81 606 0 l 64 0 m 257 601 l 257 428 l 361 428 b 490 517 444 428 490 460 l 490 518 b 377 601 490 570 448 601 m 257 315 l 257 126 l 383 126 b 517 220 469 126 517 159 l 517 222 b 377 315 517 281 469 315 "},"ᴄ":{"ha":768,"x_min":0,"x_max":0,"o":"m 400 -13 b 38 363 176 -13 38 127 l 38 364 b 400 740 38 600 178 740 b 736 463 595 740 730 622 l 736 458 l 553 458 l 552 465 b 400 595 541 543 487 595 b 232 365 297 595 232 509 l 232 364 b 400 132 232 219 297 132 b 553 264 482 132 540 181 l 554 269 l 737 269 l 737 264 b 400 -13 730 104 593 -13 "},"ᴅ":{"ha":773,"x_min":0,"x_max":0,"o":"m 64 727 l 372 727 b 736 368 600 727 736 600 l 736 368 b 372 0 736 136 601 0 l 64 0 m 347 143 b 542 367 473 143 542 219 l 542 368 b 347 584 542 508 470 584 l 255 584 l 255 143 "},"ᴇ":{"ha":621,"x_min":0,"x_max":0,"o":"m 64 727 l 584 727 l 584 587 l 255 587 l 255 432 l 564 432 l 564 300 l 255 300 l 255 140 l 584 140 l 584 0 l 64 0 "},"ꜰ":{"ha":595,"x_min":0,"x_max":0,"o":"m 64 727 l 580 727 l 580 587 l 255 587 l 255 410 l 550 410 l 550 277 l 255 277 l 255 0 l 64 0 "},"ɢ":{"ha":774,"x_min":0,"x_max":0,"o":"m 406 -13 b 38 365 176 -13 38 127 l 38 366 b 401 740 38 600 176 740 b 735 497 584 740 715 636 l 736 490 l 548 490 l 546 496 b 401 595 526 559 474 595 b 232 368 295 595 232 513 l 232 367 b 410 132 232 218 301 132 b 559 261 494 132 553 182 l 560 271 l 412 271 l 412 395 l 744 395 l 744 307 b 406 -13 744 108 618 -13 "},"ʛ":{"ha":888,"x_min":0,"x_max":0,"o":"m 410 -13 b 38 365 178 -13 38 125 l 38 366 b 405 740 38 602 178 740 b 583 702 472 740 532 726 l 583 768 b 808 994 583 920 653 994 b 888 989 840 994 869 991 l 888 844 b 842 847 876 846 859 847 b 753 768 781 847 753 821 l 753 488 l 583 488 l 549 488 l 547 494 b 406 587 528 552 477 587 b 239 368 301 587 239 508 l 239 367 b 415 140 239 223 309 140 b 560 258 497 140 554 186 l 562 267 l 430 267 l 430 399 l 753 399 l 753 307 b 410 -13 753 109 625 -13 "},"ʜ":{"ha":800,"x_min":0,"x_max":0,"o":"m 64 727 l 249 727 l 249 439 l 555 439 l 555 727 l 739 727 l 739 0 l 555 0 l 555 296 l 249 296 l 249 0 l 64 0 "},"ɪ":{"ha":509,"x_min":0,"x_max":0,"o":"m 31 140 l 158 140 l 158 587 l 31 587 l 31 727 l 478 727 l 478 587 l 351 587 l 351 140 l 478 140 l 478 0 l 31 0 "},"ᵻ":{"ha":334,"x_min":0,"x_max":0,"o":"m 68 347 l 0 347 l 0 454 l 68 454 l 68 727 l 267 727 l 267 454 l 334 454 l 334 347 l 267 347 l 267 0 l 68 0 "},"ᴊ":{"ha":618,"x_min":0,"x_max":0,"o":"m 287 -13 b 17 236 122 -13 18 83 l 17 239 l 199 239 l 199 237 b 284 144 201 180 232 144 b 367 243 338 144 367 178 l 367 727 l 557 727 l 557 242 b 287 -13 557 80 458 -13 "},"ᴋ":{"ha":719,"x_min":0,"x_max":0,"o":"m 64 727 l 257 727 l 257 406 l 261 406 l 507 727 l 713 727 l 459 404 l 728 0 l 502 0 l 319 286 l 257 209 l 257 0 l 64 0 "},"ʟ":{"ha":587,"x_min":0,"x_max":0,"o":"m 64 727 l 255 727 l 255 140 l 570 140 l 570 0 l 64 0 "},"ᴌ":{"ha":572,"x_min":0,"x_max":0,"o":"m 64 243 l 15 219 l 15 338 l 64 361 l 64 727 l 262 727 l 262 458 l 433 543 l 433 424 l 262 340 l 262 149 l 555 149 l 555 0 l 64 0 "},"ᴍ":{"ha":928,"x_min":0,"x_max":0,"o":"m 64 727 l 284 727 l 463 240 l 466 240 l 644 727 l 864 727 l 864 0 l 697 0 l 697 458 l 518 0 l 410 0 l 231 458 l 231 0 l 64 0 "},"ɴ":{"ha":767,"x_min":0,"x_max":0,"o":"m 64 727 l 225 727 l 510 294 l 513 294 l 513 727 l 703 727 l 703 0 l 544 0 l 257 437 l 254 437 l 254 0 l 64 0 "},"ᴎ":{"ha":767,"x_min":0,"x_max":0,"o":"m 513 0 l 513 437 l 510 437 l 224 0 l 64 0 l 64 727 l 254 727 l 254 294 l 257 294 l 543 727 l 703 727 l 703 0 "},"ᴏ":{"ha":795,"x_min":0,"x_max":0,"o":"m 398 -13 b 38 363 176 -13 38 132 l 38 364 b 398 740 38 595 177 740 b 759 364 620 740 759 595 l 759 363 b 398 -13 759 132 621 -13 m 398 134 b 565 363 501 134 565 224 l 565 365 b 398 593 565 506 500 593 b 232 365 298 593 232 506 l 232 363 b 398 134 232 222 297 134 "},"ᴘ":{"ha":685,"x_min":0,"x_max":0,"o":"m 64 727 l 377 727 b 646 472 541 727 646 626 l 646 471 b 377 217 646 317 541 217 l 255 217 l 255 0 l 64 0 m 255 591 l 255 351 l 332 351 b 454 471 408 351 454 393 l 454 471 b 332 591 454 549 408 591 "},"ᴩ":{"ha":685,"x_min":0,"x_max":0,"o":"m 64 0 l 255 0 l 255 217 l 377 217 b 646 471 541 217 646 317 l 646 472 b 377 727 646 626 541 727 l 64 727 m 332 591 b 454 471 408 591 454 549 l 454 471 b 332 351 454 393 408 351 l 255 351 l 255 591 "},"ꞯ":{"ha":795,"x_min":0,"x_max":0,"o":"m 398 -13 b 38 363 176 -13 38 132 l 38 365 b 398 740 38 595 177 740 b 759 365 620 740 759 595 l 759 363 b 645 72 759 237 718 138 l 741 -62 l 570 -62 l 522 4 b 398 -13 484 -7 443 -13 m 397 134 b 427 137 408 134 418 135 l 336 266 l 507 266 l 536 224 b 564 363 555 262 564 309 l 564 365 b 398 593 564 505 499 593 b 232 365 297 593 232 506 l 232 363 b 397 134 232 222 297 134 "},"ʀ":{"ha":734,"x_min":0,"x_max":0,"o":"m 64 727 l 393 727 b 681 488 576 727 681 640 l 681 487 b 550 280 681 393 629 313 l 703 0 l 489 0 l 357 254 l 254 254 l 254 0 l 64 0 m 372 383 b 486 488 442 383 486 423 l 486 488 b 371 593 486 551 440 593 l 254 593 l 254 383 "},"ᴙ":{"ha":734,"x_min":0,"x_max":0,"o":"m 480 0 l 480 254 l 377 254 l 245 0 l 31 0 l 184 280 b 54 487 105 313 54 393 l 54 488 b 341 727 54 640 158 727 l 670 727 l 670 0 m 480 593 l 363 593 b 248 488 294 593 248 551 l 248 488 b 363 383 248 423 292 383 l 480 383 "},"ʁ":{"ha":741,"x_min":0,"x_max":0,"o":"m 677 0 l 345 0 b 54 241 159 0 54 87 l 54 242 b 183 450 54 336 104 416 l 32 727 l 254 727 l 383 477 l 479 477 l 479 727 l 677 727 m 368 342 b 256 242 300 342 256 303 l 256 241 b 368 140 256 180 301 140 l 479 140 l 479 342 "},"ꜱ":{"ha":703,"x_min":0,"x_max":0,"o":"m 351 -13 b 35 205 162 -13 43 66 l 34 214 l 211 214 l 212 208 b 354 127 222 159 279 127 b 480 208 432 127 480 159 b 357 288 480 251 446 272 l 279 303 b 49 511 128 330 49 401 l 49 512 b 349 740 49 650 175 740 b 653 524 538 740 646 654 l 654 513 l 477 513 l 476 519 b 350 600 470 570 420 600 b 238 524 278 600 238 568 b 355 445 238 483 274 460 l 434 431 b 669 222 595 401 669 338 b 351 -13 669 79 551 -13 "},"ᴛ":{"ha":648,"x_min":0,"x_max":0,"o":"m 229 585 l 30 585 l 30 727 l 617 727 l 617 585 l 418 585 l 418 0 l 229 0 "},"ᴜ":{"ha":774,"x_min":0,"x_max":0,"o":"m 387 -13 b 61 258 190 -13 61 94 l 61 727 l 252 727 l 252 275 b 387 134 252 187 300 134 b 524 275 475 134 524 187 l 524 727 l 713 727 l 713 258 b 387 -13 713 95 587 -13 "},"ᴠ":{"ha":716,"x_min":0,"x_max":0,"o":"m 5 727 l 228 727 l 356 181 l 360 181 l 488 727 l 711 727 l 486 0 l 230 0 "},"ᴡ":{"ha":996,"x_min":0,"x_max":0,"o":"m 5 727 l 210 727 l 301 247 l 304 247 l 416 727 l 581 727 l 692 247 l 695 247 l 787 727 l 991 727 l 803 0 l 607 0 l 500 436 l 496 436 l 389 0 l 193 0 "},"ʏ":{"ha":732,"x_min":0,"x_max":0,"o":"m 267 250 l 5 727 l 216 727 l 364 425 l 368 425 l 517 727 l 728 727 l 465 250 l 465 0 l 267 0 "},"ᴢ":{"ha":682,"x_min":0,"x_max":0,"o":"m 52 118 l 387 575 l 387 578 l 56 578 l 56 727 l 618 727 l 618 610 l 284 153 l 284 149 l 631 149 l 631 0 l 52 0 "},"ɶ":{"ha":1155,"x_min":0,"x_max":0,"o":"m 382 -13 b 38 363 180 -13 38 142 l 38 364 b 382 740 38 585 180 740 b 616 606 490 740 585 686 l 620 606 l 620 727 l 1118 727 l 1118 578 l 792 578 l 792 433 l 1098 433 l 1098 297 l 792 297 l 792 149 l 1118 149 l 1118 0 l 620 0 l 620 122 l 616 122 b 382 -13 585 41 490 -13 m 416 141 b 593 363 524 141 593 229 l 593 364 b 416 587 593 499 524 587 b 239 364 309 587 239 499 l 239 363 b 416 141 239 229 309 141 "},"ᴁ":{"ha":1010,"x_min":0,"x_max":0,"o":"m 302 727 l 973 727 l 973 578 l 646 578 l 646 432 l 954 432 l 954 296 l 646 296 l 646 149 l 973 149 l 973 0 l 471 0 l 471 165 l 263 165 l 200 0 l 5 0 m 315 298 l 471 298 l 471 588 l 427 588 "},"ᴆ":{"ha":761,"x_min":0,"x_max":0,"o":"m 71 309 l 18 309 l 18 418 l 71 418 l 71 727 l 374 727 b 723 369 593 727 723 600 l 723 368 b 374 0 723 136 593 0 l 71 0 m 347 149 b 522 368 461 149 522 222 l 522 368 b 347 578 522 505 456 578 l 269 578 l 269 418 l 363 418 l 363 309 l 269 309 l 269 149 "},"ᴦ":{"ha":577,"x_min":0,"x_max":0,"o":"m 64 0 l 64 727 l 561 727 l 561 578 l 262 578 l 262 0 "},"ᴧ":{"ha":725,"x_min":0,"x_max":0,"o":"m 240 727 l 486 727 l 721 0 l 510 0 l 361 564 l 357 564 l 207 0 l 5 0 "},"ᴨ":{"ha":802,"x_min":0,"x_max":0,"o":"m 540 0 l 540 578 l 262 578 l 262 0 l 64 0 l 64 727 l 738 727 l 738 0 "},"ᴪ":{"ha":925,"x_min":0,"x_max":0,"o":"m 370 148 b 61 456 175 153 61 270 l 61 727 l 246 727 l 246 453 b 370 293 246 356 285 302 l 370 727 l 555 727 l 555 293 b 679 453 640 302 679 356 l 679 727 l 864 727 l 864 456 b 555 148 864 270 750 153 l 555 0 l 370 0 "},"a":{"ha":760,"x_min":0,"x_max":0,"o":"m 281 -12 b 37 208 135 -12 37 80 l 37 210 b 319 431 37 342 139 419 l 499 441 l 499 486 b 380 591 499 551 457 591 b 252 509 306 591 261 556 l 250 503 l 69 503 l 70 511 b 388 742 81 646 196 742 b 697 498 576 742 697 645 l 697 0 l 499 0 l 499 109 l 495 109 b 281 -12 454 34 376 -12 m 233 218 b 345 133 233 165 277 133 b 499 266 434 133 499 190 l 499 318 l 349 309 b 233 220 273 304 233 271 l 233 218 "},"à":{"ha":760,"x_min":0,"x_max":0,"o":"m 171 1040 l 347 1040 l 471 808 l 338 808 m 281 -12 b 37 208 135 -12 37 80 l 37 210 b 319 431 37 342 139 419 l 499 441 l 499 486 b 380 591 499 551 457 591 b 252 509 306 591 261 556 l 250 503 l 69 503 l 70 511 b 388 742 81 646 196 742 b 697 498 576 742 697 645 l 697 0 l 499 0 l 499 109 l 495 109 b 281 -12 454 34 376 -12 m 233 218 b 345 133 233 165 277 133 b 499 266 434 133 499 190 l 499 318 l 349 309 b 233 220 273 304 233 271 l 233 218 "},"á":{"ha":760,"x_min":0,"x_max":0,"o":"m 300 808 l 424 1040 l 600 1040 l 433 808 m 281 -12 b 37 208 135 -12 37 80 l 37 210 b 319 431 37 342 139 419 l 499 441 l 499 486 b 380 591 499 551 457 591 b 252 509 306 591 261 556 l 250 503 l 69 503 l 70 511 b 388 742 81 646 196 742 b 697 498 576 742 697 645 l 697 0 l 499 0 l 499 109 l 495 109 b 281 -12 454 34 376 -12 m 233 218 b 345 133 233 165 277 133 b 499 266 434 133 499 190 l 499 318 l 349 309 b 233 220 273 304 233 271 l 233 218 "},"ä":{"ha":760,"x_min":0,"x_max":0,"o":"m 239 823 b 141 918 184 823 141 866 b 239 1013 141 970 184 1013 b 336 918 294 1013 336 970 b 239 823 336 866 294 823 m 532 823 b 435 918 477 823 435 866 b 532 1013 435 970 477 1013 b 629 918 587 1013 629 970 b 532 823 629 866 587 823 m 281 -12 b 37 208 135 -12 37 80 l 37 210 b 319 431 37 342 139 419 l 499 441 l 499 486 b 380 591 499 551 457 591 b 252 509 306 591 261 556 l 250 503 l 69 503 l 70 511 b 388 742 81 646 196 742 b 697 498 576 742 697 645 l 697 0 l 499 0 l 499 109 l 495 109 b 281 -12 454 34 376 -12 m 233 218 b 345 133 233 165 277 133 b 499 266 434 133 499 190 l 499 318 l 349 309 b 233 220 273 304 233 271 l 233 218 "},"ǟ":{"ha":760,"x_min":0,"x_max":0,"o":"m 145 1201 l 626 1201 l 626 1078 l 145 1078 m 524 812 b 431 903 473 812 431 852 b 524 994 431 953 473 994 b 618 903 577 994 618 953 b 524 812 618 852 577 812 m 246 812 b 153 903 194 812 153 852 b 246 994 153 953 194 994 b 339 903 298 994 339 953 b 246 812 339 852 298 812 m 281 -12 b 37 208 135 -12 37 80 l 37 210 b 319 431 37 342 139 419 l 499 441 l 499 486 b 380 591 499 551 457 591 b 252 509 306 591 261 556 l 250 503 l 69 503 l 70 511 b 388 742 81 646 196 742 b 697 498 576 742 697 645 l 697 0 l 499 0 l 499 109 l 495 109 b 281 -12 454 34 376 -12 m 233 218 b 345 133 233 165 277 133 b 499 266 434 133 499 190 l 499 318 l 349 309 b 233 220 273 304 233 271 l 233 218 "},"å":{"ha":760,"x_min":0,"x_max":0,"o":"m 385 796 b 235 942 303 796 235 860 l 235 943 b 385 1088 235 1025 303 1088 b 536 943 467 1088 536 1025 l 536 942 b 385 796 536 860 467 796 m 385 882 b 446 942 418 882 446 909 l 446 943 b 385 1002 446 977 419 1002 b 325 943 352 1002 325 977 l 325 942 b 385 882 325 909 352 882 m 281 -12 b 37 208 135 -12 37 80 l 37 210 b 319 431 37 342 139 419 l 499 441 l 499 486 b 380 591 499 551 457 591 b 252 509 306 591 261 556 l 250 503 l 69 503 l 70 511 b 388 742 81 646 196 742 b 697 498 576 742 697 645 l 697 0 l 499 0 l 499 109 l 495 109 b 281 -12 454 34 376 -12 m 233 218 b 345 133 233 165 277 133 b 499 266 434 133 499 190 l 499 318 l 349 309 b 233 220 273 304 233 271 l 233 218 "},"ǻ":{"ha":760,"x_min":0,"x_max":0,"o":"m 429 1322 l 593 1322 l 434 1118 l 320 1118 m 382 796 b 224 930 293 796 224 852 l 224 931 b 382 1065 224 1010 293 1065 l 389 1065 b 547 931 477 1065 547 1010 l 547 930 b 389 796 547 852 477 796 l 382 796 m 388 878 b 454 930 426 878 454 899 l 454 931 b 388 983 454 963 426 983 l 383 983 b 317 931 345 983 317 963 l 317 930 b 383 878 317 899 345 878 m 281 -12 b 37 208 135 -12 37 80 l 37 210 b 319 431 37 342 139 419 l 499 441 l 499 486 b 380 591 499 551 457 591 b 252 509 306 591 261 556 l 250 503 l 69 503 l 70 511 b 388 742 81 646 196 742 b 697 498 576 742 697 645 l 697 0 l 499 0 l 499 109 l 495 109 b 281 -12 454 34 376 -12 m 233 218 b 345 133 233 165 277 133 b 499 266 434 133 499 190 l 499 318 l 349 309 b 233 220 273 304 233 271 l 233 218 "},"ã":{"ha":760,"x_min":0,"x_max":0,"o":"m 490 806 b 391 840 450 806 418 821 l 362 861 b 302 888 340 876 321 888 b 260 809 274 888 260 863 l 260 805 l 151 805 l 151 815 b 280 1017 151 952 203 1017 b 378 983 321 1017 352 1001 l 408 962 b 469 935 429 946 448 935 b 511 1013 496 935 511 959 l 511 1017 l 620 1017 l 620 1007 b 490 806 620 873 572 806 m 281 -12 b 37 208 135 -12 37 80 l 37 210 b 319 431 37 342 139 419 l 499 441 l 499 486 b 380 591 499 551 457 591 b 252 509 306 591 261 556 l 250 503 l 69 503 l 70 511 b 388 742 81 646 196 742 b 697 498 576 742 697 645 l 697 0 l 499 0 l 499 109 l 495 109 b 281 -12 454 34 376 -12 m 233 218 b 345 133 233 165 277 133 b 499 266 434 133 499 190 l 499 318 l 349 309 b 233 220 273 304 233 271 l 233 218 "},"ằ":{"ha":760,"x_min":0,"x_max":0,"o":"m 177 1268 l 341 1268 l 451 1064 l 337 1064 m 385 800 b 142 1013 239 800 142 885 l 142 1019 l 262 1019 l 262 1017 b 385 911 262 958 309 911 b 509 1017 461 911 509 958 l 509 1019 l 629 1019 l 629 1013 b 385 800 629 885 531 800 m 281 -12 b 37 208 135 -12 37 80 l 37 210 b 319 431 37 342 139 419 l 499 441 l 499 486 b 380 591 499 551 457 591 b 252 509 306 591 261 556 l 250 503 l 69 503 l 70 511 b 388 742 81 646 196 742 b 697 498 576 742 697 645 l 697 0 l 499 0 l 499 109 l 495 109 b 281 -12 454 34 376 -12 m 233 218 b 345 133 233 165 277 133 b 499 266 434 133 499 190 l 499 318 l 349 309 b 233 220 273 304 233 271 l 233 218 "},"ǡ":{"ha":760,"x_min":0,"x_max":0,"o":"m 145 1202 l 626 1202 l 626 1079 l 145 1079 m 385 812 b 292 903 333 812 292 853 b 385 994 292 954 333 994 b 479 903 438 994 479 954 b 385 812 479 853 438 812 m 281 -12 b 37 208 135 -12 37 80 l 37 210 b 319 431 37 342 139 419 l 499 441 l 499 486 b 380 591 499 551 457 591 b 252 509 306 591 261 556 l 250 503 l 69 503 l 70 511 b 388 742 81 646 196 742 b 697 498 576 742 697 645 l 697 0 l 499 0 l 499 109 l 495 109 b 281 -12 454 34 376 -12 m 233 218 b 345 133 233 165 277 133 b 499 266 434 133 499 190 l 499 318 l 349 309 b 233 220 273 304 233 271 l 233 218 "},"ḁ":{"ha":760,"x_min":0,"x_max":0,"o":"m 281 -12 b 37 208 135 -12 37 80 l 37 210 b 319 431 37 342 139 419 l 499 441 l 499 486 b 380 591 499 551 457 591 b 252 509 306 591 261 556 l 250 503 l 69 503 l 70 511 b 388 742 81 646 196 742 b 697 498 576 742 697 645 l 697 0 l 499 0 l 499 109 l 495 109 b 281 -12 454 34 376 -12 m 233 218 b 345 133 233 165 277 133 b 499 266 434 133 499 190 l 499 318 l 349 309 b 233 220 273 304 233 271 l 233 218 m 389 -69 b 547 -203 478 -69 547 -124 l 547 -204 b 389 -338 547 -283 478 -338 l 382 -338 b 224 -204 294 -338 224 -283 l 224 -203 b 382 -69 224 -124 294 -69 l 389 -69 m 383 -151 b 317 -203 345 -151 317 -172 l 317 -204 b 383 -256 317 -235 345 -256 l 388 -256 b 454 -204 426 -256 454 -235 l 454 -203 b 388 -151 454 -172 426 -151 "},"â":{"ha":760,"x_min":0,"x_max":0,"o":"m 303 1040 l 466 1040 l 629 808 l 486 808 l 384 950 l 284 808 l 141 808 m 281 -12 b 37 208 135 -12 37 80 l 37 210 b 319 431 37 342 139 419 l 499 441 l 499 486 b 380 591 499 551 457 591 b 252 509 306 591 261 556 l 250 503 l 69 503 l 70 511 b 388 742 81 646 196 742 b 697 498 576 742 697 645 l 697 0 l 499 0 l 499 109 l 495 109 b 281 -12 454 34 376 -12 m 233 218 b 345 133 233 165 277 133 b 499 266 434 133 499 190 l 499 318 l 349 309 b 233 220 273 304 233 271 l 233 218 "},"ậ":{"ha":760,"x_min":0,"x_max":0,"o":"m 303 1040 l 466 1040 l 629 808 l 486 808 l 384 950 l 284 808 l 141 808 m 281 -12 b 37 208 135 -12 37 80 l 37 210 b 319 431 37 342 139 419 l 499 441 l 499 486 b 380 591 499 551 457 591 b 252 509 306 591 261 556 l 250 503 l 69 503 l 70 511 b 388 742 81 646 196 742 b 697 498 576 742 697 645 l 697 0 l 499 0 l 499 109 l 495 109 b 281 -12 454 34 376 -12 m 233 218 b 345 133 233 165 277 133 b 499 266 434 133 499 190 l 499 318 l 349 309 b 233 220 273 304 233 271 l 233 218 m 385 -299 b 279 -196 326 -299 279 -252 b 385 -93 279 -140 326 -93 b 491 -196 445 -93 491 -140 b 385 -299 491 -252 445 -299 "},"ấ":{"ha":760,"x_min":0,"x_max":0,"o":"m 618 1255 l 782 1255 l 622 1050 l 508 1050 m 301 1014 l 468 1014 l 632 803 l 488 803 l 384 937 l 283 803 l 138 803 m 281 -12 b 37 208 135 -12 37 80 l 37 210 b 319 431 37 342 139 419 l 499 441 l 499 486 b 380 591 499 551 457 591 b 252 509 306 591 261 556 l 250 503 l 69 503 l 70 511 b 388 742 81 646 196 742 b 697 498 576 742 697 645 l 697 0 l 499 0 l 499 109 l 495 109 b 281 -12 454 34 376 -12 m 233 218 b 345 133 233 165 277 133 b 499 266 434 133 499 190 l 499 318 l 349 309 b 233 220 273 304 233 271 l 233 218 "},"ẫ":{"ha":760,"x_min":0,"x_max":0,"o":"m 496 1069 b 389 1105 448 1069 413 1087 l 358 1125 b 300 1150 338 1139 319 1150 b 255 1076 271 1150 255 1127 l 255 1071 l 142 1071 l 142 1082 b 276 1266 142 1204 194 1266 b 382 1232 322 1266 359 1248 l 413 1211 b 471 1186 433 1196 452 1186 b 516 1259 499 1186 516 1209 l 516 1265 l 629 1265 l 629 1254 b 496 1069 629 1131 576 1069 m 301 1014 l 468 1014 l 632 803 l 488 803 l 384 937 l 283 803 l 138 803 m 281 -12 b 37 208 135 -12 37 80 l 37 210 b 319 431 37 342 139 419 l 499 441 l 499 486 b 380 591 499 551 457 591 b 252 509 306 591 261 556 l 250 503 l 69 503 l 70 511 b 388 742 81 646 196 742 b 697 498 576 742 697 645 l 697 0 l 499 0 l 499 109 l 495 109 b 281 -12 454 34 376 -12 m 233 218 b 345 133 233 165 277 133 b 499 266 434 133 499 190 l 499 318 l 349 309 b 233 220 273 304 233 271 l 233 218 "},"ầ":{"ha":760,"x_min":0,"x_max":0,"o":"m 366 1255 l 530 1255 l 639 1050 l 525 1050 m 277 1014 l 444 1014 l 608 803 l 463 803 l 359 937 l 258 803 l 114 803 m 281 -12 b 37 208 135 -12 37 80 l 37 210 b 319 431 37 342 139 419 l 499 441 l 499 486 b 380 591 499 551 457 591 b 252 509 306 591 261 556 l 250 503 l 69 503 l 70 511 b 388 742 81 646 196 742 b 697 498 576 742 697 645 l 697 0 l 499 0 l 499 109 l 495 109 b 281 -12 454 34 376 -12 m 233 218 b 345 133 233 165 277 133 b 499 266 434 133 499 190 l 499 318 l 349 309 b 233 220 273 304 233 271 l 233 218 "},"ẩ":{"ha":760,"x_min":0,"x_max":0,"o":"m 515 1047 b 564 1115 545 1071 564 1093 b 486 1159 564 1143 532 1159 b 443 1155 467 1159 450 1158 l 443 1244 b 528 1257 463 1252 494 1257 b 676 1149 613 1257 676 1216 b 614 1043 676 1107 655 1071 l 515 1043 m 301 1014 l 468 1014 l 632 803 l 488 803 l 384 937 l 283 803 l 138 803 m 281 -12 b 37 208 135 -12 37 80 l 37 210 b 319 431 37 342 139 419 l 499 441 l 499 486 b 380 591 499 551 457 591 b 252 509 306 591 261 556 l 250 503 l 69 503 l 70 511 b 388 742 81 646 196 742 b 697 498 576 742 697 645 l 697 0 l 499 0 l 499 109 l 495 109 b 281 -12 454 34 376 -12 m 233 218 b 345 133 233 165 277 133 b 499 266 434 133 499 190 l 499 318 l 349 309 b 233 220 273 304 233 271 l 233 218 "},"ă":{"ha":760,"x_min":0,"x_max":0,"o":"m 385 806 b 145 1029 241 806 145 895 l 145 1036 l 267 1036 l 267 1033 b 385 921 267 970 313 921 b 504 1033 458 921 504 970 l 504 1036 l 626 1036 l 626 1029 b 385 806 626 895 530 806 m 281 -12 b 37 208 135 -12 37 80 l 37 210 b 319 431 37 342 139 419 l 499 441 l 499 486 b 380 591 499 551 457 591 b 252 509 306 591 261 556 l 250 503 l 69 503 l 70 511 b 388 742 81 646 196 742 b 697 498 576 742 697 645 l 697 0 l 499 0 l 499 109 l 495 109 b 281 -12 454 34 376 -12 m 233 218 b 345 133 233 165 277 133 b 499 266 434 133 499 190 l 499 318 l 349 309 b 233 220 273 304 233 271 l 233 218 "},"ắ":{"ha":760,"x_min":0,"x_max":0,"o":"m 429 1268 l 593 1268 l 434 1064 l 320 1064 m 385 800 b 142 1013 239 800 142 885 l 142 1019 l 262 1019 l 262 1017 b 385 911 262 958 309 911 b 509 1017 461 911 509 958 l 509 1019 l 629 1019 l 629 1013 b 385 800 629 885 531 800 m 281 -12 b 37 208 135 -12 37 80 l 37 210 b 319 431 37 342 139 419 l 499 441 l 499 486 b 380 591 499 551 457 591 b 252 509 306 591 261 556 l 250 503 l 69 503 l 70 511 b 388 742 81 646 196 742 b 697 498 576 742 697 645 l 697 0 l 499 0 l 499 109 l 495 109 b 281 -12 454 34 376 -12 m 233 218 b 345 133 233 165 277 133 b 499 266 434 133 499 190 l 499 318 l 349 309 b 233 220 273 304 233 271 l 233 218 "},"ẵ":{"ha":760,"x_min":0,"x_max":0,"o":"m 495 1069 b 389 1105 448 1069 413 1087 l 358 1125 b 300 1150 338 1139 318 1150 b 255 1076 271 1150 255 1127 l 255 1071 l 142 1071 l 142 1082 b 275 1266 142 1204 194 1266 b 382 1232 321 1266 358 1248 l 413 1211 b 471 1186 433 1196 451 1186 b 516 1259 499 1186 516 1209 l 516 1265 l 629 1265 l 629 1254 b 495 1069 629 1131 576 1069 m 385 800 b 142 1013 239 800 142 885 l 142 1019 l 262 1019 l 262 1017 b 385 911 262 958 309 911 b 509 1017 461 911 509 958 l 509 1019 l 629 1019 l 629 1013 b 385 800 629 885 531 800 m 281 -12 b 37 208 135 -12 37 80 l 37 210 b 319 431 37 342 139 419 l 499 441 l 499 486 b 380 591 499 551 457 591 b 252 509 306 591 261 556 l 250 503 l 69 503 l 70 511 b 388 742 81 646 196 742 b 697 498 576 742 697 645 l 697 0 l 499 0 l 499 109 l 495 109 b 281 -12 454 34 376 -12 m 233 218 b 345 133 233 165 277 133 b 499 266 434 133 499 190 l 499 318 l 349 309 b 233 220 273 304 233 271 l 233 218 "},"ẳ":{"ha":760,"x_min":0,"x_max":0,"o":"m 326 1061 b 376 1128 357 1084 376 1106 b 298 1173 376 1156 344 1173 b 254 1168 279 1173 262 1171 l 254 1258 b 340 1271 275 1265 305 1271 b 488 1162 425 1271 488 1230 b 426 1057 488 1120 467 1084 l 326 1057 m 385 800 b 142 1013 239 800 142 885 l 142 1019 l 262 1019 l 262 1017 b 385 911 262 958 309 911 b 509 1017 461 911 509 958 l 509 1019 l 629 1019 l 629 1013 b 385 800 629 885 531 800 m 281 -12 b 37 208 135 -12 37 80 l 37 210 b 319 431 37 342 139 419 l 499 441 l 499 486 b 380 591 499 551 457 591 b 252 509 306 591 261 556 l 250 503 l 69 503 l 70 511 b 388 742 81 646 196 742 b 697 498 576 742 697 645 l 697 0 l 499 0 l 499 109 l 495 109 b 281 -12 454 34 376 -12 m 233 218 b 345 133 233 165 277 133 b 499 266 434 133 499 190 l 499 318 l 349 309 b 233 220 273 304 233 271 l 233 218 "},"ặ":{"ha":760,"x_min":0,"x_max":0,"o":"m 385 806 b 145 1029 241 806 145 895 l 145 1036 l 267 1036 l 267 1033 b 385 921 267 970 313 921 b 504 1033 458 921 504 970 l 504 1036 l 626 1036 l 626 1029 b 385 806 626 895 530 806 m 281 -12 b 37 208 135 -12 37 80 l 37 210 b 319 431 37 342 139 419 l 499 441 l 499 486 b 380 591 499 551 457 591 b 252 509 306 591 261 556 l 250 503 l 69 503 l 70 511 b 388 742 81 646 196 742 b 697 498 576 742 697 645 l 697 0 l 499 0 l 499 109 l 495 109 b 281 -12 454 34 376 -12 m 233 218 b 345 133 233 165 277 133 b 499 266 434 133 499 190 l 499 318 l 349 309 b 233 220 273 304 233 271 l 233 218 m 385 -299 b 279 -196 326 -299 279 -252 b 385 -93 279 -140 326 -93 b 491 -196 445 -93 491 -140 b 385 -299 491 -252 445 -299 "},"ȃ":{"ha":760,"x_min":0,"x_max":0,"o":"m 385 1036 b 621 813 526 1036 621 946 l 621 806 l 498 806 l 498 808 b 385 921 498 871 454 921 b 273 808 316 921 273 871 l 273 806 l 151 806 l 151 813 b 385 1036 151 946 244 1036 m 281 -12 b 37 208 135 -12 37 80 l 37 210 b 319 431 37 342 139 419 l 499 441 l 499 486 b 380 591 499 551 457 591 b 252 509 306 591 261 556 l 250 503 l 69 503 l 70 511 b 388 742 81 646 196 742 b 697 498 576 742 697 645 l 697 0 l 499 0 l 499 109 l 495 109 b 281 -12 454 34 376 -12 m 233 218 b 345 133 233 165 277 133 b 499 266 434 133 499 190 l 499 318 l 349 309 b 233 220 273 304 233 271 l 233 218 "},"ǎ":{"ha":760,"x_min":0,"x_max":0,"o":"m 467 808 l 304 808 l 141 1040 l 284 1040 l 387 899 l 486 1040 l 629 1040 m 281 -12 b 37 208 135 -12 37 80 l 37 210 b 319 431 37 342 139 419 l 499 441 l 499 486 b 380 591 499 551 457 591 b 252 509 306 591 261 556 l 250 503 l 69 503 l 70 511 b 388 742 81 646 196 742 b 697 498 576 742 697 645 l 697 0 l 499 0 l 499 109 l 495 109 b 281 -12 454 34 376 -12 m 233 218 b 345 133 233 165 277 133 b 499 266 434 133 499 190 l 499 318 l 349 309 b 233 220 273 304 233 271 l 233 218 "},"ȧ":{"ha":760,"x_min":0,"x_max":0,"o":"m 385 821 b 279 924 326 821 279 867 b 385 1027 279 980 326 1027 b 491 924 445 1027 491 980 b 385 821 491 867 445 821 m 281 -12 b 37 208 135 -12 37 80 l 37 210 b 319 431 37 342 139 419 l 499 441 l 499 486 b 380 591 499 551 457 591 b 252 509 306 591 261 556 l 250 503 l 69 503 l 70 511 b 388 742 81 646 196 742 b 697 498 576 742 697 645 l 697 0 l 499 0 l 499 109 l 495 109 b 281 -12 454 34 376 -12 m 233 218 b 345 133 233 165 277 133 b 499 266 434 133 499 190 l 499 318 l 349 309 b 233 220 273 304 233 271 l 233 218 "},"ạ":{"ha":760,"x_min":0,"x_max":0,"o":"m 281 -12 b 37 208 135 -12 37 80 l 37 210 b 319 431 37 342 139 419 l 499 441 l 499 486 b 380 591 499 551 457 591 b 252 509 306 591 261 556 l 250 503 l 69 503 l 70 511 b 388 742 81 646 196 742 b 697 498 576 742 697 645 l 697 0 l 499 0 l 499 109 l 495 109 b 281 -12 454 34 376 -12 m 233 218 b 345 133 233 165 277 133 b 499 266 434 133 499 190 l 499 318 l 349 309 b 233 220 273 304 233 271 l 233 218 m 385 -299 b 279 -196 326 -299 279 -252 b 385 -93 279 -140 326 -93 b 491 -196 445 -93 491 -140 b 385 -299 491 -252 445 -299 "},"ả":{"ha":760,"x_min":0,"x_max":0,"o":"m 323 810 b 385 898 358 840 385 867 b 294 951 385 932 349 951 b 241 947 274 951 256 949 l 241 1046 b 333 1060 263 1053 297 1060 b 506 928 431 1060 506 1008 b 431 808 506 879 478 840 l 323 808 m 281 -12 b 37 208 135 -12 37 80 l 37 210 b 319 431 37 342 139 419 l 499 441 l 499 486 b 380 591 499 551 457 591 b 252 509 306 591 261 556 l 250 503 l 69 503 l 70 511 b 388 742 81 646 196 742 b 697 498 576 742 697 645 l 697 0 l 499 0 l 499 109 l 495 109 b 281 -12 454 34 376 -12 m 233 218 b 345 133 233 165 277 133 b 499 266 434 133 499 190 l 499 318 l 349 309 b 233 220 273 304 233 271 l 233 218 "},"ȁ":{"ha":760,"x_min":0,"x_max":0,"o":"m 26 1040 l 201 1040 l 342 808 l 209 808 m 294 1040 l 470 1040 l 594 808 l 461 808 m 281 -12 b 37 208 135 -12 37 80 l 37 210 b 319 431 37 342 139 419 l 499 441 l 499 486 b 380 591 499 551 457 591 b 252 509 306 591 261 556 l 250 503 l 69 503 l 70 511 b 388 742 81 646 196 742 b 697 498 576 742 697 645 l 697 0 l 499 0 l 499 109 l 495 109 b 281 -12 454 34 376 -12 m 233 218 b 345 133 233 165 277 133 b 499 266 434 133 499 190 l 499 318 l 349 309 b 233 220 273 304 233 271 l 233 218 "},"ā":{"ha":760,"x_min":0,"x_max":0,"o":"m 168 979 l 602 979 l 602 857 l 168 857 m 281 -12 b 37 208 135 -12 37 80 l 37 210 b 319 431 37 342 139 419 l 499 441 l 499 486 b 380 591 499 551 457 591 b 252 509 306 591 261 556 l 250 503 l 69 503 l 70 511 b 388 742 81 646 196 742 b 697 498 576 742 697 645 l 697 0 l 499 0 l 499 109 l 495 109 b 281 -12 454 34 376 -12 m 233 218 b 345 133 233 165 277 133 b 499 266 434 133 499 190 l 499 318 l 349 309 b 233 220 273 304 233 271 l 233 218 "},"ą":{"ha":760,"x_min":0,"x_max":0,"o":"m 281 -12 b 37 208 135 -12 37 80 l 37 210 b 319 431 37 342 139 419 l 499 441 l 499 486 b 380 591 499 551 457 591 b 252 509 306 591 261 556 l 250 503 l 69 503 l 70 511 b 388 742 81 646 196 742 b 697 498 576 742 697 645 l 697 0 b 612 -146 641 -43 612 -90 l 612 -147 b 677 -218 612 -195 641 -218 b 709 -214 690 -218 702 -217 l 709 -311 b 607 -328 688 -321 647 -328 b 442 -178 514 -328 442 -273 l 442 -178 b 545 0 442 -110 479 -45 l 499 0 l 499 109 l 495 109 b 281 -12 454 34 376 -12 m 233 218 b 345 133 233 165 277 133 b 499 266 434 133 499 190 l 499 318 l 349 309 b 233 220 273 304 233 271 l 233 218 "},"ⱥ":{"ha":760,"x_min":0,"x_max":0,"o":"m 572 820 l 545 714 b 697 498 640 675 697 599 l 697 0 l 499 0 l 499 109 l 495 108 b 354 -2 465 54 416 16 l 321 -125 l 193 -92 l 216 -5 b 37 208 106 18 37 100 l 37 210 b 319 431 37 342 139 419 l 332 431 l 374 590 b 252 509 304 589 261 555 l 250 503 l 69 503 l 70 511 b 388 742 81 646 196 742 b 414 741 397 742 406 742 l 444 853 m 499 486 b 494 523 499 499 497 512 l 471 439 l 499 441 l 499 486 m 499 318 l 438 314 l 391 138 b 499 266 456 155 499 203 m 233 218 b 260 158 233 193 242 173 l 297 299 b 233 220 254 286 233 258 l 233 218 "},"ɐ":{"ha":760,"x_min":0,"x_max":0,"o":"m 479 739 b 724 519 625 739 724 648 l 724 518 b 441 297 724 386 621 309 l 261 286 l 261 241 b 380 137 261 176 303 137 b 509 218 454 137 499 171 l 510 224 l 691 224 l 690 216 b 372 -15 680 82 564 -15 b 63 229 184 -15 63 82 l 63 727 l 261 727 l 261 619 l 265 619 b 479 739 307 693 384 739 m 261 409 l 411 419 b 528 508 488 424 528 456 l 528 509 b 415 594 528 562 484 594 b 261 462 326 594 261 538 "},"ɑ":{"ha":827,"x_min":0,"x_max":0,"o":"m 334 -15 b 38 363 151 -15 38 127 l 38 364 b 334 742 38 601 151 742 b 557 601 437 742 518 689 l 562 601 l 562 727 l 760 727 l 760 0 l 562 0 l 562 124 l 557 124 b 334 -15 519 38 439 -15 m 400 149 b 562 363 496 149 562 232 l 562 364 b 400 578 562 495 496 578 b 239 364 302 578 239 497 l 239 363 b 400 149 239 231 301 149 "},"ɒ":{"ha":827,"x_min":0,"x_max":0,"o":"m 494 742 b 789 363 677 742 789 600 l 789 363 b 494 -15 789 126 677 -15 b 270 127 391 -15 309 39 l 266 127 l 266 0 l 68 0 l 68 727 l 266 727 l 266 604 l 270 604 b 494 742 309 690 389 742 m 427 578 b 265 364 331 578 265 495 l 265 363 b 427 149 265 232 332 149 b 588 363 526 149 588 231 l 588 363 b 427 578 588 496 526 578 "},"b":{"ha":829,"x_min":0,"x_max":0,"o":"m 495 -15 b 271 124 391 -15 311 38 l 267 124 l 267 0 l 69 0 l 69 979 l 267 979 l 267 601 l 271 601 b 496 742 311 689 392 742 b 791 364 678 742 791 601 l 791 363 b 495 -15 791 127 678 -15 m 429 149 b 590 363 528 149 590 231 l 590 364 b 429 578 590 497 528 578 b 267 364 334 578 267 495 l 267 363 b 429 149 267 232 333 149 "},"ḇ":{"ha":829,"x_min":0,"x_max":0,"o":"m 495 -15 b 271 124 391 -15 311 38 l 267 124 l 267 0 l 69 0 l 69 979 l 267 979 l 267 601 l 271 601 b 496 742 311 689 392 742 b 791 364 678 742 791 601 l 791 363 b 495 -15 791 127 678 -15 m 429 149 b 590 363 528 149 590 231 l 590 364 b 429 578 590 497 528 578 b 267 364 334 578 267 495 l 267 363 b 429 149 267 232 333 149 m 214 -130 l 648 -130 l 648 -252 l 214 -252 "},"ḅ":{"ha":829,"x_min":0,"x_max":0,"o":"m 495 -15 b 271 124 391 -15 311 38 l 267 124 l 267 0 l 69 0 l 69 979 l 267 979 l 267 601 l 271 601 b 496 742 311 689 392 742 b 791 364 678 742 791 601 l 791 363 b 495 -15 791 127 678 -15 m 429 149 b 590 363 528 149 590 231 l 590 364 b 429 578 590 497 528 578 b 267 364 334 578 267 495 l 267 363 b 429 149 267 232 333 149 m 431 -299 b 325 -196 371 -299 325 -252 b 431 -93 325 -140 371 -93 b 536 -196 490 -93 536 -140 b 431 -299 536 -252 490 -299 "},"ḃ":{"ha":829,"x_min":0,"x_max":0,"o":"m 168 1067 b 68 1166 112 1067 68 1112 b 168 1263 68 1219 112 1263 b 269 1166 224 1263 269 1219 b 168 1067 269 1112 224 1067 m 495 -15 b 271 124 391 -15 311 38 l 267 124 l 267 0 l 69 0 l 69 979 l 267 979 l 267 601 l 271 601 b 496 742 311 689 392 742 b 791 364 678 742 791 601 l 791 363 b 495 -15 791 127 678 -15 m 429 149 b 590 363 528 149 590 231 l 590 364 b 429 578 590 497 528 578 b 267 364 334 578 267 495 l 267 363 b 429 149 267 232 333 149 "},"ɓ":{"ha":829,"x_min":0,"x_max":0,"o":"m 495 -15 b 271 124 391 -15 311 38 l 267 124 l 267 0 l 69 0 l 69 768 b 317 994 69 917 153 994 b 403 989 351 994 382 991 l 403 844 b 357 847 391 846 374 847 b 267 768 296 847 267 821 l 267 601 l 271 601 b 496 742 311 689 392 742 b 791 364 678 742 791 601 l 791 363 b 495 -15 791 127 678 -15 m 429 149 b 590 363 528 149 590 231 l 590 364 b 429 578 590 497 528 578 b 267 364 334 578 267 495 l 267 363 b 429 149 267 232 333 149 "},"c":{"ha":757,"x_min":0,"x_max":0,"o":"m 397 -15 b 38 364 175 -15 38 130 l 38 365 b 395 742 38 597 177 742 b 725 463 592 742 718 621 l 725 458 l 541 458 l 540 465 b 397 587 528 534 479 587 b 239 364 300 587 239 503 l 239 363 b 398 140 239 221 300 140 b 541 262 477 140 527 189 l 541 269 l 726 269 l 726 264 b 397 -15 716 106 591 -15 "},"ć":{"ha":757,"x_min":0,"x_max":0,"o":"m 311 808 l 435 1040 l 610 1040 l 444 808 m 397 -15 b 38 364 175 -15 38 130 l 38 365 b 395 742 38 597 177 742 b 725 463 592 742 718 621 l 725 458 l 541 458 l 540 465 b 397 587 528 534 479 587 b 239 364 300 587 239 503 l 239 363 b 398 140 239 221 300 140 b 541 262 477 140 527 189 l 541 269 l 726 269 l 726 264 b 397 -15 716 106 591 -15 "},"č":{"ha":757,"x_min":0,"x_max":0,"o":"m 478 808 l 315 808 l 152 1040 l 295 1040 l 397 899 l 497 1040 l 640 1040 m 397 -15 b 38 364 175 -15 38 130 l 38 365 b 395 742 38 597 177 742 b 725 463 592 742 718 621 l 725 458 l 541 458 l 540 465 b 397 587 528 534 479 587 b 239 364 300 587 239 503 l 239 363 b 398 140 239 221 300 140 b 541 262 477 140 527 189 l 541 269 l 726 269 l 726 264 b 397 -15 716 106 591 -15 "},"ĉ":{"ha":757,"x_min":0,"x_max":0,"o":"m 314 1040 l 477 1040 l 640 808 l 497 808 l 395 950 l 295 808 l 152 808 m 397 -15 b 38 364 175 -15 38 130 l 38 365 b 395 742 38 597 177 742 b 725 463 592 742 718 621 l 725 458 l 541 458 l 540 465 b 397 587 528 534 479 587 b 239 364 300 587 239 503 l 239 363 b 398 140 239 221 300 140 b 541 262 477 140 527 189 l 541 269 l 726 269 l 726 264 b 397 -15 716 106 591 -15 "},"ċ":{"ha":757,"x_min":0,"x_max":0,"o":"m 396 821 b 290 924 337 821 290 867 b 396 1027 290 980 337 1027 b 502 924 456 1027 502 980 b 396 821 502 867 456 821 m 397 -15 b 38 364 175 -15 38 130 l 38 365 b 395 742 38 597 177 742 b 725 463 592 742 718 621 l 725 458 l 541 458 l 540 465 b 397 587 528 534 479 587 b 239 364 300 587 239 503 l 239 363 b 398 140 239 221 300 140 b 541 262 477 140 527 189 l 541 269 l 726 269 l 726 264 b 397 -15 716 106 591 -15 "},"ç":{"ha":757,"x_min":0,"x_max":0,"o":"m 385 -322 b 271 -306 338 -322 293 -315 l 271 -211 b 339 -220 288 -216 313 -220 b 402 -183 376 -220 402 -209 l 402 -182 b 329 -140 402 -155 379 -140 l 303 -140 l 303 -81 l 346 -12 b 38 364 155 8 38 148 l 38 365 b 395 742 38 597 177 742 b 725 463 592 742 718 621 l 725 458 l 541 458 l 540 465 b 397 587 528 534 479 587 b 239 364 300 587 239 503 l 239 363 b 398 140 239 221 300 140 b 541 262 477 140 527 189 l 541 269 l 726 269 l 726 264 b 458 -11 717 123 617 12 l 431 -56 b 554 -187 506 -63 554 -108 l 554 -189 b 385 -322 554 -271 483 -322 "},"ḉ":{"ha":757,"x_min":0,"x_max":0,"o":"m 311 808 l 435 1040 l 610 1040 l 444 808 m 385 -322 b 271 -306 338 -322 293 -315 l 271 -211 b 339 -220 288 -216 313 -220 b 402 -183 376 -220 402 -209 l 402 -182 b 329 -140 402 -155 379 -140 l 303 -140 l 303 -81 l 346 -12 b 38 364 155 8 38 148 l 38 365 b 395 742 38 597 177 742 b 725 463 592 742 718 621 l 725 458 l 541 458 l 540 465 b 397 587 528 534 479 587 b 239 364 300 587 239 503 l 239 363 b 398 140 239 221 300 140 b 541 262 477 140 527 189 l 541 269 l 726 269 l 726 264 b 458 -11 717 123 617 12 l 431 -56 b 554 -187 506 -63 554 -108 l 554 -189 b 385 -322 554 -271 483 -322 "},"ɕ":{"ha":757,"x_min":0,"x_max":0,"o":"m 383 -13 b 38 365 168 5 38 138 l 38 366 b 395 742 38 567 151 742 b 724 470 585 742 709 629 l 725 456 l 541 456 l 539 466 b 398 587 526 538 475 587 b 237 364 300 587 237 504 l 237 363 b 383 115 237 227 279 140 l 383 142 b 567 348 383 260 447 348 b 736 192 676 348 736 273 l 736 191 b 505 -10 736 87 646 9 l 505 -152 l 383 -152 m 505 109 b 615 185 585 117 615 146 l 615 186 b 567 235 615 217 593 235 b 505 137 528 235 505 205 "},"ʗ":{"ha":757,"x_min":0,"x_max":0,"o":"m 397 -252 b 38 235 175 -252 38 -64 l 38 236 b 395 720 38 532 177 720 b 725 391 592 720 718 565 l 725 385 l 541 385 l 540 392 b 397 562 528 484 479 562 b 239 235 300 562 239 436 l 239 233 b 398 -94 239 27 300 -94 b 541 77 477 -94 527 -24 l 541 84 l 726 84 l 726 78 b 397 -252 716 -109 591 -252 "},"ȼ":{"ha":757,"x_min":0,"x_max":0,"o":"m 397 -15 b 349 -12 380 -15 364 -14 l 319 -125 l 191 -92 l 221 23 b 38 364 104 80 38 200 l 38 365 b 395 742 38 597 177 742 b 412 742 400 742 406 742 l 441 853 l 570 820 l 542 715 b 725 463 652 671 720 576 l 725 458 l 541 458 l 540 465 b 498 549 534 498 519 527 l 389 140 b 398 140 392 140 395 140 b 541 262 477 140 527 189 l 541 269 l 726 269 l 726 264 b 397 -15 716 106 591 -15 m 239 363 b 272 214 239 301 250 252 l 370 584 b 239 364 289 570 239 489 l 239 363 "},"d":{"ha":827,"x_min":0,"x_max":0,"o":"m 334 -15 b 38 363 151 -15 38 127 l 38 364 b 334 742 38 601 151 742 b 557 601 437 742 518 689 l 562 601 l 562 979 l 760 979 l 760 0 l 562 0 l 562 124 l 557 124 b 334 -15 519 38 439 -15 m 400 149 b 562 363 496 149 562 232 l 562 364 b 400 578 562 495 496 578 b 239 364 302 578 239 497 l 239 363 b 400 149 239 231 301 149 "},"ḋ":{"ha":827,"x_min":0,"x_max":0,"o":"m 661 1067 b 560 1166 604 1067 560 1112 b 661 1263 560 1219 604 1263 b 761 1166 717 1263 761 1219 b 661 1067 761 1112 717 1067 m 334 -15 b 38 363 151 -15 38 127 l 38 364 b 334 742 38 601 151 742 b 557 601 437 742 518 689 l 562 601 l 562 979 l 760 979 l 760 0 l 562 0 l 562 124 l 557 124 b 334 -15 519 38 439 -15 m 400 149 b 562 363 496 149 562 232 l 562 364 b 400 578 562 495 496 578 b 239 364 302 578 239 497 l 239 363 b 400 149 239 231 301 149 "},"ḓ":{"ha":827,"x_min":0,"x_max":0,"o":"m 334 -15 b 38 363 151 -15 38 127 l 38 364 b 334 742 38 601 151 742 b 557 601 437 742 518 689 l 562 601 l 562 979 l 760 979 l 760 0 l 562 0 l 562 124 l 557 124 b 334 -15 519 38 439 -15 m 400 149 b 562 363 496 149 562 232 l 562 364 b 400 578 562 495 496 578 b 239 364 302 578 239 497 l 239 363 b 400 149 239 231 301 149 m 332 -81 l 492 -81 l 656 -304 l 513 -304 l 411 -168 l 311 -304 l 168 -304 "},"ḑ":{"ha":827,"x_min":0,"x_max":0,"o":"m 334 -15 b 38 363 151 -15 38 127 l 38 364 b 334 742 38 601 151 742 b 557 601 437 742 518 689 l 562 601 l 562 979 l 760 979 l 760 0 l 562 0 l 562 124 l 557 124 b 334 -15 519 38 439 -15 m 400 149 b 562 363 496 149 562 232 l 562 364 b 400 578 562 495 496 578 b 239 364 302 578 239 497 l 239 363 b 400 149 239 231 301 149 m 323 -81 l 495 -81 l 395 -322 l 272 -322 "},"ḏ":{"ha":827,"x_min":0,"x_max":0,"o":"m 334 -15 b 38 363 151 -15 38 127 l 38 364 b 334 742 38 601 151 742 b 557 601 437 742 518 689 l 562 601 l 562 979 l 760 979 l 760 0 l 562 0 l 562 124 l 557 124 b 334 -15 519 38 439 -15 m 400 149 b 562 363 496 149 562 232 l 562 364 b 400 578 562 495 496 578 b 239 364 302 578 239 497 l 239 363 b 400 149 239 231 301 149 m 195 -130 l 629 -130 l 629 -252 l 195 -252 "},"ď":{"ha":1013,"x_min":0,"x_max":0,"o":"m 851 1040 l 1013 1040 l 923 808 l 806 808 m 334 -15 b 38 363 151 -15 38 127 l 38 364 b 334 742 38 601 151 742 b 557 601 437 742 518 689 l 562 601 l 562 979 l 760 979 l 760 0 l 562 0 l 562 124 l 557 124 b 334 -15 519 38 439 -15 m 400 149 b 562 363 496 149 562 232 l 562 364 b 400 578 562 495 496 578 b 239 364 302 578 239 497 l 239 363 b 400 149 239 231 301 149 "},"ḍ":{"ha":827,"x_min":0,"x_max":0,"o":"m 334 -15 b 38 363 151 -15 38 127 l 38 364 b 334 742 38 601 151 742 b 557 601 437 742 518 689 l 562 601 l 562 979 l 760 979 l 760 0 l 562 0 l 562 124 l 557 124 b 334 -15 519 38 439 -15 m 400 149 b 562 363 496 149 562 232 l 562 364 b 400 578 562 495 496 578 b 239 364 302 578 239 497 l 239 363 b 400 149 239 231 301 149 m 412 -299 b 307 -196 353 -299 307 -252 b 412 -93 307 -140 353 -93 b 518 -196 472 -93 518 -140 b 412 -299 518 -252 472 -299 "},"đ":{"ha":849,"x_min":0,"x_max":0,"o":"m 334 -15 b 38 363 151 -15 38 127 l 38 364 b 334 742 38 601 151 742 b 557 601 437 742 518 689 l 562 601 l 562 788 l 439 788 l 439 895 l 562 895 l 562 979 l 760 979 l 760 895 l 827 895 l 827 788 l 760 788 l 760 0 l 562 0 l 562 124 l 557 124 b 334 -15 519 38 439 -15 m 400 149 b 562 363 496 149 562 232 l 562 364 b 400 578 562 495 496 578 b 239 364 302 578 239 497 l 239 363 b 400 149 239 231 301 149 "},"ɗ":{"ha":827,"x_min":0,"x_max":0,"o":"m 334 -15 b 38 363 151 -15 38 127 l 38 364 b 334 742 38 601 151 742 b 557 601 437 742 518 689 l 562 601 l 562 768 b 810 994 562 917 645 994 b 895 989 844 994 875 991 l 895 844 b 850 847 883 846 867 847 b 760 768 789 847 760 821 l 760 0 l 562 0 l 562 124 l 557 124 b 334 -15 519 38 439 -15 m 400 149 b 562 363 496 149 562 232 l 562 364 b 400 578 562 495 496 578 b 239 364 302 578 239 497 l 239 363 b 400 149 239 231 301 149 "},"ɖ":{"ha":827,"x_min":0,"x_max":0,"o":"m 334 -15 b 38 363 151 -15 38 127 l 38 364 b 334 742 38 601 151 742 b 557 601 437 742 518 689 l 562 601 l 562 979 l 760 979 l 760 -13 b 850 -92 760 -67 789 -92 b 895 -90 867 -92 883 -92 l 895 -235 b 810 -239 875 -237 844 -239 b 562 -13 645 -239 562 -163 l 562 124 l 557 124 b 334 -15 519 38 439 -15 m 400 149 b 562 363 496 149 562 232 l 562 364 b 400 578 562 495 496 578 b 239 364 302 578 239 497 l 239 363 b 400 149 239 231 301 149 "},"e":{"ha":771,"x_min":0,"x_max":0,"o":"m 395 -15 b 38 362 173 -15 38 130 l 38 363 b 387 742 38 594 174 742 b 734 378 600 742 734 597 l 734 317 l 233 317 b 399 133 235 201 298 133 b 545 218 481 133 530 178 l 546 222 l 728 222 l 726 215 b 395 -15 703 108 603 -15 m 391 594 b 235 441 309 594 248 540 l 544 441 b 391 594 532 542 473 594 "},"è":{"ha":771,"x_min":0,"x_max":0,"o":"m 178 1040 l 353 1040 l 477 808 l 345 808 m 395 -15 b 38 362 173 -15 38 130 l 38 363 b 387 742 38 594 174 742 b 734 378 600 742 734 597 l 734 317 l 233 317 b 399 133 235 201 298 133 b 545 218 481 133 530 178 l 546 222 l 728 222 l 726 215 b 395 -15 703 108 603 -15 m 391 594 b 235 441 309 594 248 540 l 544 441 b 391 594 532 542 473 594 "},"ȅ":{"ha":771,"x_min":0,"x_max":0,"o":"m 33 1040 l 208 1040 l 349 808 l 216 808 m 301 1040 l 477 1040 l 601 808 l 468 808 m 395 -15 b 38 362 173 -15 38 130 l 38 363 b 387 742 38 594 174 742 b 734 378 600 742 734 597 l 734 317 l 233 317 b 399 133 235 201 298 133 b 545 218 481 133 530 178 l 546 222 l 728 222 l 726 215 b 395 -15 703 108 603 -15 m 391 594 b 235 441 309 594 248 540 l 544 441 b 391 594 532 542 473 594 "},"é":{"ha":771,"x_min":0,"x_max":0,"o":"m 307 808 l 431 1040 l 606 1040 l 440 808 m 395 -15 b 38 362 173 -15 38 130 l 38 363 b 387 742 38 594 174 742 b 734 378 600 742 734 597 l 734 317 l 233 317 b 399 133 235 201 298 133 b 545 218 481 133 530 178 l 546 222 l 728 222 l 726 215 b 395 -15 703 108 603 -15 m 391 594 b 235 441 309 594 248 540 l 544 441 b 391 594 532 542 473 594 "},"ê":{"ha":771,"x_min":0,"x_max":0,"o":"m 310 1040 l 473 1040 l 636 808 l 493 808 l 391 950 l 291 808 l 148 808 m 395 -15 b 38 362 173 -15 38 130 l 38 363 b 387 742 38 594 174 742 b 734 378 600 742 734 597 l 734 317 l 233 317 b 399 133 235 201 298 133 b 545 218 481 133 530 178 l 546 222 l 728 222 l 726 215 b 395 -15 703 108 603 -15 m 391 594 b 235 441 309 594 248 540 l 544 441 b 391 594 532 542 473 594 "},"ể":{"ha":771,"x_min":0,"x_max":0,"o":"m 522 1047 b 571 1115 552 1071 571 1093 b 493 1159 571 1143 538 1159 b 450 1155 474 1159 457 1158 l 450 1244 b 535 1257 470 1252 500 1257 b 683 1149 620 1257 683 1216 b 621 1043 683 1107 662 1071 l 522 1043 m 308 1014 l 475 1014 l 639 803 l 494 803 l 391 937 l 290 803 l 145 803 m 395 -15 b 38 362 173 -15 38 130 l 38 363 b 387 742 38 594 174 742 b 734 378 600 742 734 597 l 734 317 l 233 317 b 399 133 235 201 298 133 b 545 218 481 133 530 178 l 546 222 l 728 222 l 726 215 b 395 -15 703 108 603 -15 m 391 594 b 235 441 309 594 248 540 l 544 441 b 391 594 532 542 473 594 "},"ề":{"ha":771,"x_min":0,"x_max":0,"o":"m 372 1255 l 536 1255 l 646 1050 l 532 1050 m 283 1014 l 450 1014 l 614 803 l 470 803 l 366 937 l 265 803 l 121 803 m 395 -15 b 38 362 173 -15 38 130 l 38 363 b 387 742 38 594 174 742 b 734 378 600 742 734 597 l 734 317 l 233 317 b 399 133 235 201 298 133 b 545 218 481 133 530 178 l 546 222 l 728 222 l 726 215 b 395 -15 703 108 603 -15 m 391 594 b 235 441 309 594 248 540 l 544 441 b 391 594 532 542 473 594 "},"ễ":{"ha":771,"x_min":0,"x_max":0,"o":"m 503 1069 b 396 1105 455 1069 420 1087 l 365 1125 b 307 1150 345 1139 326 1150 b 262 1076 278 1150 262 1127 l 262 1071 l 149 1071 l 149 1082 b 283 1266 149 1204 201 1266 b 389 1232 329 1266 366 1248 l 420 1211 b 478 1186 440 1196 458 1186 b 523 1259 506 1186 523 1209 l 523 1265 l 635 1265 l 635 1254 b 503 1069 635 1131 583 1069 m 308 1014 l 475 1014 l 639 803 l 494 803 l 391 937 l 290 803 l 145 803 m 395 -15 b 38 362 173 -15 38 130 l 38 363 b 387 742 38 594 174 742 b 734 378 600 742 734 597 l 734 317 l 233 317 b 399 133 235 201 298 133 b 545 218 481 133 530 178 l 546 222 l 728 222 l 726 215 b 395 -15 703 108 603 -15 m 391 594 b 235 441 309 594 248 540 l 544 441 b 391 594 532 542 473 594 "}}}
